<?xml version="1.0" encoding="UTF-8"?>
<svg width="144px" height="37px" viewBox="0 0 144 37" version="1.1" xmlns="http://www.w3.org/2000/svg" xmlns:xlink="http://www.w3.org/1999/xlink">
    <!-- Generator: Sketch 55.2 (78181) - https://sketchapp.com -->
    <title>carbos</title>
    <desc>Created with Sketch.</desc>
    <g id="Page-1" stroke="none" stroke-width="1" fill="none" fill-rule="evenodd">
        <g id="Desktop" transform="translate(-163.000000, -21.000000)" fill="#FFFFFF" fill-rule="nonzero">
            <g id="HEADER">
                <g id="homelink" transform="translate(64.000000, 9.000000)">
                    <path d="M118.509482,44.208 L118.509482,46.896 C118.09348,47.1200011 117.677485,47.327999 117.261482,47.52 C115.725475,48.2240035 114.045492,48.576 112.221482,48.576 C110.397473,48.576 108.72549,48.2320034 107.205482,47.544 C105.685475,46.8559966 104.365488,45.9360058 103.245482,44.784 C102.125477,43.6319942 101.253486,42.2880077 100.629482,40.752 C100.005479,39.2159923 99.6934825,37.5840086 99.6934825,35.856 L99.6934825,35.76 C99.6934825,34.0319914 100.005479,32.4000077 100.629482,30.864 C101.253486,29.3279923 102.133477,27.9680059 103.269482,26.784 C104.405488,25.5999941 105.741475,24.6640034 107.277482,23.976 C108.81349,23.2879966 110.493473,22.944 112.317482,22.944 C114.141492,22.944 115.805475,23.2959965 117.309482,24 C117.725485,24.1600008 118.125481,24.3519989 118.509482,24.576 L118.509482,27.408 C117.805479,26.8319971 117.021487,26.3520019 116.157482,25.968 C114.941476,25.4239973 113.62949,25.152 112.221482,25.152 C110.781475,25.152 109.445489,25.4319972 108.213482,25.992 C106.981476,26.5520028 105.925487,27.3039953 105.045482,28.248 C104.165478,29.1920047 103.477485,30.3039936 102.981482,31.584 C102.48548,32.8640064 102.237482,34.2239928 102.237482,35.664 L102.237482,35.76 C102.237482,37.2320074 102.49348,38.6159935 103.005482,39.912 C103.517485,41.2080065 104.229478,42.3359952 105.141482,43.296 C106.053487,44.2560048 107.125476,45.0079973 108.357482,45.552 C109.589489,46.0960027 110.909475,46.368 112.317482,46.368 C113.75749,46.368 115.101476,46.0800029 116.349482,45.504 C117.149486,45.1519982 117.869479,44.7200026 118.509482,44.208 Z M140.415655,37.728 L140.415655,35.088 C139.839652,35.088 139.207658,35.0800001 138.519655,35.064 C137.831652,35.0479999 137.159658,35.04 136.503655,35.04 L134.079655,35.04 C131.999645,35.04 130.199663,35.1759986 128.679655,35.448 C127.159647,35.7200014 125.983659,36.3039955 125.151655,37.2 C124.831653,37.5200016 124.567656,37.9679971 124.359655,38.544 C124.151654,39.1200029 124.015655,39.7519966 123.951655,40.44 C123.887655,41.1280034 123.975654,41.8159966 124.215655,42.504 C124.455656,43.1920034 124.823653,43.8239971 125.319655,44.4 C125.815657,44.9760029 126.55965,45.4479982 127.551655,45.816 C128.54366,46.1840018 129.727648,46.368 131.103655,46.368 C132.03166,46.368 132.887651,46.2880008 133.671655,46.128 C134.455659,45.9679992 135.135652,45.7600013 135.711655,45.504 C136.287658,45.2479987 136.815653,44.9600016 137.295655,44.64 C137.775657,44.3199984 138.167653,43.9760018 138.471655,43.608 C138.775657,43.2399982 139.039654,42.8720018 139.263655,42.504 C139.487656,42.1359982 139.663654,41.7840017 139.791655,41.448 C139.919656,41.1119983 140.023655,40.8160013 140.103655,40.56 C140.183655,40.3039987 140.239655,40.1040007 140.271655,39.96 L140.319655,39.744 C140.351655,39.744 140.383655,39.0720067 140.415655,37.728 Z M123.711655,25.296 C126.303668,23.887993 129.199639,23.184 132.399655,23.184 C139.215689,23.184 142.623655,26.6239656 142.623655,33.504 L142.623655,48 L140.319655,48 L140.319655,43.92 L140.175655,44.064 C140.111655,44.1920006 139.999656,44.3439991 139.839655,44.52 C139.679654,44.6960009 139.495656,44.9039988 139.287655,45.144 C139.079654,45.3840012 138.815657,45.6399986 138.495655,45.912 C138.175653,46.184 137.831657,46.4559986 137.463655,46.728 C137.095653,47.0000014 136.671657,47.2559988 136.191655,47.496 C135.711653,47.7360012 135.215658,47.9439991 134.703655,48.12 C134.191652,48.2960009 133.615658,48.4399994 132.975655,48.552 C132.335652,48.6640006 131.679658,48.72 131.007655,48.72 C127.99964,48.72 125.655663,47.9360078 123.975655,46.368 C122.295647,44.7999922 121.455655,42.8480117 121.455655,40.512 C121.455655,38.2719888 122.407645,36.4400071 124.311655,35.016 C126.215665,33.5919929 128.70364,32.88 131.775655,32.88 L140.271655,32.88 C140.271655,29.1359813 138.81567,26.768005 135.903655,25.776 C135.007651,25.4879986 134.007661,25.344 132.903655,25.344 C131.799649,25.344 130.78366,25.3999994 129.855655,25.512 C128.92765,25.6240006 128.159658,25.775999 127.551655,25.968 C126.943652,26.160001 126.447657,26.3439991 126.063655,26.52 C125.679653,26.6960009 125.335657,26.879999 125.031655,27.072 C124.727653,27.264001 124.559655,27.36 124.527655,27.36 L123.711655,25.296 Z M160.833827,25.728 C160.321825,25.728 159.78583,25.7599997 159.225827,25.824 C158.665825,25.8880003 157.913832,26.119998 156.969827,26.52 C156.025823,26.920002 155.169831,27.4559966 154.401827,28.128 C153.633824,28.8000034 152.873831,29.8239931 152.121827,31.2 C151.369824,32.5760069 150.817829,34.2079906 150.465827,36.096 L150.465827,48 L148.113827,48 L148.113827,23.52 L150.465827,23.52 L150.465827,30.288 C151.937835,27.4399858 153.601818,25.5680045 155.457827,24.672 C157.153836,23.7439954 158.945818,23.2480003 160.833827,23.184 L160.833827,25.728 Z M168.628,31.248 L168.628,41.232 C169.748006,43.2480101 171.363989,44.7359952 173.476,45.696 C175.588011,46.6560048 177.795988,46.9120022 180.1,46.464 C182.404012,46.0159978 184.307992,44.8800091 185.812,43.056 C186.964006,41.6799931 187.675999,39.9680102 187.948,37.92 C188.220001,35.8719898 188.076003,33.9120094 187.516,32.04 C186.955997,30.1679906 185.932007,28.5680066 184.444,27.24 C182.955993,25.9119934 181.18801,25.248 179.14,25.248 C177.763993,25.248 176.516006,25.3759987 175.396,25.632 C174.275994,25.8880013 173.388003,26.1839983 172.732,26.52 C172.075997,26.8560017 171.460003,27.3039972 170.884,27.864 C170.307997,28.4240028 169.916001,28.8639984 169.708,29.184 C169.499999,29.5040016 169.268001,29.9279974 169.012,30.456 C168.755999,30.9840026 168.628,31.248 168.628,31.248 Z M166.228,12.96 L168.628,12.96 L168.628,28.704 C169.012002,28.1599973 169.459997,27.6240026 169.972,27.096 C170.484003,26.5679974 171.179996,25.96 172.06,25.272 C172.940004,24.5839966 174.003994,24.0240022 175.252,23.592 C176.500006,23.1599978 177.811993,22.944 179.188,22.944 C181.556012,22.944 183.659991,23.6159933 185.5,24.96 C187.340009,26.3040067 188.699996,28.0639891 189.58,30.24 C190.460004,32.4160109 190.804001,34.7519875 190.612,37.248 C190.451999,39.040009 189.964004,40.6879925 189.148,42.192 C188.331996,43.6960075 187.340006,44.9039954 186.172,45.816 C185.003994,46.7280046 183.756007,47.4399974 182.428,47.952 C181.099993,48.4640026 179.796006,48.72 178.516,48.72 C176.627991,48.72 174.73201,48.1120061 172.828,46.896 C170.92399,45.6799939 169.524004,44.4000067 168.628,43.056 L168.628,48 L166.228,48 L166.228,12.96 Z M208.822172,46.368 C210.26218,46.368 211.598166,46.0880028 212.830172,45.528 C214.062179,44.9679972 215.118168,44.2160047 215.998172,43.272 C216.878177,42.3279953 217.56617,41.2160064 218.062172,39.936 C218.558175,38.6559936 218.806172,37.2960072 218.806172,35.856 L218.806172,35.76 C218.806172,34.2879926 218.550175,32.9040065 218.038172,31.608 C217.52617,30.3119935 216.814177,29.1840048 215.902172,28.224 C214.990168,27.2639952 213.918179,26.5120027 212.686172,25.968 C211.454166,25.4239973 210.13418,25.152 208.726172,25.152 C207.286165,25.152 205.950179,25.4319972 204.718172,25.992 C203.486166,26.5520028 202.430177,27.3039953 201.550172,28.248 C200.670168,29.1920047 199.982175,30.3039936 199.486172,31.584 C198.99017,32.8640064 198.742172,34.2239928 198.742172,35.664 L198.742172,35.76 C198.742172,37.2320074 198.99817,38.6159935 199.510172,39.912 C200.022175,41.2080065 200.734168,42.3359952 201.646172,43.296 C202.558177,44.2560048 203.630166,45.0079973 204.862172,45.552 C206.094179,46.0960027 207.414165,46.368 208.822172,46.368 Z M208.726172,48.576 C206.902163,48.576 205.23018,48.2320034 203.710172,47.544 C202.190165,46.8559966 200.870178,45.9360058 199.750172,44.784 C198.630167,43.6319942 197.758176,42.2880077 197.134172,40.752 C196.510169,39.2159923 196.198172,37.5840086 196.198172,35.856 L196.198172,35.76 C196.198172,34.0319914 196.510169,32.4000077 197.134172,30.864 C197.758176,29.3279923 198.638167,27.9680059 199.774172,26.784 C200.910178,25.5999941 202.246165,24.6640034 203.782172,23.976 C205.31818,23.2879966 206.998163,22.944 208.822172,22.944 C210.646182,22.944 212.318165,23.2879966 213.838172,23.976 C215.35818,24.6640034 216.678167,25.5839942 217.798172,26.736 C218.918178,27.8880058 219.790169,29.2319923 220.414172,30.768 C221.038176,32.3040077 221.350172,33.9359914 221.350172,35.664 L221.350172,35.76 C221.350172,37.4880086 221.038176,39.1199923 220.414172,40.656 C219.790169,42.1920077 218.910178,43.5519941 217.774172,44.736 C216.638167,45.9200059 215.30218,46.8559966 213.766172,47.544 C212.230165,48.2320034 210.550182,48.576 208.726172,48.576 Z M240.568345,27.696 C240.344344,27.5359992 240.032347,27.3440011 239.632345,27.12 C239.232343,26.8959989 238.464351,26.5680022 237.328345,26.136 C236.192339,25.7039978 235.12035,25.4160007 234.112345,25.272 C233.10434,25.1279993 232.016351,25.2239983 230.848345,25.56 C229.680339,25.8960017 228.712349,26.5759949 227.944345,27.6 C227.272342,28.8480062 227.184343,29.9279954 227.680345,30.84 C228.176347,31.7520046 228.992339,32.4159979 230.128345,32.832 C231.264351,33.2480021 232.568338,33.7119974 234.040345,34.224 C235.512352,34.7360026 236.896339,35.2399975 238.192345,35.736 C239.488351,36.2320025 240.544341,36.9999948 241.360345,38.04 C242.176349,39.0800052 242.504346,40.3359926 242.344345,41.808 C242.152344,43.7600098 241.456351,45.2879945 240.256345,46.392 C239.056345,47.4960055 237.648353,48.1359991 236.032345,48.312 C234.416337,48.4880009 232.776353,48.4480013 231.112345,48.192 C229.448337,47.9359987 227.968351,47.5200029 226.672345,46.944 C225.376339,46.3679971 224.504347,45.7920029 224.056345,45.216 L225.208345,43.152 C225.528347,43.3760011 225.968342,43.6639982 226.528345,44.016 C227.088348,44.3680018 228.128337,44.839997 229.648345,45.432 C231.168353,46.024003 232.568339,46.32 233.848345,46.32 C235.928355,46.32 237.46434,45.8560046 238.456345,44.928 C239.44835,43.9999954 239.944345,42.7680077 239.944345,41.232 C239.944345,40.3359955 239.504349,39.5280036 238.624345,38.808 C237.744341,38.0879964 236.744351,37.5360019 235.624345,37.152 C234.504339,36.7679981 233.080354,36.3840019 231.352345,36 C229.080334,35.4879974 227.344351,34.4880074 226.144345,33 C224.944339,31.5119926 224.632342,29.8560091 225.208345,28.032 C225.784348,26.239991 226.960336,24.8960045 228.736345,24 C230.512354,23.1039955 232.392335,22.7999986 234.376345,23.088 C235.496351,23.2480008 236.672339,23.5599977 237.904345,24.024 C239.136351,24.4880023 240.088342,24.9119981 240.760345,25.296 L241.768345,25.872 L240.568345,27.696 Z" id="carbos"></path>
                </g>
            </g>
        </g>
    </g>
</svg>