<?xml version="1.0" encoding="UTF-8"?>
<svg  viewBox="0 0 408 399" version="1.1" xmlns="http://www.w3.org/2000/svg" xmlns:xlink="http://www.w3.org/1999/xlink">
    <!-- Generator: Sketch 55.2 (78181) - https://sketchapp.com -->
    <title>LINKS</title>
    <desc>Created with Sketch.</desc>
    <defs>
        <linearGradient x1="25.1495096%" y1="6.69487307%" x2="74.86286%" y2="93.3175709%" id="linearGradient-1">
            <stop stop-color="#FF5544" offset="0%"></stop>
            <stop stop-color="#FF4340" offset="10%"></stop>
            <stop stop-color="#FF1E38" offset="32%"></stop>
            <stop stop-color="#FF0833" offset="51%"></stop>
            <stop stop-color="#FF0031" offset="62%"></stop>
        </linearGradient>
        <linearGradient x1="74.8504904%" y1="6.69487307%" x2="25.13714%" y2="93.3175709%" id="linearGradient-2">
            <stop stop-color="#FF5544" offset="0%"></stop>
            <stop stop-color="#FF4340" offset="10%"></stop>
            <stop stop-color="#FF1E38" offset="33%"></stop>
            <stop stop-color="#FF0833" offset="51%"></stop>
            <stop stop-color="#FF0031" offset="62%"></stop>
        </linearGradient>
        <linearGradient x1="50%" y1="0%" x2="50%" y2="100.00995%" id="linearGradient-3">
            <stop stop-color="#4D4D4D" offset="0%"></stop>
            <stop stop-color="#3C3C3C" offset="13%"></stop>
            <stop stop-color="#2D2D2D" offset="30%"></stop>
            <stop stop-color="#252525" offset="51%"></stop>
            <stop stop-color="#222222" offset="83%"></stop>
        </linearGradient>
        <polygon id="path-4" points="0.0650857356 0.0840189194 42.4529987 0.0840189194 42.4529987 69.5991964 0.0650857356 69.5991964"></polygon>
        <polygon id="path-6" points="0.0616776065 0.0847277388 36.680358 0.0847277388 36.680358 13.2168839 0.0616776065 13.2168839"></polygon>
        <ellipse id="path-8" cx="63.9365672" cy="63.9432624" rx="63.9365672" ry="63.9432624"></ellipse>
    </defs>
    <g id="Page-1" stroke="none" stroke-width="1" fill="none" fill-rule="evenodd">
        <g id="Artboard" transform="translate(-313.000000, -798.000000)">
            <g id="LINKS" transform="translate(316.000000, 801.000000)">
                <g id="ethereum-image-copy" transform="translate(137.000000, 0.000000)">
                    <g id="chains" transform="translate(55.000000, 128.000000)" stroke="#F44336" stroke-width="5">
                        <path d="M8,107.791667 C4.96243388,107.791667 2.5,110.254101 2.5,113.291667 L2.5,121.675 C2.5,124.712566 4.96243388,127.175 8,127.175 L9.25615764,127.175 C12.2937238,127.175 14.7561576,124.712566 14.7561576,121.675 L14.7561576,113.291667 C14.7561576,110.254101 12.2937238,107.791667 9.25615764,107.791667 L8,107.791667 Z" id="Rectangle"></path>
                        <path d="M8,41.2916667 C4.96243388,41.2916667 2.5,43.7541005 2.5,46.7916667 L2.5,55.175 C2.5,58.2125661 4.96243388,60.675 8,60.675 L9.25615764,60.675 C12.2937238,60.675 14.7561576,58.2125661 14.7561576,55.175 L14.7561576,46.7916667 C14.7561576,43.7541005 12.2937238,41.2916667 9.25615764,41.2916667 L8,41.2916667 Z" id="Rectangle-Copy-2"></path>
                        <path d="M8,74.5416667 C4.96243388,74.5416667 2.5,77.0041005 2.5,80.0416667 L2.5,86.2083333 C2.5,89.2458995 4.96243388,91.7083333 8,91.7083333 L9.25615764,91.7083333 C12.2937238,91.7083333 14.7561576,89.2458995 14.7561576,86.2083333 L14.7561576,80.0416667 C14.7561576,77.0041005 12.2937238,74.5416667 9.25615764,74.5416667 L8,74.5416667 Z" id="Rectangle-Copy"></path>
                        <path d="M8,8.04166667 C4.96243388,8.04166667 2.5,10.5041005 2.5,13.5416667 L2.5,19.7083333 C2.5,22.7458995 4.96243388,25.2083333 8,25.2083333 L9.25615764,25.2083333 C12.2937238,25.2083333 14.7561576,22.7458995 14.7561576,19.7083333 L14.7561576,13.5416667 C14.7561576,10.5041005 12.2937238,8.04166667 9.25615764,8.04166667 L8,8.04166667 Z" id="Rectangle-Copy-3"></path>
                        <path d="M8.34975369,88.6666667 L8.34975369,110.833333" id="Line" stroke-linecap="square"></path>
                        <path d="M8.34975369,22.1666667 L8.34975369,44.3333333" id="Line-Copy-2" stroke-linecap="square"></path>
                        <path d="M8.34975369,0 L8.34975369,11.0833333" id="Line-Copy-4" stroke-linecap="square"></path>
                        <path d="M8.34975369,121.916667 L8.34975369,133" id="Line-Copy" stroke-linecap="square"></path>
                        <path d="M8.34975369,55.4166667 L8.34975369,77.5833333" id="Line-Copy-3" stroke-linecap="square"></path>
                    </g>
                    <g id="circles" transform="translate(0.000000, 265.000000)" stroke="#444444" stroke-width="5">
                        <ellipse id="Oval-2-Copy" cx="63.9365672" cy="63.9432624" rx="63.9365672" ry="63.9432624"></ellipse>
                    </g>
                    <g id="Group-8">
                        <ellipse id="Oval-2" stroke="#F44336" stroke-width="5" cx="63.9365672" cy="63.9432624" rx="63.9365672" ry="63.9432624"></ellipse>
                        <g id="logo" transform="translate(19.000000, 35.000000)" fill-rule="nonzero">
                            <ellipse id="Oval" fill="url(#linearGradient-1)" cx="22.2113043" cy="27.8613861" rx="22.2113043" ry="22.2780198"></ellipse>
                            <ellipse id="Oval" fill="url(#linearGradient-2)" cx="66.639441" cy="27.8613861" rx="22.2113043" ry="22.2780198"></ellipse>
                            <ellipse id="Oval" fill="url(#linearGradient-3)" cx="44.4226087" cy="27.8613861" rx="27.7779503" ry="27.8613861"></ellipse>
                            <path d="M56.7886335,18.5631683 L54.621677,20.2265347 C52.2581517,17.1246718 48.5629542,15.3374132 44.6713665,15.4138614 C41.4720864,15.3708435 38.3922402,16.6312912 36.1362112,18.9069307 C33.7971662,21.1293397 32.4989488,24.2367097 32.5596273,27.4677228 C32.4829184,30.657043 33.7539098,33.7302793 36.0588199,35.9287129 C38.4079788,38.1995457 41.5705445,39.4247983 44.831677,39.3275248 C48.6227682,39.3885212 52.2318584,37.700174 54.621677,34.7477228 L56.7886335,36.4110891 C55.4367821,38.2074657 53.6527524,39.6305827 51.6034161,40.5473267 C49.4216037,41.508923 47.0598672,41.9910074 44.6768944,41.9611881 C40.2545342,41.9611881 36.64294,40.5639604 33.8421118,37.769505 C31.0412836,34.9750495 29.6353416,31.4413201 29.6242857,27.1683168 C29.6070367,24.5988866 30.2811753,22.0723721 31.5756522,19.8550495 C32.8629623,17.6334781 34.737904,15.8123922 36.9930435,14.5932673 C39.2763548,13.3380512 41.8409877,12.6873341 44.4447205,12.7025743 C46.9138865,12.6627495 49.3604056,13.1800513 51.6034161,14.2162376 C53.6759936,15.193492 55.4620036,16.6907604 56.7886335,18.5631683 L56.7886335,18.5631683 Z" id="Shape" fill="#FFFFFF"></path>
                        </g>
                    </g>
                    <g id="tree-greyscale" transform="translate(26.000000, 279.000000)">
                        <path d="M32.1793492,92.1905245 C25.9345414,91.4284264 18.5752402,93.1424704 13,96 C17.6834078,95.0477157 21.2515298,94.4761421 25.0423128,94.0950931 C26.1579947,94.0950931 36.8623608,93.7143824 31.5101777,92" id="Fill-1" fill="#222222"></path>
                        <path d="M28.5275347,48.8391396 C27.2214199,47.5287973 20.9078225,44.6896577 22.2143241,47.9657074 C20.2545717,47.5287973 17.2064548,46 15.2474759,46.4369101 C12.6348595,46.8734322 12.199359,48.1841625 15.2474759,49.2760497 C12.6348595,48.8391396 10.4577436,46.8734322 8.06287747,46 C7.41001344,49.7125718 11.9819955,52.1151894 15.2474759,51.8971223 C15.4652262,51.8971223 15.4652262,51.8971223 15.2474759,51.8971223 C12.4171092,52.9890096 19.8190712,56.2650593 22.4316876,54.0812849 C22.2143241,57.1388795 29.8340363,57.7942447 32.2289025,56.0469923 C35.0592692,54.0812849 34.4056316,50.1494819 30.9224009,49.2760497 C31.1405379,49.2760497 31.7930152,49.4945048 32.0111522,49.4945048 C31.3579014,47.7472524 29.1807855,47.9657074 27.6565337,48.6210726" id="Fill-3" fill="#666666"></path>
                        <path d="M21.8947572,54.0871499 C19.9452127,54.0871499 16.9111763,53.858866 15.61071,55.6875744 C13.2269068,59.5744937 18.427617,59.3462098 20.8118052,58.8888296 C19.5113389,58.8888296 18.427617,59.3462098 17.9945133,60.4892541 C20.1611871,61.6322984 31.2132257,60.9466343 30.9968663,57.516689 C30.7797369,55.0019103 23.1952235,53.6297697 21.244909,54.0871499" id="Fill-5" fill="#666666"></path>
                        <path d="M21.3181792,35.8387609 C18.9713025,34.249153 16.3317013,35.2607566 14.2783308,36.9947694 C11.1986658,33.6711487 5.47900874,29.3359244 1.37265846,33.6711487 C-3.32070411,38.7287821 5.1855026,42.3412123 9.43841054,41.907998 C8.70562223,48.4108345 15.7450799,49.8552675 20.7319486,50.289252 C25.2779718,50.7224664 29.0915976,52.8900785 33.9303454,51.5896653 C33.4906724,51.5896653 33.0509994,51.4452605 32.6113264,51.4452605 C34.3708,51.011661 35.9841068,51.1560658 37.7439712,50.7224664 C39.2103294,50.4336568 40.6770785,49.1332435 42.2899944,48.9884536 C44.9303773,48.6996441 48.5966637,49.4220531 50.9431496,49.4220531 C54.3163208,49.4220531 59.0092925,48.8440488 56.0761852,44.7980192 C55.7830698,44.3644197 54.9033331,44.3644197 54.6102177,43.9308203 C54.3163208,43.2087963 54.9033331,42.0524027 54.9033331,41.3299937 C54.7567754,39.5955959 54.1697631,38.1507778 52.5564564,37.4279837 C52.703014,33.6711487 48.5966637,31.6479413 45.2234926,33.0931445 C43.4636282,30.6367227 41.1171423,29.3359244 38.0370865,29.0467297 C35.5436521,28.7579201 33.1975571,29.9139286 30.9980197,29.625119 C27.9179639,29.1915196 25.7176448,28.0355111 23.5181074,31.0703222 C22.491813,32.3707354 22.6383706,35.1163519 21.4647369,35.8387609" id="Fill-7" fill="#999999"></path>
                        <path d="M15.5358904,35.6012322 C14.479332,35.8290001 13.6337849,36.5135196 13,37.4262124 C14.6907187,37.4262124 18.7063165,36.7416928 18.283543,39.4793658 C18.7063165,39.4793658 19.1287146,39.2511926 19.5518636,39.2511926 C20.8194333,40.3920586 21.6653559,39.9357122 22.087754,38.1103267 C23.9898595,39.707539 30.5413477,41.304346 30.9644967,38.3384999 C31.5982815,33.5480788 23.5667105,32.8635592 21.2425824,35.6012322 C19.5518636,34.0044251 16.381062,33.0917324 15.3245036,35.8290001" id="Fill-9" fill="#DDDDDD"></path>
                        <path d="M54.0742897,57.9705504 C51.9479608,60.8393629 57.9026639,61.7223157 59.8162843,60.3978865 C61.9433688,60.8393629 63.8573671,59.7360639 64.4951146,57.5290739 L63.8573671,57.3083357 C66.6218213,57.5290739 66.4091128,55.5428222 64.9205315,53.9980468 C63.8573671,52.8947478 61.3056213,52.8947478 59.8162843,53.115094 C58.1149946,53.3358322 50.4590017,54.6602614 53.861959,56.8668593 C53.4365421,57.7498121 53.861959,57.7498121 54.0742897,58.1908965" id="Fill-11" fill="#666666"></path>
                        <path d="M40.0527394,46.9902822 C40.9313338,46.3271167 42.4691668,45 43.5678978,45 C45.9847155,45 46.6439541,46.9902822 44.226746,48.3170061 C45.5448329,47.4326545 46.86331,47.2114684 48.4015333,47.2114684 C47.7422948,48.5381922 46.6439541,49.6441229 45.5448329,50.5284745 C47.5225486,51.1920328 50.5986049,51.1920328 51.9163014,49.2017506 C51.2574532,49.4229367 51.2574532,49.6441229 50.8175705,50.0864951 C51.9163014,50.7496606 53.2347786,50.9708467 54.3335095,50.9708467 C51.037707,53.4035012 56.9696832,54.0666667 58.7272624,53.4035012 C59.6062471,54.2882457 61.1436898,54.5094318 62.6823035,54.2882457 C60.9247243,55.6149696 62.0230649,58.0476241 64,58.2688102 C58.7272624,57.8264379 54.3335095,58.2688102 49.2801278,59.5955341 C47.3024121,60.0375134 38.2951601,60.9222579 40.2720952,56.9416934 C37.1968195,56.4993212 31.2640627,53.6246873 35.4392403,50.3072883 C35.4392403,50.0864951 35.2191038,50.0864951 35.2191038,49.6441229 C36.5368003,48.7593784 37.8552775,48.09582 39.3935008,47.8746339" id="Fill-13" fill="#666666"></path>
                        <g id="Group-17" transform="translate(17.000000, 30.000000)">
                            <mask id="mask-5" fill="white">
                                <use xlink:href="#path-4"></use>
                            </mask>
                            <g id="Clip-16"></g>
                            <path d="M10.4425798,0.192455236 C10.4425798,0.625046927 7.3729168,12.7460738 12.9272112,19.0953663 C12.9272112,19.0953663 13.0740533,24.4341245 14.6811374,26.4544238 C14.6811374,26.4544238 8.83471671,35.1120255 11.7583165,40.7395628 C11.7583165,40.7395628 12.9279902,41.7497124 12.6350849,45.7899265 C12.6350849,45.7899265 10.7350956,60.3638445 8.10401151,64.8374193 C8.10401151,64.8374193 5.91150639,66.2805452 0.0650857356,66.4247424 C0.0650857356,66.4247424 2.11113821,67.1461131 4.59615912,66.8577186 C4.59615912,66.8577186 7.08079052,67.0019159 9.8579377,65.9921507 C9.8579377,65.9921507 11.9043797,65.8471845 13.6583059,66.7131369 C13.6583059,66.7131369 14.9740426,68.589239 17.0200951,68.589239 C17.0200951,68.589239 19.5047265,68.5888545 21.2586527,69.5993886 C21.2586527,69.5993886 19.2126002,67.7232866 17.6047372,67.4348921 C17.6047372,67.4348921 16.5819057,65.9917662 20.2358212,66.136348 C20.2358212,66.136348 21.8436843,66.7135214 25.3515367,66.4247424 C25.3515367,66.4247424 28.274747,65.9921507 30.7593784,67.1461131 C30.7593784,67.1461131 31.6365363,68.4446572 37.3368938,68.30046 C37.3368938,68.30046 41.2833251,67.7232866 42.4529987,68.30046 C42.4529987,68.30046 39.4725316,66.1871054 35.1607477,66.6923725 L35.2908413,66.7131369 C35.2908413,66.7131369 32.9518835,66.2805452 31.0518942,64.5490249 C31.0518942,64.5490249 29.7361574,62.9617018 22.8661263,60.9414024 C22.8661263,60.9414024 18.6279582,57.3341645 20.3818844,52.8605897 C20.3818844,52.8605897 23.0129684,45.0689404 22.4279369,42.9044438 C22.4279369,42.9044438 21.8436843,39.5856004 19.5047265,37.2765221 C17.1661583,34.9678283 19.1759871,37.0957949 19.1759871,37.0957949 C19.1759871,37.0957949 18.4082792,31.576694 20.0527554,28.8711694 C20.0527554,28.8711694 22.2452606,21.0791356 22.0259711,19.0226909 C22.0259711,19.0226909 21.9332697,7.99948554 19.3021856,1.18145597 L14.5720769,0.300122502 C14.5720769,0.300122502 14.0236585,5.92804426 15.4488452,9.93211294 C15.4488452,9.93211294 16.874032,15.2351103 16.1063241,19.1311272 C16.1063241,19.1311272 14.9004268,15.2351103 12.7079217,13.9361816 C12.7079217,13.9361816 9.63903774,9.39108494 11.6122534,0.0840189194 L10.4425798,0.192455236 Z" id="Fill-15" fill="#444444" mask="url(#mask-5)"></path>
                        </g>
                        <path d="M27.8920958,40.3098253 C27.8920958,40.3098253 23.9237455,41.8093237 22.2007215,39 L21,39.4904046 C21,39.4904046 24.6614737,42.7680875 28,41.8317849 L27.8920958,40.3098253 Z" id="Fill-18" fill="#222222"></path>
                        <path d="M38,43.1978043 C38,43.1978043 43.2897142,41.8118338 43.8510245,28 L44.9347614,28.4312249 C44.9347614,28.4312249 46.1262945,41.6889002 38.3249286,46 L38,43.1978043 Z" id="Fill-20" fill="#222222"></path>
                        <g id="Group-24" transform="translate(39.000000, 43.000000)">
                            <mask id="mask-7" fill="white">
                                <use xlink:href="#path-6"></use>
                            </mask>
                            <g id="Clip-23"></g>
                            <path d="M36.6803972,12.0065047 C35.6500148,9.22643599 33.4421646,9.08021919 30.7930581,9.81208301 C31.9701337,7.76309826 33.2950792,3.52008171 29.1739419,4.10533882 C28.7319011,1.91052718 27.8489964,0.593796169 25.3465831,0.15475586 C23.5807736,-0.137677738 21.225838,0.447189458 21.5204011,2.64200109 C20.047978,2.64200109 16.957223,1.47148688 16.957223,3.81251531 C16.5155746,3.66629851 6.65379136,-1.74723226 8.56786295,2.78821789 C6.80087678,2.34956749 1.06101538,4.10533882 4.88758965,5.71489334 C3.12138793,5.86111014 1.65014151,8.49496208 3.85759949,9.08021919 C2.38556861,8.34874528 -0.557708687,9.37265279 0.177718409,11.5678543 C0.913929961,13.4694525 4.44633339,12.5917618 5.91797204,12.2989383 C6.94874666,12.0065047 7.97873682,11.4212476 9.00911921,11.128814 C10.9227986,10.6897737 10.0395016,10.8359905 11.5111402,11.5678543 C14.0139457,12.7379786 15.0439359,13.6160593 17.9879977,13.0304122 C19.01838,12.8841954 19.4596363,12.5917618 20.3425411,12.445545 C21.6674865,12.445545 22.6978689,13.1770189 24.1698998,12.7379786 C24.9053269,12.445545 25.7878394,11.4212476 26.3773577,11.2750308 C27.1127848,11.2750308 28.1435595,12.0065047 28.7319011,12.1527215 C30.3514097,12.5917618 36.2387487,12.0065047 36.2387487,11.7140711" id="Fill-22" fill="#999999" mask="url(#mask-7)"></path>
                        </g>
                        <path d="M68.9403963,39.373852 C68.229725,36.8050335 67.233648,34.5382395 64.6733361,33.7827757 C63.3929906,33.4803486 61.4019737,33.3293364 60.6909234,34.6896544 C59.1263093,33.9333852 55.9974603,31.8180061 54.7174938,34.0848002 C50.166165,29.2491877 46.041239,42.2450976 51.8729133,40.5827551 C50.4504336,43.3029885 55.5710575,43.4540007 56.8506449,43.0005614 C59.1263093,45.7207948 65.5268997,45.1163432 68.5139935,44.3604767 C70.0786076,43.9074401 72.7806748,42.8495492 71.7853559,41.1872067 C71.358574,40.4317429 68.9403963,39.5248642 68.3718593,39.373852" id="Fill-25" fill="#999999"></path>
                        <path d="M35.8760693,60.9148775 C35.8760693,60.9148775 35.5473488,59.6384185 41.4600389,59.9578168 C41.4600389,59.9578168 44.6352067,61.3404899 46.824991,60.276837 C46.824991,60.276837 47.7006714,59.1062141 49.3427179,59.3193982 C49.3427179,59.3193982 51.7519086,59.1062141 50.9851534,54.3193982 L52.6275889,54 C52.6275889,54 54.4886527,61.446704 49.8900667,61.1276837 C49.8900667,61.1276837 48.6860549,60.8086634 47.2626367,62.1917145 C47.2626367,62.1917145 45.510887,63.5747656 41.8976845,62.0851225 C41.8976845,62.0851225 38.1751678,61.446704 35,64 L35.8760693,60.9148775 Z" id="Fill-27" fill="#222222"></path>
                        <path d="M53,55.0650518 C53,55.0650518 59.5553391,54.9719915 59.8885343,52 L60.9998429,52 C60.9998429,52 61.1107763,56.1794661 53,55.9940054 L53,55.0650518 Z" id="Fill-29" fill="#222222"></path>
                        <path d="M64.831692,33.0979808 C61.8733623,32.8731037 58.9146282,35.7957061 63.0110881,35.3463515 C63.0110881,36.9200912 64.831692,37.8195993 65.7421961,38.718708 C67.335174,40.2928471 67.335174,40.5173247 69.383404,41.4168328 C75.0732461,43.6652035 73.2526422,38.718708 69.383404,38.2689539 C70.9763819,35.3463515 66.879922,32.4237491 64.604066,33.0979808" id="Fill-31" fill="#DDDDDD"></path>
                        <path d="M53.8344723,47.9350111 C49.4211982,46.7005951 44.566087,51.6386248 51.4073088,52.6676094 C48.3175856,52.8730408 49.8626432,55.1364415 51.8491458,55.7538323 C53.6141418,56.3708575 55.8205829,55.7538323 57.1449179,54.7248476 C60.0139185,57.6056391 68.8408588,54.3136193 63.9861397,52.0502186 C69.7237488,51.2270309 61.558192,47.7292142 59.792804,47.5234173 C57.8070855,47.1121889 54.2763094,46.4947982 53.3934193,47.7292142" id="Fill-33" fill="#999999"></path>
                        <path d="M58.5802475,42.4047372 C57.2655919,41.7525171 55.0752776,40.6648395 53.5415127,41.0999105 C50.0365428,42.1875881 53.1036834,44.144635 55.5131069,44.579706 C53.9801204,44.3621705 50.2556521,44.7972415 51.1317,46.9722104 C51.7890278,48.4945726 56.6086533,48.2770371 57.9229197,48.0595016 C52.8845741,48.9296436 60.7705618,50.4520059 61.647388,50.8870769 C62.3043266,51.1046125 68,55.2366282 65.8092965,51.3217616 C66.6853444,51.7568326 67.3430614,51.7568326 68,51.9743681 C68,50.2344704 63.399873,44.3621705 61.647388,43.7099503 L62.0852174,43.7099503 C61.4278896,42.1875881 59.8945139,41.7525171 58.3611382,42.6222727" id="Fill-35" fill="#DDDDDD"></path>
                        <path d="M60.3564035,43.9514705 C58.7183673,40.5194382 63.2232396,42.1208365 63.8376395,44.8663811 C65.4756757,43.0361535 68.342148,45.3240396 67.1137119,47.6119256 C70.5949479,47.3830964 68.9569118,51.7300393 64.6564757,49.2133239 C63.0180758,48.0691777 59.5375673,46.0101209 60.7660034,43.9514705" id="Fill-37" fill="#DDDDDD"></path>
                        <path d="M23.7804004,27.8325423 C22.003268,26.9923112 19.3377666,26.5720089 17.5598448,27.4126134 C18.4486084,21.3189778 2.23183058,21.9494311 0.454698111,26.78216 C1.56565256,26.9923112 2.23183058,27.4126134 3.34278503,26.78216 C-0.433670796,25.9415556 -0.877657922,30.3536091 1.34346167,32.0348179 C4.00935771,33.9258046 7.34143176,32.4551202 10.0073278,32.4551202 C12.6728292,32.4551202 20.6701226,33.7156535 21.7814717,30.9840624 C23.7804004,31.8246668 26.6680927,29.9336801 23.7804004,29.3032268" id="Fill-39" fill="#666666"></path>
                        <path d="M49.7807437,13.7801636 C49.3318144,10.9723098 45.5200975,8.59687633 42.8297081,9.67658396 C41.0359824,9.02891285 38.5690619,8.38085806 37,10.1086205 C38.7937257,10.1086205 40.5874514,9.46094938 41.9326461,10.3246387 C41.7083806,10.7566753 41.2594512,11.1887118 41.0359824,11.6203646 C42.1565132,12.2684194 43.2778408,12.0524012 44.3987699,12.700456 C45.9690268,13.3481271 46.4171595,15.0762732 47.0895577,15.507926 C49.5564782,17.0200539 51.3498056,14.6442366 48.6594162,13.7801636" id="Fill-41" fill="#49A040"></path>
                        <path d="M66.8687912,38.1705841 C63.0066725,37.75057 63.0066725,41.9499648 67.0960459,41.3203167 L66.8687912,41.3203167 C66.6419401,41.3203167 66.6419401,41.3203167 66.4146855,41.5299507 C67.5505552,42.3699789 71.1862265,43 72.549351,43 C74.5946432,43 78.2299108,41.7403308 74.1401338,40.4802885 C75.2760036,37.9609501 68.9136797,37.75057 67.0960459,38.1705841" id="Fill-43" fill="#DDDDDD"></path>
                        <path d="M21.6144792,47.5295068 C20.0694891,46.2299474 13.2285664,44.4966885 15.435303,48.3957514 C14.1118098,47.5295068 12.7875326,46.6632621 11.0222217,46.8795347 C10.3600831,49.4790382 24.7032832,54.6776605 26.2482733,51.8618844 C27.3518376,52.728129 28.6757228,53.1614438 30,52.9447864 C30,48.6124088 24.0415367,46.4466048 20.7316277,47.3128494" id="Fill-45" fill="#666666"></path>
                        <path d="M16.9053968,35.5238681 C15.6239344,35.072932 13.6109597,34.7719072 12.3298732,35.223244 C8.48661384,36.8774779 13.9767159,38.3818006 16.1735085,38.2310877 C15.4408684,38.3818006 15.6239344,38.6824246 15.0751122,38.8331374 C18.3695493,39.7354104 21.1144123,36.726765 16.7219548,35.8244921" id="Fill-47" fill="#DDDDDD"></path>
                        <path d="M56.5638287,48.169492 C55.2065055,48.169492 51.5863072,49.8867852 52.0388822,51.4132303 C52.4910553,52.7488275 57.4685769,51.4132303 58.826302,51.2223823 C61.3146608,50.8410253 65.6137217,49.8867852 60.8624877,48.169492 C59.5047626,47.788135 56.7897143,48.169492 55.2065055,48.169492" id="Fill-49" fill="#DDDDDD"></path>
                        <path d="M34,36.5523746 L34.2491478,36 C34.1256912,36.1604733 34.0452488,36.3461107 34,36.5523746" id="Fill-51" fill="#19120B"></path>
                        <path d="M35.0860879,70.0346855 C31.8725253,68.5220398 33.5866538,63.7663645 33.8005867,61.6047288 C34.2288333,58.5782853 35.7290288,55.7684277 35.9429617,52.9581861 C36.1572754,50.3645305 35.7290288,46.6894811 35.3004015,43.8796235 C35.107405,42.1261987 33.348739,38.793309 33.6308107,37.0444924 L33.3719595,37.8271205 C33.2619477,36.7184613 32.7575683,34.9274028 32.0898843,34 C32.1416545,35.8663261 32.3654848,38.1604478 33.0343108,40.0813044 C33.0343108,40.0813044 34.4275398,45.3772926 33.6772517,49.26816 C33.6772517,49.26816 32.9874892,46.9936231 31.705414,45.343115 C31.835601,47.5377762 31.7491903,49.8722198 31.4435174,51.8775603 C31.3571068,52.4009764 31.2166419,52.8879109 31.0487692,53.3537244 C31.3038139,54.5921815 31.6928521,55.8221902 32.2844034,56.5817772 C32.2844034,56.5817772 26.570642,65.2279359 29.4279034,70.848419 C29.4279034,70.848419 30.5710363,71.8568495 30.2847773,75.8917236 C30.2847773,75.8917236 28.4279,90.4467627 25.856517,94.9140407 C25.856517,94.9140407 23.7137614,96.3552591 18,96.4992658 C18,96.4992658 19.9996261,97.220067 22.4282602,96.9320537 C22.4282602,96.9320537 24.8565136,97.0760603 27.5706455,96.0672458 C27.5706455,96.0672458 29.0742669,95.9597209 30.5912115,96.4946575 C30.7008426,91.4778502 33.1625944,87.6587941 33.3719595,83.2203175 C33.5866538,80.6266619 33.1576458,77.6002183 33.1576458,75.4389667 C33.1576458,72.8449271 32.3007719,71.5480993 35.0860879,70.0346855" id="Fill-53" fill="#222222"></path>
                        <path d="M37.8590692,7.52987415 C37.4236211,3.20610093 32.4945966,-0.397171442 28.1443663,0.0352826924 C24.6646458,0.323713469 24.8099239,2.62962344 23.2149554,4.50346333 C21.6199869,6.23289581 19.3001732,6.52094252 21.0400335,9.54735334 C19.5899567,9.97980747 17.5599266,11.7092399 18.5749417,13.1506257 C15.0952211,13.2950331 13.6451444,19.6362855 15.2401129,22.0862189 C12.6305157,21.6537647 12.0501758,25.4014445 13.6451444,26.8424462 C11.6151142,26.1215613 4.65567309,26.9868536 4.07571967,29.7252177 C3.49537987,32.0307436 6.39553337,31.5982895 7.84561012,31.4542661 C8.5704553,31.3102428 9.73036215,30.7337653 10.4552073,30.7337653 C11.6151142,30.8777886 11.4706088,31.4542661 12.7754074,31.8867203 C14.8050512,32.8956519 16.9799731,32.0307436 19.0096169,32.4631978 C19.8801266,32.7512445 20.7498636,33.6161528 21.9097704,33.9045835 C23.0700637,34.0486069 24.3744759,34.0486069 25.5347691,33.7601761 C27.4191348,33.4721294 29.1589951,32.174767 31.1894116,32.174767 C33.2190554,32.174767 35.3939773,33.327722 37.4236211,32.8956519 C38.7288061,32.6072211 39.7438212,31.8867203 40.6135582,30.8777886 C42.7888665,32.3191744 45.8335254,34.480677 48.7332925,33.9045835 C50.6180445,33.6161528 50.1829829,32.3191744 51.3432761,31.7423129 C52.3579048,31.1658354 53.6630898,31.7423129 54.8229966,31.5982895 C56.9979186,31.3102428 62.5080557,29.868857 63.6675761,27.9954012 C65.1176529,25.6894912 61.4926542,23.2395579 59.1724541,23.5276046 C63.2325145,20.212763 59.6079022,17.9068531 55.9832899,17.3303756 C58.0129336,13.0062183 55.9832899,12.4301249 52.3579048,10.8447157 C54.5332131,5.65641831 49.458524,5.07994082 45.6886336,5.94484909 C44.383835,6.37730322 44.8188966,6.52094252 43.5137117,6.23289581 C42.4986966,6.08848839 42.2085267,5.07994082 40.9041144,5.07994082 C39.7438212,5.07994082 38.0039609,6.08848839 37.5692857,7.09742001" id="Fill-55" fill="#999999"></path>
                        <path d="M59.9363656,23.1753708 C64.0292124,19.9101056 60.37533,17.6386825 56.7214477,17.0708268 C58.7674816,12.811341 56.7214477,12.2438636 53.0667863,10.6821656 C55.259661,5.5714637 50.143992,5.00360794 46.3436584,5.85558075 C45.0283231,6.28156715 45.466898,6.4230582 44.1511732,6.13931947 C43.1279615,5.99707179 42.8354483,5.00360794 41.5205025,5.00360794 C40.467689,5.00360794 38.9443616,5.8090476 38.330123,6.69469074 C37.4440147,2.76547687 32.7926275,-0.366998651 28.6577149,0.0347753835 C25.1495049,0.318514108 25.2959562,2.58993718 23.6884972,4.43575217 C22.0806488,6.13931947 19.7421017,6.4230582 21.496012,9.40458472 C20.0342254,9.83057113 17.987802,11.5341384 19.0110137,12.9535887 C15.6726248,13.0890266 14.1898053,18.7509383 15.4400944,21.3779806 C15.4089346,18.4800624 19.0180246,15.8382657 21.5859861,15.630569 C21.3666986,13.2880221 23.3398964,11.3714616 25.7512795,11.5844548 C25.0938066,9.02891465 27.5051898,7.96394863 29.4783875,8.81592144 C30.7941124,6.89936094 34.3023224,9.02891465 35.1790828,10.732482 C37.15267,8.38993504 42.8529758,11.3714616 43.9490236,13.7140085 C42.1947239,10.5194887 54.6917727,12.6490425 51.1839522,16.4821635 C53.5957248,14.565603 55.78821,17.9731159 53.8146228,20.1022913 C56.445683,19.4633117 61.2692283,22.231845 57.1039349,23.5098042 C59.734216,22.8708246 61.7078033,23.9354123 63.899899,25 C63.9333958,24.9235797 63.9665032,24.8441329 64,24.7654427 C62.9986002,23.7159877 61.2583224,23.0149639 59.9363656,23.1753708" id="Fill-57" fill="#DDDDDD"></path>
                        <path d="M15,22.0546851 C15.0754147,22.0767801 15.151388,22.0972179 15.2268027,22.1220748 L15.4737161,22 C15.3072451,22.0049714 15.151388,22.0254092 15,22.0546851" id="Fill-59" fill="#79D86F"></path>
                        <path d="M29.1440635,6.5498415 C27.0028595,5.94651405 24.2191802,6.95229808 24.0054021,9.36668014 C23.7912437,13.1893028 30.0010777,12.9877171 32.5702182,11.9819331 C31.7139648,12.3843897 31.7139648,12.7868462 31.0714895,13.3901737 C33.4268519,14.7987717 39.2079886,15 41.9912876,15 C46.7020125,14.7987717 47.7724243,10.3724642 42.4192241,10.1712359 C41.5629707,8.1593104 37.923038,7.35439724 35.7814536,7.75685382 C35.3535171,5.54405747 29.358222,3.73336028 28.2874298,6.14774234" id="Fill-61" fill="#DDDDDD"></path>
                        <path d="M31.5237878,10.2092161 C26.7884716,10.2092161 26.7884716,15.7816709 31.7493171,15.99604 C40.5433612,16.2104091 33.7786811,7.63754823 28.5927068,10.6375736" id="Fill-63" fill="#DDDDDD"></path>
                        <path d="M19.5532594,20.0230822 C17.5802997,18.6744938 14.5110348,18 12.3188141,18 C9.24954929,18.2248313 6.61919596,21.3716705 11.0036374,21.3716705 C7.27658957,20.4723454 7.057718,24.5189091 10.1262039,25.8674975 C12.0991636,26.7664233 15.8262115,26.3171601 17.7987818,25.8674975 C17.5802997,25.8674975 17.1417776,26.3171601 16.9221272,26.3171601 C19.3339984,27.8905797 32.7058049,26.7664233 28.9795359,22.7206582 C31.3910177,22.7206582 31.3910177,21.1468393 30.2951021,19.5734196 C29.4176685,18.6744938 26.1299216,18.4496626 24.8143555,18.2248313 C22.6217453,18 20.210653,17.7751687 18.2376933,18.8989258" id="Fill-65" fill="#999999"></path>
                        <path d="M31,61.4865799 C31,61.4865799 20.5489757,56.0809046 22.7726231,47.2162577 L21.2161884,47 C21.2161884,47 18.7701367,56.7296778 30.3335773,63 L31,61.4865799 Z" id="Fill-67" fill="#222222"></path>
                        <path d="M22,53.2221803 C22,53.2221803 16.8533285,53.0100135 15.8237015,47.0704711 L15,47 C15,47 16.1667886,53.3634993 21.931602,54 L22,53.2221803 Z" id="Fill-69" fill="#222222"></path>
                        <path d="M19.8771376,45.1707339 C16.3764368,41.8617104 12,46.6183858 16.8137329,46.6183858 C14.188013,45.1707339 9.59348903,46.6183858 13.5318745,48.6866174 C15.2822249,49.7209169 17.2514177,48.6866174 18.7829257,49.1003372 C19.8771376,49.3071971 21.1894145,50.1342693 22.2832377,50.5479891 C29.504259,52.8230806 24.9093463,45.7909462 19.4390641,45.3772264" id="Fill-71" fill="#666666"></path>
                        <path d="M25.4157541,45.0701737 C21.2783475,44.4458309 20.6245026,48.1929974 24.9801154,48.1929974 C25.4157541,47.9847599 24.3266574,48.401235 24.109225,48.401235 C24.762683,53.1899592 31.9495601,45.6948864 24.9801154,45.6948864" id="Fill-73" fill="#999999"></path>
                        <path d="M43,38.7583735 C43,38.7583735 49.6413273,36.6893637 49.9433886,32 L51,32.5513439 C51,32.5513439 50.6979387,37.5171146 43.151634,40 L43,38.7583735 Z" id="Fill-75" fill="#222222"></path>
                        <path d="M49.5356259,34.2382403 C49.5356259,34.2382403 52.9644693,33.6670051 54.0353404,31.1905245 L55,31 C55,31 53.8217753,34.3333333 49,35 L49.5356259,34.2382403 Z" id="Fill-77" fill="#222222"></path>
                        <path d="M22.6347676,40.9966241 C22.6347676,40.9966241 19.3577731,42.4608388 16.7633949,39 L16,39.0007094 C16,39.0007094 19.0841445,43.7920398 24,41.2630062 L22.6347676,40.9966241 Z" id="Fill-79" fill="#222222"></path>
                        <path d="M25,58.1765362 C25,58.1765362 27.6649201,56.7649436 26.8538753,53 L27.7810188,53.2353351 C27.7810188,53.2353351 28.9395365,57.8237425 25.9271435,59 L25,58.1765362 Z" id="Fill-81" fill="#222222"></path>
                        <path d="M29.6897819,54 C29.6897819,54 28.6554766,55.6955514 27.3102181,55.9559778 L27,57 C27,57 28.7583926,56.6084337 30,54.5217794 L29.6897819,54 Z" id="Fill-83" fill="#222222"></path>
                        <path d="M29,91.1844085 C27.8197108,90.7455826 26.0488838,89.5752502 24.7211568,90.1606113 C23.0981608,90.7455826 21.7704338,93.085468 20,93.8165847 C21.6226028,94.6942366 30.4755581,92.2078161 28.7051243,90.891728" id="Fill-85" fill="#222222"></path>
                        <path d="M57,31.0325866 C55.0131303,30.5936036 53.0262606,29.2754838 50.8181919,28.6168141 C47.2860663,27.7380676 42.6502985,30.8132902 47.5072654,31.0325866 C43.5331338,30.5936036 41.5466563,29.0561874 37.7933316,28.1774409 C33.5987854,27.0793979 30.7290804,31.4719599 34.4816207,30.5936036 C32.7155579,28.6168141 25.8721136,27.518381 24.7680792,31.2522732 C28.0797901,31.0325866 24.9888861,29.2754838 23.443238,28.6168141 C21.0151467,27.9577542 19.6903055,29.2754838 17.4830211,29.7148571 C16.3793789,29.9345437 13.5092818,28.8365008 13.0672758,30.1542303 C12.4052474,31.9113331 16.8206005,32.3507064 17.9242427,32.3507064 C15.7165661,36.3042853 24.1060508,36.5239719 26.0929205,34.7664789 C28.9630176,38.5007613 31.6119157,36.5239719 35.1444335,36.0845986 C36.6896895,35.864912 38.0145307,36.5239719 39.5593945,36.5239719 C41.9878779,36.5239719 42.4294916,35.4255388 44.4163613,34.7664789 C44.8575829,34.5467922 45.0787819,33.4487493 45.7412026,33.2290627 C46.403231,33.0093761 47.0652594,34.3271056 47.7272878,34.1078092 C49.494135,34.1078092 50.3769703,34.3271056 51.9222263,33.6684359 C53.6882891,33.0093761 56.1167725,31.9113331 57,31.2522732" id="Fill-181" fill="#666666"></path>
                        <path d="M28.5417778,26.2643621 C28.1114073,29.5661008 30.0459743,31.7673903 33.4855014,31.3270542 C31.1209458,33.3081756 36.2804274,33.9686798 38,33.9686798 C35.6346807,33.9686798 28.5417778,34.4090159 27.6818006,31.9875583 C24.8876383,32.6480625 18.4385727,30.8871091 22.0930941,27.1446432 C19.9435329,23.8429045 27.251812,22.5222872 27.8967949,26.2643621" id="Fill-183" fill="#999999"></path>
                    </g>
                </g>
                <g id="Group-6" transform="translate(170.000000, 195.000000) rotate(180.000000) translate(-170.000000, -195.000000) translate(131.000000, 186.000000)" stroke="#F44336" stroke-width="5">
                    <path d="M59.635468,-0.5 C56.5979019,-0.5 54.135468,1.96243388 54.135468,5 L54.135468,13.3833333 C54.135468,16.4208995 56.5979019,18.8833333 59.635468,18.8833333 L60.8916256,18.8833333 C63.9291917,18.8833333 66.3916256,16.4208995 66.3916256,13.3833333 L66.3916256,5 C66.3916256,1.96243388 63.9291917,-0.5 60.8916256,-0.5 L59.635468,-0.5 Z" id="Rectangle-Copy-6" transform="translate(60.263547, 9.191667) rotate(90.000000) translate(-60.263547, -9.191667) "></path>
                    <path d="M27.3497537,0.608333333 C24.3121876,0.608333333 21.8497537,3.07076721 21.8497537,6.10833333 L21.8497537,12.275 C21.8497537,15.3125661 24.3121876,17.775 27.3497537,17.775 L28.6059113,17.775 C31.6434775,17.775 34.1059113,15.3125661 34.1059113,12.275 L34.1059113,6.10833333 C34.1059113,3.07076721 31.6434775,0.608333333 28.6059113,0.608333333 L27.3497537,0.608333333 Z" id="Rectangle-Copy-5" transform="translate(27.977833, 9.191667) rotate(90.000000) translate(-27.977833, -9.191667) "></path>
                    <path d="M11,-1.89166667 L11,20.275" id="Line-Copy-8" stroke-linecap="square" transform="translate(11.278325, 9.191667) rotate(90.000000) translate(-11.278325, -9.191667) "></path>
                    <path d="M44.3990148,-1.89166667 L44.3990148,20.275" id="Line-Copy-7" stroke-linecap="square" transform="translate(44.677340, 9.191667) rotate(90.000000) translate(-44.677340, -9.191667) "></path>
                    <path d="M70.9897373,2.83938939 L70.9897373,14.5800082" id="Line-Copy-6" stroke-linecap="square" transform="translate(70.989737, 8.913342) rotate(90.000000) translate(-70.989737, -8.913342) "></path>
                </g>
                <g id="Group-6-Copy" transform="translate(191.000000, 186.000000)" stroke="#F44336" stroke-width="5">
                    <path d="M59.635468,-0.5 C56.5979019,-0.5 54.135468,1.96243388 54.135468,5 L54.135468,13.3833333 C54.135468,16.4208995 56.5979019,18.8833333 59.635468,18.8833333 L60.8916256,18.8833333 C63.9291917,18.8833333 66.3916256,16.4208995 66.3916256,13.3833333 L66.3916256,5 C66.3916256,1.96243388 63.9291917,-0.5 60.8916256,-0.5 L59.635468,-0.5 Z" id="Rectangle-Copy-6" transform="translate(60.263547, 9.191667) rotate(90.000000) translate(-60.263547, -9.191667) "></path>
                    <path d="M27.3497537,0.608333333 C24.3121876,0.608333333 21.8497537,3.07076721 21.8497537,6.10833333 L21.8497537,12.275 C21.8497537,15.3125661 24.3121876,17.775 27.3497537,17.775 L28.6059113,17.775 C31.6434775,17.775 34.1059113,15.3125661 34.1059113,12.275 L34.1059113,6.10833333 C34.1059113,3.07076721 31.6434775,0.608333333 28.6059113,0.608333333 L27.3497537,0.608333333 Z" id="Rectangle-Copy-5" transform="translate(27.977833, 9.191667) rotate(90.000000) translate(-27.977833, -9.191667) "></path>
                    <path d="M11,-1.89166667 L11,20.275" id="Line-Copy-8" stroke-linecap="square" transform="translate(11.278325, 9.191667) rotate(90.000000) translate(-11.278325, -9.191667) "></path>
                    <path d="M44.3990148,-1.89166667 L44.3990148,20.275" id="Line-Copy-7" stroke-linecap="square" transform="translate(44.677340, 9.191667) rotate(90.000000) translate(-44.677340, -9.191667) "></path>
                    <path d="M71.9897373,1.49516526 L71.9897373,15.5800082" id="Line-Copy-6" stroke-linecap="square" transform="translate(71.989737, 8.913342) rotate(90.000000) translate(-71.989737, -8.913342) "></path>
                </g>
                <g id="Group-2-Copy-2" transform="translate(0.000000, 131.000000)">
                    <g id="network-copy">
                        <mask id="mask-9" fill="white">
                            <use xlink:href="#path-8"></use>
                        </mask>
                        <g id="Mask"></g>
                        <g mask="url(#mask-9)">
                            <g transform="translate(3.000000, 18.000000)">
                                <polygon id="Shape" fill="#FFFFFF" fill-rule="nonzero" points="41 61.0000952 41 54 22 54 22 61.0000952 31.5001256 69"></polygon>
                                <path d="M22,54 L22,61.9612321 C33.9672894,66.3644992 41,55.344274 41,55.344274 L41,54 L22,54 L22,54 Z" id="Shape" fill="#EEEEEE" fill-rule="nonzero"></path>
                                <path d="M60.9953961,73.8078241 C60.9881342,69.9681846 58.5096297,65.8740711 54.2451689,64.7117441 L45.7172155,62.9804675 L43.2953542,59.3971992 C42.9472646,58.9442213 42.2842483,58.8666696 41.8371541,59.2266803 L31.4864506,67.9893117 L31.4864506,67.9893117 L31.4864506,67.9893117 L21.1021,59.2646261 C20.6535534,58.9065127 19.9907792,58.9866732 19.644384,59.4405997 L17.2365625,63.032643 L8.715387,64.7952249 C4.45504131,65.9732045 1.99251308,70.0765673 2,73.9162068 L2.0048584,76.3879007 C2.00776318,77.8336352 3.37615717,79.003077 5.06141437,79 L28.4560377,78.9570677 L34.5589829,78.9459212 L57.9536061,78.902995 C59.6388633,78.8999119 61.0029002,77.7252526 61,76.2797552 L60.9953961,73.8078241 Z" id="Shape" fill="#EFF2FA" fill-rule="nonzero"></path>
                                <g id="Group" stroke-width="1" fill="none" fill-rule="evenodd" transform="translate(2.000000, 67.000000)">
                                    <path d="M7.69469388,4.98784615 L2.19844898,1.12915385 C0.885795918,2.79646154 0.179510204,4.86046154 0.183412355,6.85176923 L0.188326531,9.25684615 C0.191265306,10.6636154 1.57567347,11.8015385 3.28065306,11.7985444 L9.65608163,11.7872308 L9.65608163,9.06069231 C9.65583673,7.50692308 8.94269388,6.02630769 7.69469388,4.98784615 Z" id="Shape" fill="#E4EAF6" fill-rule="nonzero"></path>
                                    <path d="M59.8736373,9.15138462 L59.8689796,6.74630769 C59.8643265,4.36015385 58.8382041,1.87407692 56.9742857,0.0936923077 L51.8182041,4.98830769 C50.5699592,6.02676923 49.8570612,7.50738462 49.8570612,9.06115385 L49.8570612,11.7163846 L56.7915918,11.7041538 C58.4968163,11.7009231 59.8765714,10.5579231 59.8736373,9.15138462 Z" id="Shape" fill="#E4EAF6" fill-rule="nonzero"></path>
                                </g>
                                <path d="M17.2899986,40.2222063 C17.4576653,36.0758491 19.6348909,30.8634814 20.173279,29.7265178 C20.2421029,29.5816755 20.2804197,29.503627 20.2804197,29.503627 C21.9419545,29.2924801 23.5336893,29.164275 25.0504988,29.1035978 C25.4836986,29.0862265 25.9112851,29.0742379 26.3325262,29.0676319 C37.9144589,28.8809516 44.8124644,32.5702725 44.8124644,32.5702725 L46.9799278,37.5602386 C50.0467385,28.1525805 48.9650812,20.202888 47.983487,18.0439539 C40.5209795,19.094795 29.4027537,12.9282293 22.451788,18.0835898 L22.451788,18.0835898 C18.0351023,18.0916638 14.9912329,21.7751126 15,26.3418063 C15.0085609,30.750201 17.0669312,39.5603844 17.0669312,39.5603844 L17.2899986,41 C17.2897546,40.8524663 17.2841413,40.6322668 17.2899986,40.4815524 C17.2902427,40.4742124 17.2895105,40.2295463 17.2899986,40.2222063 Z" id="Shape" fill="#222222" fill-rule="nonzero"></path>
                                <path d="M46.7333889,43.180912 C46.7441661,43.1002909 46.7544535,43.0199105 46.7642509,42.93953 C47.0233945,40.821481 47.2732304,38.1405282 46.3223843,36.1779455 C45.7303712,34.9561145 45.2206569,33.6919273 44.6712629,32.4520468 C44.6712629,32.4520468 37.7483588,28.8228934 26.1246207,29.0067576 C25.7021041,29.0134961 25.2729742,29.0250478 24.8379658,29.0421347 C23.3154364,29.102059 21.7182011,29.2279242 20.0506689,29.4356138 C20.0506689,29.4356138 20.0119688,29.5123844 19.9431415,29.6548551 C15.933765,37.9581078 15.2976632,48.2764071 22.6489623,55.1316083 C24.3346199,56.7038404 26.3825395,57.9494967 28.66119,58.5677524 C28.9440924,58.6447636 29.2299341,58.7116671 29.5184701,58.7687035 C29.5743157,58.7797739 29.6304064,58.7906036 29.686497,58.8007113 C30.407347,58.9323523 31.1433832,59.0014218 31.8916663,59 C40.565871,58.9845756 45.7482516,50.5037157 46.7333889,43.180912 Z" id="Shape" fill="#FFFFFF" fill-rule="nonzero"></path>
                                <path d="M22.1089752,43.0528866 C21.85884,31.6395796 23.8399301,32.2137946 23.8399301,32.2137946 C28.7268301,31.1337119 36.8181908,31.8961233 45,33.5087869 C44.8488462,33.1554978 44.6974486,32.80269 44.542394,32.4520482 C44.542394,32.4520482 37.6517309,28.8228933 26.0821261,29.0067576 C25.6615772,29.0134961 25.2344458,29.0250478 24.8014633,29.0421347 C23.2860245,29.1020591 21.6962278,29.2279243 20.0364615,29.435614 C20.0364615,29.435614 19.9979417,29.5123846 19.9294349,29.6548554 C15.9387306,37.9581115 15.3055912,48.2764149 22.6226543,55.131619 C24.3004616,56.7038517 26.3388438,57.9495085 28.6068823,58.5677644 C28.8884672,58.6447757 29.1729776,58.7116792 29.4601699,58.7687156 C29.5157555,58.779786 29.5715848,58.7906157 29.6274142,58.8007234 C30.3429568,58.9321239 31.0738586,59.0009527 31.8167064,59 C29.1320198,58.0977552 22.2945043,51.5154597 22.1089752,43.0528866 Z" id="Shape" fill="#EEEEEE" fill-rule="nonzero"></path>
                                <path d="M47.9754863,18.0856441 C40.4546944,19.1579191 29.2496319,12.8655748 22.2443772,18.1260885 C22.2443772,18.1260885 16.7559725,24.5300292 20.0560499,29.7790587 C21.7305618,29.5636051 23.3347285,29.432785 24.8633847,29.3708702 C24.8724853,29.3703709 24.8815859,29.3703709 24.8906865,29.3698716 C25.3179232,29.3528949 25.7397487,29.3409114 26.1551792,29.3341707 C37.8275702,29.1436827 44.7794511,32.9082542 44.7794511,32.9082542 L46.963843,38 C50.0550983,28.4004551 48.964747,20.2883641 47.9754863,18.0856441 Z" id="Shape" fill="#222222" fill-rule="nonzero"></path>
                                <path d="M29.0077461,70.992704 L32,67.9851699 L21.7977509,59.2249826 C21.3570701,58.8654121 20.7059183,58.9458987 20.3655976,59.4016723 L18,63.008332 L26.0152545,74 L29.0077461,70.992704 Z" id="Shape" fill="#E4EAF6" fill-rule="nonzero"></path>
                                <path d="M38.015411,74 L46,62.9917848 L43.6174114,59.3983285 C43.2749664,58.9440627 42.6227015,58.8662905 42.1828573,59.2273248 L32,68.0148701 L35.0077055,71.0073161 L38.015411,74 Z" id="SVGCleanerId_0" fill="#E4EAF6" fill-rule="nonzero"></path>
                                <path d="M38.015411,74 L46,62.9917848 L43.6174114,59.3983285 C43.2749664,58.9440627 42.6227015,58.8662905 42.1828573,59.2273248 L32,68.0148701 L35.0077055,71.0073161 L38.015411,74 Z" id="SVGCleanerId_0_1_" fill="#E4EAF6" fill-rule="nonzero"></path>
                                <polygon id="Shape" fill="#FFFFFF" fill-rule="nonzero" points="103 61.0000314 103 54 84 54 84 61.0000314 93.5001242 69"></polygon>
                                <path d="M84,60.9613013 C95.9672309,65.3643515 103,54.3444254 103,54.3444254 L103,53.0002536 L84,53 L84,60.9613013 Z" id="Shape" fill="#EEEEEE" fill-rule="nonzero"></path>
                                <path d="M123.995371,74.5478134 C123.987827,70.5163461 121.467558,66.2172796 117.130582,64.9972043 L108.458335,63.1794006 L105.995499,59.4170096 C105.641406,58.9413871 104.96729,58.8601472 104.512444,59.2377895 L93.9862556,68.4388209 L93.9862556,68.4388209 L93.9862556,68.4388209 L83.4259964,59.2781633 C82.9696904,58.901998 82.2958177,58.9861921 81.9436712,59.4630455 L79.4949507,63.2345452 L70.8295173,65.0850911 C66.4969223,66.3219067 63.992715,70.6303281 64,74.6620416 L64.0048832,77.2572863 C64.0078035,78.7754873 65.3993543,80.0031941 67.1131179,80 L90.9043041,79.9549426 L97.1107957,79.9431258 L120.901982,79.8980746 C122.615989,79.8948743 124.002916,78.6615053 124,77.1435505 L123.995371,74.5478134 Z" id="Shape" fill="#EFF2FA" fill-rule="nonzero"></path>
                                <g id="Group" stroke-width="1" fill="none" fill-rule="evenodd" transform="translate(63.000000, 67.000000)">
                                    <path d="M7.59376518,5.46343396 L2.07910931,1.31496226 C0.762024291,3.10749057 0.0534412955,5.32656604 0.0573120314,7.46739623 L0.0621862348,10.0531698 C0.0651012146,11.5658302 1.45408907,12.7890566 3.16469636,12.7858741 L9.56137652,12.7738491 L9.56137652,9.8424717 C9.56137652,8.17160377 8.84623482,6.57996226 7.59376518,5.46343396 Z" id="Shape" fill="#E4EAF6" fill-rule="nonzero"></path>
                                    <path d="M59.9470491,9.93960377 L59.9421862,7.35383019 C59.9373279,4.78841509 58.9080972,2.11532075 57.0378947,0.201132075 L51.8645344,5.46343396 C50.6120648,6.57996226 49.8966802,8.17160377 49.8966802,9.84222642 L49.8966802,12.6970755 L56.8544939,12.6838302 C58.5653441,12.6808868 59.9499595,11.4520189 59.9470491,9.93960377 Z" id="Shape" fill="#E4EAF6" fill-rule="nonzero"></path>
                                </g>
                                <path d="M78.2901907,40.2223568 C78.4578761,36.0760554 80.6353734,30.8635484 81.1734143,29.7267139 C81.2421773,29.581828 81.2805399,29.5037009 81.2805399,29.5037009 C82.9421935,29.2925399 84.5338776,29.1643437 86.0507669,29.1036319 C86.4840949,29.0862165 86.9116323,29.0743644 87.3326553,29.0675918 C98.914528,28.8808607 105.81255,32.5704933 105.81255,32.5704933 L107.979914,37.5607129 C111.046747,28.1528029 109.965116,20.2031854 108.983372,18.0441674 C101.52101,19.0948927 90.4026248,12.9281704 83.451764,18.0835938 L83.451764,18.0835938 C79.0350034,18.0915758 75.9913327,21.7751614 76,26.3416078 C76.0084631,30.7498649 78.0667711,39.5603322 78.0667711,39.5603322 L78.2899495,41 C78.2897082,40.8524534 78.2841589,40.6323429 78.2899495,40.48141 C78.290432,40.4743955 78.2899495,40.2296132 78.2901907,40.2223568 Z" id="Shape" fill="#785550" fill-rule="nonzero"></path>
                                <path d="M108.733278,43.6542028 C108.744175,43.5708611 108.754345,43.4877653 108.764273,43.4046695 C109.023367,41.2159062 109.27326,38.4457181 108.32236,36.417492 C107.730318,35.1548291 107.220605,33.8486515 106.67118,32.5673042 C106.67118,32.5673042 99.7482815,28.8171756 88.124641,29.0069684 C87.7020996,29.0138521 87.2730204,29.0258985 86.8381297,29.0435994 C85.3155279,29.1055525 83.7181037,29.2356048 82.0506998,29.450228 C82.0506998,29.450228 82.0121989,29.5296361 81.9431878,29.6768976 C77.9337668,38.2569087 77.2976544,48.919232 84.6489054,56.0025351 C86.3347122,57.6270827 88.3827665,58.9145761 90.661342,59.5532829 C90.9441662,59.6326911 91.2298962,59.7020195 91.5185319,59.7607766 C91.5744672,59.7720855 91.6304024,59.7833944 91.6865799,59.7939658 C92.4074427,59.9299184 93.1435606,60.0012136 93.8915435,60 C102.566112,59.9844961 107.748236,51.2210842 108.733278,43.6542028 Z" id="Shape" fill="#FFFFFF" fill-rule="nonzero"></path>
                                <path d="M83.2917052,43.5218098 C83.0328451,31.7280095 85.0845052,32.3214856 85.0845052,32.3214856 C90.1458827,31.2053376 98.526012,31.9930332 107,33.659634 C106.843486,33.2945503 106.686472,32.9299584 106.525964,32.5673332 C106.525964,32.5673332 99.389212,28.8171741 87.4065082,29.0069685 C86.9709142,29.0138522 86.5285804,29.0258987 86.0802556,29.0435998 C84.5106195,29.1055534 82.8638496,29.2356067 81.1449383,29.4502317 C81.1449383,29.4502317 81.1052481,29.5296404 81.0341052,29.6769031 C76.90083,38.2569838 76.2450676,48.9193935 83.8234045,56.0027541 C85.5612872,57.6273149 87.6723579,58.9148187 90.0215699,59.5535307 C90.3131308,59.6329395 90.6076872,59.7022685 90.9052391,59.7610261 C90.9629022,59.7723351 91.0205654,59.7836441 91.0784782,59.7942155 C91.819612,59.9299234 92.5764721,60.0009733 93.3458135,60 C90.5655007,59.0679817 83.4836661,52.2666083 83.2917052,43.5218098 Z" id="Shape" fill="#EEEEEE" fill-rule="nonzero"></path>
                                <path d="M108.97555,17.0858162 C101.454868,18.1579494 90.2495895,11.8655836 83.2444059,17.1260458 C83.2444059,17.1260458 77.7560516,23.5299687 81.05597,28.778831 C82.7306098,28.5633678 84.3347334,28.4325596 85.8634775,28.3706108 C85.8727176,28.3701172 85.8817145,28.3701172 85.8909545,28.3696236 C86.3181859,28.3525939 86.7400677,28.3405003 87.1553842,28.3338365 C98.8277723,28.1433008 105.779704,31.9081075 105.779704,31.9081075 L107.964006,37 C111.054807,27.4004092 109.964966,19.2888229 108.97555,17.0858162 Z" id="Shape" fill="#222222" fill-rule="nonzero"></path>
                                <path d="M90.0077251,70.9923757 L93,67.9849868 L82.7977698,59.225069 C82.3569341,58.8653594 81.705908,58.9458703 81.3657005,59.4018635 L79,63.008376 L87.0152151,74 L90.0077251,70.9923757 Z" id="Shape" fill="#E4EAF6" fill-rule="nonzero"></path>
                                <path d="M99.0153362,74 L107,62.9915201 L104.617502,59.3982869 C104.274959,58.9440186 103.622833,58.8664263 103.182824,59.2271133 L93,68.0150399 L96.0077858,71.00752 L99.0153362,74 Z" id="SVGCleanerId_1" fill="#E4EAF6" fill-rule="nonzero"></path>
                                <path d="M99.0153362,74 L107,62.9915201 L104.617502,59.3982869 C104.274959,58.9440186 103.622833,58.8664263 103.182824,59.2271133 L93,68.0150399 L96.0077858,71.00752 L99.0153362,74 Z" id="SVGCleanerId_1_1_" fill="#E4EAF6" fill-rule="nonzero"></path>
                                <g id="Group" stroke-width="1" fill="none" fill-rule="evenodd" transform="translate(90.000000, 68.000000)">
                                    <polyline id="Shape" fill="#515262" fill-rule="nonzero" points="5.55255556 5.73755319 1.42022222 5.6132766 0.204555556 10.9868936 6.81644444 10.9756596 5.55255556 5.73755319"></polyline>
                                    <path d="M0.190037037,4.02342553 C0.19237037,5.11780851 1.18585185,6.01138298 2.39814815,6.00928031 L4.60211111,6.00553191 C5.81440741,6.00342553 6.804,5.10657447 6.80192918,4.01219149 L6.79985185,3.01751064 L3.48755556,0.0388510638 L0.187962963,3.02897872 L0.190037037,4.02342553 Z" id="Shape" fill="#FFFFFF" fill-rule="nonzero"></path>
                                </g>
                                <polygon id="Shape" fill="#FFFFFF" fill-rule="nonzero" points="76 66.2664092 76 56 49 56 49 66.2664092 62.5 78"></polygon>
                                <path d="M49,56.0002365 L49,66.6150266 C66.0061536,72.4858755 76,57.7925498 76,57.7925498 L76,56 L49,56 L49,56.0002365 Z" id="Shape" fill="#EEEEEE" fill-rule="nonzero"></path>
                                <path d="M105.993893,85.2108277 C105.983157,79.4515558 102.370553,73.3099726 96.1543377,71.566938 L83.7238587,68.9702223 L80.1937316,63.5957219 C79.6864298,62.9164673 78.7198967,62.800101 78.0681397,63.3396176 L62.9803658,76.4835996 L62.9803658,76.4835996 L62.9803658,76.4835996 L47.8437894,63.3966937 C47.1900802,62.8596373 46.2240352,62.9796939 45.7191736,63.6609166 L42.2090554,69.0489479 L29.7888249,71.692899 C23.5787097,73.4597973 19.9892875,79.6149115 20,85.3741833 L20.0068564,89.0816685 C20.0110046,91.2503136 22.0055618,93.004665 24.4620345,93 L58.5627655,92.9352881 L67.4587251,92.9185589 L101.559456,92.8541022 C104.015929,92.8494279 106.004142,91.0876959 106,88.9190508 L105.993893,85.2108277 Z" id="Shape" fill="#444444" fill-rule="nonzero"></path>
                                <g id="Group" stroke-width="1" fill="none" fill-rule="evenodd" transform="translate(19.000000, 75.000000)" opacity="0.219999999">
                                    <path d="M10.9088442,7.5576 L3.00269122,1.75488 C1.11434561,4.26216 0.0984249292,7.36608 0.104005273,10.3608 L0.110849858,13.9776 C0.114991501,16.0932 2.10639093,17.80464 4.5589745,17.8000891 L13.7297905,17.78304 L13.7297905,13.6824 C13.7302776,11.34576 12.7046119,9.11928 10.9088442,7.5576 Z" id="Shape" fill="#222222" fill-rule="nonzero"></path>
                                    <path d="M85.9678478,13.81848 L85.9610198,10.20168 C85.9541983,6.6132 84.4783116,2.87448 81.7972068,0.19704 L74.380255,7.55784 C72.5847309,9.11928 71.5590652,11.346 71.5590652,13.68288 L71.5590652,17.676 L81.5345779,17.65752 C83.9871615,17.65296 85.971983,15.93408 85.9678478,13.81848 Z" id="Shape" fill="#222222" fill-rule="nonzero"></path>
                                </g>
                                <path d="M41.3775754,36.8793094 C41.6190882,30.9074471 44.7514805,23.3998509 45.5257279,21.7622583 C45.6244184,21.5533867 45.6797045,21.4414649 45.6797045,21.4414649 C48.070342,21.1376071 50.3603491,20.9527888 52.542694,20.8651658 C53.1663596,20.8401307 53.7812959,20.8229497 54.3872603,20.8133775 C71.0506754,20.5443725 80.9750097,25.8584488 80.9750097,25.8584488 L84.0935805,33.0457425 C88.5060392,19.495842 86.9497849,8.04594776 85.5373228,4.93619086 C74.8009137,6.44983497 58.9304172,-2.42217629 48.9294584,5.00319668 L48.0795563,5.00466933 C41.7250532,5.01620513 37.9871814,10.3965509 38,16.9741654 C38.0121572,23.3235183 41.0565282,35.9265015 41.0565282,35.9265015 L41.3775754,38 C41.3770904,37.7872013 41.3690885,37.470335 41.3775754,37.2531184 C41.3780603,37.2423189 41.3770904,36.8901089 41.3775754,36.8793094 Z" id="Shape" fill="#222222" fill-rule="nonzero"></path>
                                <path d="M83.6177597,40.3263916 C83.633276,40.2108302 83.6480649,40.0955091 83.6621265,39.9801879 C84.0335466,36.9443585 84.3916324,33.1017615 83.0286273,30.288646 C82.1800827,28.5374462 81.449607,26.7254625 80.6619152,24.9480752 C80.6619152,24.9480752 70.7392771,19.7461301 54.07871,20.009687 C53.4728492,20.0192971 52.858018,20.0358745 52.2344589,20.0603802 C50.0522447,20.1463906 47.7628713,20.3268202 45.3726424,20.6244929 C45.3726424,20.6244929 45.3173658,20.7342882 45.2184497,20.9389833 C39.4718633,32.8403668 38.559799,47.6300648 49.0970259,57.4556676 C51.5134385,59.7087547 54.448433,61.4947911 57.7146024,62.3808419 C58.1202067,62.4911178 58.5296901,62.5872188 58.943295,62.6684241 C59.023543,62.6842807 59.1037911,62.6998971 59.1842816,62.7145525 C60.2173241,62.9033909 61.2726711,63.0018944 62.3449891,63 C74.778107,62.9783497 82.2060239,50.8225388 83.6177597,40.3263916 Z" id="Shape" fill="#FFFFFF" fill-rule="nonzero"></path>
                                <path d="M48.2985916,40.1428292 C47.9414292,23.7836151 50.7713102,24.6067293 50.7713102,24.6067293 C57.7526935,23.0587653 69.3115284,24.1512055 81,26.4629407 C80.7840189,25.9567231 80.5675569,25.4509859 80.346525,24.9481319 C80.346525,24.9481319 70.5027914,19.7461272 53.9747085,20.0096871 C53.3736655,20.0192973 52.7637234,20.0358749 52.1451229,20.0603809 C49.9802615,20.1463923 47.7090932,20.3268239 45.3378713,20.6245 C45.3378713,20.6245 45.2830343,20.7342966 45.1849048,20.938994 C39.484015,32.8402736 38.5792034,47.6303813 49.0326386,57.4558563 C51.4295954,59.7089692 54.3414915,61.495026 57.5816884,62.3810871 C57.9840674,62.4913642 58.3902946,62.5874663 58.8006105,62.6686725 C58.8802204,62.6845293 58.9598304,62.7001459 59.0396809,62.7148015 C60.0618629,62.9031615 61.1061722,63.0014259 62.1673175,63 C58.3316093,61.7074116 48.5636374,52.2728317 48.2985916,40.1428292 Z" id="Shape" fill="#EEEEEE" fill-rule="nonzero"></path>
                                <path d="M85.5310461,4.93188789 C74.7472107,6.44331376 58.8066089,-2.41569561 48.7614725,4.99879551 C48.7614725,4.99879551 40.7655984,14.0151481 45.4971198,21.4129735 C47.8983175,21.109561 50.1984404,20.9250136 52.3904254,20.837519 C52.4035773,20.8370289 52.4164856,20.8367838 52.4296375,20.8360485 C53.0424191,20.8120304 53.6471634,20.7951197 54.2426527,20.7855615 C70.9796757,20.5169507 80.9478491,25.8232392 80.9478491,25.8232392 L84.0801956,33 C88.5128763,19.4702019 86.9495039,8.03684238 85.5310461,4.93188789 Z" id="Shape" fill="#222222" fill-rule="nonzero"></path>
                                <path d="M57.5115596,81.5889864 L62,77.1779728 L46.6967718,64.3299266 C46.0358653,63.8026724 45.0591842,63.9205378 44.5487642,64.5893269 L41,69.8790169 L53.0226258,86 L57.5115596,81.5889864 Z" id="Shape" fill="#444444" fill-rule="nonzero"></path>
                                <path d="M72.0232561,86 L84,69.8542841 L80.4262204,64.5841533 C79.9126456,63.9180895 78.9341607,63.8039829 78.2743442,64.3330224 L63,77.2217561 L67.5115045,81.610878 L72.0232561,86 Z" id="Shape" fill="#444444" fill-rule="nonzero"></path>
                                <path d="M72.0232561,86 L84,69.8542841 L80.4262204,64.5841533 C79.9126456,63.9180895 78.9341607,63.8039829 78.2743442,64.3330224 L63,77.2217561 L67.5115045,81.610878 L72.0232561,86 Z" id="Shape" fill="#444444" fill-rule="nonzero"></path>
                                <polygon id="Shape" fill="#000000" fill-rule="nonzero" points="59.6547893 85 58 93 67 92.9834252 65.2797893 85.1852473"></polygon>
                                <path d="M58.0028072,83.0064684 C58.0058484,84.6559956 59.3579997,86.0032692 61.007484,86 L64.0065462,85.9943794 C65.6560305,85.9913382 67.0032691,84.6391517 67,82.9896246 L66.9971868,81.4902884 L62.4901717,77 L58,81.5071323 L58.0028072,83.0064684 Z" id="Shape" fill="#000000" fill-rule="nonzero"></path>
                                <path d="M39.0731368,38.8790144 C39.0858679,45.6265764 41.5752993,52.4553026 45.9021799,57.614331 C50.4393694,63.0234131 56.3483414,66 62.5462127,66 C62.5579646,66 62.5704509,66 62.5822028,66 C68.791826,65.9883357 74.6971255,62.9896352 79.2100768,57.5564955 C83.5036605,52.3877468 85.9588157,45.5524594 85.9458397,38.8034394 L85.9345775,32.8160017 C89.139647,19.0056982 87.9221075,7.35547969 86.8659109,4.14487755 C86.5917013,3.31087918 85.7700518,2.80664065 84.9251435,2.89582404 C84.7831421,2.88270169 84.637713,2.88391672 84.4903254,2.90505829 C80.8208134,3.43262544 76.3313657,2.54638067 71.578481,1.6083755 C63.9052641,0.0939588731 55.2341201,-1.61413395 48.6435414,2.96702495 C48.5744993,2.95924874 48.5049676,2.95438861 48.4339669,2.95438861 C48.4327427,2.95438861 48.4315186,2.95438861 48.4302944,2.95438861 C44.6888024,2.9614358 41.503809,4.39080015 39.2195451,7.08841552 C37.1365315,9.54837052 35.9931754,12.9319933 36,16.6159721 C36.0115377,22.6993973 38.6500705,33.9629925 39.0665264,35.7041342 L39.0731368,38.8790144 Z M62.5753475,62.347855 C62.5657991,62.347855 62.5562508,62.347855 62.5467024,62.347855 C57.4610937,62.347855 52.5554351,59.8375977 48.7302112,55.2773373 C44.9424463,50.7617902 42.7637041,44.7823718 42.7526868,38.8722102 L42.7482603,36.5366746 C42.7482603,36.5366746 42.7482603,36.5364316 42.7482603,36.5361885 C42.7389763,31.6468974 46.0556883,24.9948369 47.2656381,22.7309882 C65.0674721,20.6630027 76.9657203,25.5617711 79.5858909,26.7794768 L82.2555172,32.9907234 L82.2665813,38.8104866 C82.2905279,51.3292104 73.0888373,62.3281715 62.5753475,62.347855 Z M42.0365591,9.43755954 C43.6010227,7.58998098 45.8145307,6.61090771 48.4373945,6.60604758 C48.5786614,6.60580457 48.7155214,6.5883081 48.8474847,6.5581753 C49.3613829,6.67457542 49.9215539,6.57251268 50.3735101,6.2303595 C55.7012557,2.19790932 63.4077695,3.71888712 70.8608843,5.19004859 C74.8117059,5.96985651 78.5913914,6.71588653 82.0993156,6.71588653 C82.6386761,6.71588653 83.1711814,6.696446 83.6975659,6.65877999 C84.3150271,9.97508996 84.8372495,17.3267662 83.4282529,26.4120509 L82.7030664,24.7248567 C82.5407441,24.3467385 82.254293,24.0342321 81.8907205,23.8376399 C81.3281011,23.5336387 67.8842412,16.4361473 46.0160258,19.2037486 C45.4122751,19.2338814 44.8361901,19.55708 44.51228,20.115752 C44.3830097,20.338832 42.5675953,23.5010758 41.0680116,27.4691293 C40.3587391,23.7542886 39.6852118,19.4766449 39.6797997,16.6086819 C39.6744392,13.7854322 40.511513,11.2389669 42.0365591,9.43755954 Z" id="Shape" fill="#000000" fill-rule="nonzero"></path>
                                <path d="M95.7699861,70.4564789 C95.7305543,70.4458778 95.6903876,70.4362406 95.650221,70.4280489 L83.9161748,68.036315 L80.7917492,63.3947564 C80.771421,63.364399 80.7498682,63.3345234 80.7275806,63.3051297 C80.1018138,62.4878877 79.1071997,62 78.0670307,62 C77.2994561,62 76.5492707,62.2643026 75.9555882,62.7439986 C75.9438321,62.7536359 75.9318311,62.7632732 75.9203199,62.7731514 L61.9756391,74.6265332 L47.9854035,62.8247109 C47.9738923,62.8150736 47.9621362,62.8054363 47.9501352,62.795799 C47.3576773,62.3209217 46.6114106,62.0595103 45.8484894,62.0595103 C44.8031772,62.0595103 43.805869,62.5510119 43.180592,63.3740363 C43.1585493,63.4031891 43.1372414,63.4330647 43.1169132,63.463663 L40.0101218,68.1167864 L28.2851376,70.551888 C28.2449709,70.5600797 28.2048043,70.569717 28.1653724,70.5807999 C20.8197762,72.619809 16.9882709,79.7427282 17,85.7250744 L17.0068847,89.3559225 C17.0098237,90.9125854 17.7000041,92.3608287 18.9503131,93.4336998 C20.1278814,94.4441694 21.6752766,95 23.309128,95 C23.3135365,95 23.31819,95 23.3225985,95 L57.5408995,94.9368757 C57.5433487,94.9368757 57.5460428,94.9371166 57.548492,94.9371166 C57.5516759,94.9371166 57.5546149,94.9368757 57.557554,94.9368757 L66.4662202,94.9204923 C66.4686693,94.9204923 66.4708736,94.9207332 66.4733228,94.9207332 C66.4755271,94.9207332 66.4777313,94.9204923 66.4799356,94.9204923 L100.706074,94.8571271 C104.182447,94.850622 107.006113,92.3080646 107,89.1894383 L106.993132,85.5585903 C106.981866,79.5769668 103.123175,72.4685036 95.7699861,70.4564789 Z M77.9938001,65.7966094 L80.5617707,69.6112888 L70.698902,83.00495 L64.684193,77.1100622 L77.9938001,65.7966094 Z M60.6121777,87.218854 C60.6359348,87.2193358 60.659447,87.2229498 60.6836939,87.2229498 C60.6861431,87.2229498 60.6888372,87.2229498 60.6912864,87.2229498 L63.3084857,87.2181312 C63.3349369,87.2181312 63.3606533,87.2142763 63.3873495,87.2135535 L64.2271751,91.3043411 L59.7880269,91.3125328 L60.6121777,87.218854 Z M64.0765529,82.4170755 C64.0777748,83.0808437 63.6611684,83.5964385 63.301628,83.5971613 L60.6844287,83.60198 C60.6841838,83.60198 60.6839389,83.60198 60.6836939,83.60198 C60.4786971,83.60198 60.3111729,83.4465787 60.229615,83.3535789 C60.0238834,83.1196337 59.9055878,82.781124 59.904853,82.4247853 L59.9033835,81.6316365 L61.9851909,79.5760031 L64.0748357,81.6239267 L64.0765529,82.4170755 Z M45.9239243,65.8558787 L59.276882,77.1201813 L53.2847055,83.036994 L43.3706488,69.6801954 L45.9239243,65.8558787 Z M23.3157408,91.3797529 C23.3135365,91.3797529 23.3113323,91.3797529 23.309128,91.3797529 C22.5653105,91.3797529 21.8770894,91.1405072 21.3701081,90.7056246 C21.1158827,90.48734 20.6894795,90.0213772 20.68801,89.3496582 L20.6811322,85.7188102 C20.6723352,81.1167645 23.5643331,75.6531452 29.1085536,74.0820264 L40.3478644,71.7476345 L51.582032,86.8829945 C51.8992014,87.3104082 52.3909978,87.5802523 52.9278592,87.6204879 C52.9746386,87.6241019 53.0219079,87.6257884 53.0684424,87.6257884 C53.5558303,87.6257884 54.0253391,87.4352111 54.3721437,87.0930874 L56.7733249,84.7220737 C56.9011723,84.973366 57.049348,85.2133344 57.2190766,85.438847 C57.2180969,85.4436656 57.2166274,85.4480024 57.2156477,85.4525801 L56.0346506,91.319038 L23.3157408,91.3797529 Z M100.699216,91.2368801 L67.9807963,91.2971131 L66.7775116,85.4349921 C66.7765319,85.4299325 66.7748175,85.4253548 66.7735929,85.4202952 C66.9403824,85.1967101 67.0905175,84.9579463 67.2183649,84.7044857 L69.6268936,87.0648983 C69.9734533,87.4043718 70.4407579,87.5927807 70.9256965,87.5927807 C70.9746803,87.5927807 71.0239089,87.5908533 71.0731375,87.5869984 C71.609754,87.5448352 72.1005707,87.2733047 72.4160257,86.8444454 L83.5921476,71.667404 L94.8405204,73.9601147 C100.390864,75.5105134 103.303435,80.9635316 103.312252,85.5653364 L103.319114,89.1961844 C103.321804,90.3001357 102.121703,91.2342298 100.699216,91.2368801 Z" id="Shape" fill="#000000" fill-rule="nonzero"></path>
                                <path d="M15.9539822,42.6195896 C15.9721958,52.2097995 22.9533514,60.00072 31.5227339,60 C31.5309907,60 31.5404618,60 31.5489615,60 C34.6902022,59.99424 37.7129331,58.9521546 40.2900376,56.9865443 C41.0877937,56.3781412 41.2354454,55.2455753 40.6198254,54.4569312 C40.0039625,53.6682871 38.8582049,53.5226063 38.0602059,54.1310095 C36.1254347,55.6065372 33.8715611,56.3887012 31.5419189,56.3930212 C31.5351191,56.3930212 31.5292908,56.3930212 31.522491,56.3930212 C24.9634055,56.3930212 19.618075,50.2156291 19.6035041,42.6128696 L19.6013185,41.4819837 L19.6013185,41.4819837 C19.5952473,38.3857276 20.897399,34.2771462 21.5555175,32.3986565 C25.8012316,32.0079344 29.5884484,32.5508173 32.678691,32.9957796 L33.0271781,33.0459398 C33.1163034,33.0586599 33.2044573,33.0648999 33.2918826,33.0648999 C34.183621,33.0648999 34.9634064,32.4183366 35.0955158,31.5207319 C35.2404961,30.5348068 34.5495931,29.619922 33.5522158,29.4766413 L33.2051858,29.426961 C29.6350752,28.9126383 25.1931398,28.273035 20.0124604,28.9383185 C20.0051749,28.9390385 19.9981323,28.9397585 19.9908469,28.9407185 L19.990604,28.9407185 C19.9893898,28.9407185 19.9884184,28.9411985 19.9872042,28.9411985 C19.9294063,28.9488785 19.8720941,28.9591986 19.8155105,28.9721586 C19.7890401,28.9781587 19.7637839,28.9863187 19.7377991,28.9932788 C19.7074431,29.0016788 19.6768442,29.0093588 19.6467311,29.0191989 C19.6127323,29.030479 19.579705,29.043919 19.5466776,29.0568791 C19.5255498,29.0652791 19.5041792,29.0727192 19.4835371,29.0818392 C19.4492955,29.0969593 19.4160253,29.1139994 19.382998,29.1312795 C19.363813,29.1411195 19.3443851,29.1502396 19.3256858,29.1607996 C19.2953298,29.1778397 19.2664309,29.1965598 19.2370462,29.2152799 C19.2161613,29.22872 19.1947907,29.24144 19.1743914,29.2556001 C19.1498638,29.2726402 19.1265503,29.2911203 19.1029941,29.3096004 C19.0794378,29.3278405 19.0556387,29.3458406 19.0325681,29.3652807 C19.0138688,29.3813608 18.9963837,29.3984009 18.9781701,29.415201 C18.9526711,29.4387211 18.927172,29.4622412 18.9028872,29.4876813 C18.8883163,29.5028014 18.8747168,29.5191215 18.8606316,29.5349616 C18.8356183,29.5628017 18.8108477,29.5904019 18.7872915,29.620162 C18.773692,29.6374421 18.7615496,29.6554422 18.7486786,29.6732023 C18.7275508,29.7022424 18.7059373,29.7310426 18.6865095,29.7617628 C18.6702387,29.7869629 18.6561535,29.813603 18.6410969,29.8400032 C18.6272545,29.8642433 18.6126837,29.8875234 18.5998127,29.9127235 C18.5750422,29.9607238 18.5531859,30.010164 18.5325438,30.0603243 C18.5308438,30.0646443 18.5286582,30.0684843 18.5269583,30.0728044 C18.5269583,30.0730444 18.5264726,30.0740044 18.5262297,30.0744844 C18.5245298,30.0788044 18.5230727,30.0828844 18.5213728,30.0869644 C18.4796029,30.193525 18.2685678,30.7366478 17.9822499,31.5725722 C17.7862714,30.1587248 17.6517336,28.8089578 17.6497908,27.7541523 C17.6463909,25.9351829 18.0864317,24.3106144 18.8897734,23.1802085 C19.6294888,22.1386031 20.6093811,21.6094004 21.8022512,21.6070003 C21.8976905,21.6070003 21.9907013,21.5971603 22.0822551,21.5830002 C22.1730803,21.5966803 22.2643912,21.6060403 22.3566735,21.6060403 C22.7423164,21.6060403 23.1313591,21.4855597 23.4618754,21.2364384 C25.3024215,19.8497112 27.6714051,19.3793088 31.1434051,19.7114705 C32.1466107,19.806751 33.038592,19.0814672 33.1357312,18.0902621 C33.2328705,17.0988169 32.4982549,16.2172923 31.4950492,16.1212918 C28.8676751,15.8700105 25.0637018,15.8092902 21.7701952,18.0005016 C19.4007259,18.0125017 17.3178174,19.1148274 15.9024984,21.1073177 C14.6707726,22.8413268 13.995169,25.2041391 14,27.7603923 C14.0077971,31.8123334 15.6458079,39.2158919 15.9500966,40.5562989 L15.9539822,42.6195896 Z" id="Shape" fill="#000000" fill-rule="nonzero"></path>
                                <path d="M13.5638957,77.4526629 C13.562677,77.4526629 13.5614582,77.4526629 13.5602395,77.4526629 L4.86304657,77.4684059 C4.50741739,77.4660562 4.16446315,77.3565603 3.92997702,77.1594208 C3.81078396,77.0590887 3.66843479,76.8950799 3.66819105,76.6829023 L3.66355982,74.2716437 C3.65795361,71.4332102 5.4653493,68.0665649 8.93096655,67.0933205 L16.1266683,65.6287546 L19.8569965,70.7955025 C20.2131131,71.2884688 20.7827536,71.5525747 21.3621439,71.5525747 C21.7231356,71.5525747 22.0880272,71.449893 22.4066066,71.2358356 C23.237058,70.6787226 23.441563,69.5783597 22.8638789,68.778053 L19.1474444,63.6305726 L20.3413249,61.8784039 L28.0752234,67.422748 C28.8864187,68.0047678 30.0342308,67.8419339 30.637996,67.0597199 C31.2417612,66.2772709 31.0728434,65.1712687 30.2614044,64.5892488 L21.8859596,58.5845992 C21.2943818,58.136982 20.5319363,57.9316185 19.7841156,58.020202 C19.0199639,58.1111353 18.3172367,58.5042395 17.8563082,59.0989478 C17.834127,59.1276141 17.8131647,59.1567503 17.792446,59.1865914 L15.8195451,62.0823575 L8.11050884,63.6514849 C8.07053408,63.6597089 8.03055931,63.6691077 7.99131579,63.6796813 C2.7341465,65.1097066 -0.00826872414,70.0941181 0,74.2786928 L0.00464995038,76.6897164 C0.00684368756,77.8709089 0.559665458,79.0121566 1.52174109,79.8209221 C2.4260483,80.581284 3.61115388,81.0002349 4.85939034,81 C4.86280282,81 4.8662153,81 4.86962778,81 L13.5668207,80.9842569 C14.5783773,80.9823772 15.396885,80.1902944 15.394935,79.2154053 C15.3934725,78.2409861 14.5739898,77.4526629 13.5638957,77.4526629 Z" id="Shape" fill="#000000" fill-rule="nonzero"></path>
                                <path d="M91.5740048,17.6130211 C94.4512834,17.6642245 97.6282177,18.1659209 100.700723,18.6510304 C103.062915,19.0238771 105.323599,19.3779734 107.271726,19.4890341 C107.214765,24.2062307 106.904399,28.4375966 106.554111,31.8105256 C106.540966,31.7982656 106.52709,31.7862461 106.513459,31.7744669 C106.486925,31.751149 106.459905,31.7292734 106.432155,31.7073978 C106.413168,31.6927339 106.394424,31.67807 106.374707,31.6638869 C106.344035,31.641771 106.312633,31.6213377 106.280501,31.6013852 C106.267843,31.5934523 106.256402,31.5843175 106.243501,31.5766249 C106.228895,31.5679709 106.214046,31.5600379 106.199441,31.5513839 C106.195303,31.5492203 106.191408,31.546576 106.187026,31.5444125 C102.294667,29.2388205 97.5770986,27.913063 91.7663102,27.4935804 C90.7580455,27.420261 89.8822038,28.1683585 89.8086896,29.1633377 C89.7351754,30.1583168 90.4919824,31.0239656 91.4995168,31.0965637 C96.508708,31.4581121 100.563918,32.5408341 103.87717,34.3978561 C104.33773,35.4572601 105.389811,38.2251244 105.395896,41.4081443 L105.395896,41.4081443 L105.398087,42.5406273 C105.405147,46.31525 104.132523,49.8365003 101.813904,52.4553221 C99.5739105,54.9851991 96.6158149,56.3816316 93.4839141,56.387401 C91.156775,56.3948531 88.8865973,55.6167068 86.9413914,54.1459934 C86.1393074,53.5394864 84.991317,53.6897309 84.3769133,54.4820603 C83.7627531,55.2741493 83.9151369,56.4080746 84.7174643,57.0143412 C87.3011729,58.9680005 90.3247498,60 93.4639533,60 C93.47296,60 93.4819667,60 93.49073,60 C97.6910213,59.9923074 101.625006,58.157161 104.567766,54.8330314 C107.471091,51.5536147 109.064792,47.1857065 109.056029,42.533656 L109.052134,40.4398486 C109.316493,39.0388487 110.918957,30.0513428 110.937944,18.1644786 C110.986872,17.9825024 111.009024,17.7899491 110.996609,17.5916263 C110.937457,16.6276576 110.122959,15.8886951 109.155589,15.8968684 C109.140253,15.896628 109.125405,15.8947048 109.109825,15.8947048 C109.108608,15.8947048 109.107391,15.8947048 109.106174,15.8947048 C109.066009,15.8947048 109.026574,15.8983107 108.986896,15.9007146 C107.08648,15.999275 104.264702,15.5547917 101.277639,15.0831441 C98.229233,14.6018809 94.7740644,14.0564333 91.6397294,14 C90.6407149,13.9862391 89.7957881,14.7761646 89.7777747,15.7735477 C89.7597613,16.7716519 90.5637927,17.5949918 91.5740048,17.6130211 Z" id="Shape" fill="#000000" fill-rule="nonzero"></path>
                                <path d="M124.995123,74.2338597 C124.986846,70.0418892 122.228217,65.0585546 116.971948,63.6453034 C116.932507,63.634711 116.892824,63.625531 116.852897,63.6175279 L109.147191,62.0738735 L107.165438,59.1802864 C107.145231,59.1506279 107.123807,59.1214401 107.101409,59.0927232 C106.638838,58.4986116 105.935486,58.1074018 105.171756,58.0191324 C104.424582,57.9327461 103.664018,58.1415326 103.074848,58.5920594 L94.7322549,64.6376863 C93.9239726,65.2235594 93.7596381,66.3324579 94.3656064,67.1139359 C94.9715746,67.8954139 96.1180208,68.0542988 96.9267901,67.4684256 L104.629818,61.8860363 L105.829094,63.6370649 L102.137046,68.8070598 C101.562727,69.6111348 101.771615,70.7125009 102.603269,71.267774 C102.920495,71.4793851 103.282518,71.5813068 103.640889,71.5813068 C104.221781,71.5813068 104.792935,71.3146156 105.148141,70.8172472 L108.854067,65.6279508 L116.046805,67.068742 C119.512194,68.031231 121.330586,71.3972357 121.336185,74.2406859 L121.340811,76.6559708 C121.341541,77.0292913 120.85292,77.4459227 120.150542,77.4470996 L111.463699,77.462635 C110.453346,77.4645181 109.635812,78.2577653 109.63776,79.2348482 C109.639707,80.2105188 110.458215,81.0002353 111.467107,81 C111.468324,81 111.469542,81 111.470759,81 L120.157603,80.9844645 C122.832238,80.9795215 125.004618,79.0345357 125,76.6489092 L124.995123,74.2338597 Z" id="Shape" fill="#000000" fill-rule="nonzero"></path>
                            </g>
                        </g>
                    </g>
                    <ellipse id="Oval-2-Copy-3" stroke="#444444" stroke-width="5" cx="63.9365672" cy="63.9432624" rx="63.9365672" ry="63.9432624"></ellipse>
                </g>
                <g id="Group-7" transform="translate(274.000000, 131.000000)">
                    <g id="Ethereum_logo_2014" transform="translate(33.000000, 12.000000)" fill-rule="nonzero">
                        <polygon id="Shape" fill="#343434" points="30.2252252 0 30.2252252 2.27837861 30.2252252 68.3916497 30.8830523 69.0607735 61 50.9205628"></polygon>
                        <polygon id="Shape" fill="#8C8C8C" points="30.2252252 0 0 50.920386 30.2252252 69.0607735 30.2252252 36.9714811"></polygon>
                        <polygon id="Shape" fill="#3C3C3B" points="30.5991867 74.6525514 30.2252252 75.1172869 30.2252252 98.8863292 30.2252252 100 61 56.3535912"></polygon>
                        <polygon id="Shape" fill="#8C8C8C" points="30.2252252 100 30.2252252 74.6525514 0 56.3535912"></polygon>
                        <polygon id="Shape" fill="#141414" points="30.2252252 69.0607735 60.4504505 50.946086 30.2252252 37.0165746"></polygon>
                        <polygon id="Shape" fill="#393939" points="0 50.946086 30.2252252 69.0607735 30.2252252 37.0165746"></polygon>
                    </g>
                    <ellipse id="Oval-2-Copy-2" stroke="#444444" stroke-width="5" cx="63.9365672" cy="63.9432624" rx="63.9365672" ry="63.9432624"></ellipse>
                </g>
            </g>
        </g>
    </g>
</svg>