<?xml version="1.0" encoding="UTF-8"?>
<svg viewBox="0 0 512 406" version="1.1" xmlns="http://www.w3.org/2000/svg" xmlns:xlink="http://www.w3.org/1999/xlink">
    <!-- Generator: Sketch 55.2 (78181) - https://sketchapp.com -->
    <title>Group 13</title>
    <desc>Created with Sketch.</desc>
    <defs>
        <polygon id="path-1" points="0.260342942 0.336075678 169.811995 0.336075678 169.811995 278.396786 0.260342942 278.396786"></polygon>
        <polygon id="path-3" points="0.246710426 0.338910955 146.721432 0.338910955 146.721432 52.8675355 0.246710426 52.8675355"></polygon>
    </defs>
    <g id="Page-1" stroke="none" stroke-width="1" fill="none" fill-rule="evenodd">
        <g id="Artboard" transform="translate(-1006.000000, -788.000000)">
            <g id="Group-13" transform="translate(1006.000000, 788.000000)">
                <g id="tree-greyscale-copy-2" transform="translate(10.000000, 0.000000)">
                    <path d="M128.717397,368.762098 C103.738165,365.713706 74.3009607,372.569882 52,384 C70.7336311,380.190863 85.0061191,377.904569 100.169251,376.380372 C104.631979,376.380372 147.449443,374.85753 126.040711,368" id="Fill-1" fill="#222222"></path>
                    <path d="M114.110139,195.356559 C108.88568,190.115189 83.6312901,178.758631 88.8572964,191.86283 C81.0182869,190.115189 68.8258191,184 60.9899037,185.74764 C50.539438,187.493729 48.7974359,192.73665 60.9899037,197.104199 C50.539438,195.356559 41.8309745,187.493729 32.2515099,184 C29.6400538,198.850287 47.9279819,208.460758 60.9899037,207.588489 C61.8609047,207.588489 61.8609047,207.588489 60.9899037,207.588489 C49.668437,211.956038 79.2762848,225.060237 89.7267504,216.325139 C88.8572964,228.555518 119.336145,231.176979 128.91561,224.187969 C140.237077,216.325139 137.622526,200.597928 123.689604,197.104199 C124.562152,197.104199 127.172061,197.978019 128.044609,197.978019 C125.431606,190.98901 116.723142,191.86283 110.626135,194.48429" id="Fill-3" fill="#666666"></path>
                    <path d="M87.5790287,216.3486 C79.7808508,216.3486 67.6447053,215.435464 62.4428401,222.750298 C52.9076273,238.297975 73.7104681,237.384839 83.2472209,235.555318 C78.0453558,235.555318 73.7104681,237.384839 71.978053,241.957016 C80.6447484,246.529193 124.852903,243.786537 123.987465,230.066756 C123.118948,220.007641 92.7808939,214.519079 84.9796361,216.3486" id="Fill-5" fill="#666666"></path>
                    <path d="M85.2727169,143.355044 C75.8852101,136.996612 65.3268053,141.043027 57.1133231,147.979077 C44.7946631,134.684595 21.916035,117.343697 5.49063384,134.684595 C-13.2828164,154.915128 20.7420104,169.364849 37.7536422,167.631992 C34.8224889,193.643338 62.9803194,199.42107 82.9277943,201.157008 C101.111887,202.889865 116.36639,211.560314 135.721382,206.358661 C133.96269,206.358661 132.203998,205.781042 130.445306,205.781042 C137.4832,204.046644 143.936427,204.624263 150.975885,202.889865 C156.841318,201.734627 162.708314,196.532974 169.159978,195.953815 C179.721509,194.798576 194.386655,197.688212 203.772598,197.688212 C217.265283,197.688212 236.03717,195.376195 224.304741,179.192077 C223.132279,177.457679 219.613332,177.457679 218.440871,175.723281 C217.265283,172.835185 219.613332,168.209611 219.613332,165.319975 C219.027102,158.382384 216.679052,152.603111 210.225825,149.711935 C210.812056,134.684595 194.386655,126.591765 180.89397,132.372578 C173.854513,122.546891 164.468569,117.343697 152.148346,116.186919 C142.174609,115.03168 132.790228,119.655714 123.992079,118.500476 C111.671855,116.766078 102.870579,112.142044 94.0724297,124.281289 C89.9672519,129.482942 90.5534825,140.465407 85.8589475,143.355044" id="Fill-7" fill="#999999"></path>
                    <path d="M62.1435615,142.404929 C57.9173278,143.316 54.5351394,146.054079 52,149.70485 C58.7628749,149.70485 74.8252661,146.966771 73.1341719,157.917463 C74.8252661,157.917463 76.5148585,157.004771 78.2074545,157.004771 C83.2777334,161.568234 86.6614237,159.742849 88.351016,152.441307 C95.959438,158.830156 122.165391,165.217384 123.857987,153.353999 C126.393126,134.192315 94.266842,131.454237 84.9703295,142.404929 C78.2074545,136.017701 65.524248,132.36693 61.2980144,143.316" id="Fill-9" fill="#DDDDDD"></path>
                    <path d="M216.297159,231.882201 C207.791843,243.357452 231.610656,246.889263 239.265137,241.591546 C247.773475,243.357452 255.429468,238.944256 257.980458,230.116296 L255.429468,229.233343 C266.487285,230.116296 265.636451,222.171289 259.682126,215.992187 C255.429468,211.578991 245.222485,211.578991 239.265137,212.460376 C232.459978,213.343329 201.836007,218.641046 215.447836,227.467437 C213.746169,230.999249 215.447836,230.999249 216.297159,232.763586" id="Fill-11" fill="#666666"></path>
                    <path d="M160.210957,187.961129 C163.725335,185.308467 169.876667,180 174.271591,180 C183.938862,180 186.575816,187.961129 176.906984,193.268024 C182.179331,189.730618 187.45324,188.845873 193.606133,188.845873 C190.969179,194.152769 186.575816,198.576491 182.179331,202.113898 C190.090194,204.768131 202.39442,204.768131 207.665206,196.807002 C205.029813,197.691747 205.029813,198.576491 203.270282,200.34598 C207.665206,202.998642 212.939114,203.883387 217.334038,203.883387 C204.150828,213.614005 227.878733,216.266667 234.90905,213.614005 C238.424989,217.152983 244.574759,218.037727 250.729214,217.152983 C243.698897,222.459878 248.09226,232.190496 256,233.075241 C234.90905,231.305752 217.334038,233.075241 197.120511,238.382136 C189.209648,240.150054 153.180641,243.689032 161.088381,227.766774 C148.787278,225.997285 125.056251,214.498749 141.756961,201.229153 C141.756961,200.34598 140.876415,200.34598 140.876415,198.576491 C146.147201,195.037513 151.42111,192.38328 157.574003,191.498535" id="Fill-13" fill="#666666"></path>
                    <g id="Group-17" transform="translate(68.000000, 120.000000)">
                        <mask id="mask-2" fill="white">
                            <use xlink:href="#path-1"></use>
                        </mask>
                        <g id="Clip-16"></g>
                        <path d="M41.7703191,0.769820946 C41.7703191,2.50018771 29.4916672,50.9842953 51.7088447,76.381465 C51.7088447,76.381465 52.2962132,97.736498 58.7245495,105.817695 C58.7245495,105.817695 35.3388668,140.448102 47.0332662,162.958251 C47.0332662,162.958251 51.7119607,166.99885 50.5403395,183.159706 C50.5403395,183.159706 42.9403822,241.455378 32.416046,259.349677 C32.416046,259.349677 23.6460255,265.122181 0.260342942,265.69897 C0.260342942,265.69897 8.44455285,268.584452 18.3846365,267.430875 C18.3846365,267.430875 28.3231621,268.007664 39.4317508,263.968603 C39.4317508,263.968603 47.6175187,263.388738 54.6332235,266.852548 C54.6332235,266.852548 59.8961706,274.356956 68.0803805,274.356956 C68.0803805,274.356956 78.0189061,274.355418 85.0346109,278.397555 C85.0346109,278.397555 76.850401,270.893146 70.4189488,269.739568 C70.4189488,269.739568 66.3276228,263.967065 80.9432849,264.545392 C80.9432849,264.545392 87.3747372,266.854086 101.406147,265.69897 C101.406147,265.69897 113.098988,263.968603 123.037514,268.584452 C123.037514,268.584452 126.546145,273.778629 149.347575,273.20184 C149.347575,273.20184 165.1333,270.893146 169.811995,273.20184 C169.811995,273.20184 157.890127,264.748422 140.642991,266.76949 L141.163365,266.852548 C141.163365,266.852548 131.807534,265.122181 124.207577,258.196099 C124.207577,258.196099 118.94463,251.846807 91.4645051,243.76561 C91.4645051,243.76561 74.5118327,229.336658 81.5275375,211.442359 C81.5275375,211.442359 92.0518737,180.275762 89.7117474,171.617775 C89.7117474,171.617775 87.3747372,158.342402 78.0189061,149.106088 C68.6646331,139.871313 76.7039483,148.38318 76.7039483,148.38318 C76.7039483,148.38318 73.6331169,126.306776 80.2110217,115.484678 C80.2110217,115.484678 88.9810422,84.3165425 88.1038844,76.0907634 C88.1038844,76.0907634 87.7330787,31.9979421 77.2087426,4.72582389 L58.2883075,1.20049001 C58.2883075,1.20049001 56.0946339,23.712177 61.7953809,39.7284518 C61.7953809,39.7284518 67.4961279,60.9404411 64.4252965,76.5245087 C64.4252965,76.5245087 59.6017073,60.9404411 50.8316868,55.7447265 C50.8316868,55.7447265 38.556151,37.5643397 46.4490136,0.336075678 L41.7703191,0.769820946 Z" id="Fill-15" fill="#444444" mask="url(#mask-2)"></path>
                    </g>
                    <path d="M111.568383,161.239301 C111.568383,161.239301 95.694982,167.237295 88.8028862,156 L84,157.961618 C84,157.961618 98.6458948,171.07235 112,167.32714 L111.568383,161.239301 Z" id="Fill-18" fill="#222222"></path>
                    <path d="M152,172.791217 C152,172.791217 173.158857,167.247335 175.404098,112 L179.739046,113.724899 C179.739046,113.724899 184.505178,166.755601 153.299714,184 L152,172.791217 Z" id="Fill-20" fill="#222222"></path>
                    <g id="Group-24" transform="translate(156.000000, 172.000000)">
                        <mask id="mask-4" fill="white">
                            <use xlink:href="#path-3"></use>
                        </mask>
                        <g id="Clip-23"></g>
                        <path d="M146.721589,48.0260189 C142.600059,36.905744 133.768658,36.3208768 123.172233,39.248332 C127.880535,31.0523931 133.180317,14.0803268 116.695767,16.4213553 C114.927605,7.64210874 111.395986,2.37518468 101.386333,0.619023441 C94.3230946,-0.550710952 84.9033521,1.78875783 86.0816044,10.5680044 C80.1919119,10.5680044 67.8288922,5.8859475 67.8288922,15.2500612 C66.0622982,14.665194 26.6151655,-6.98892905 34.2714518,11.1528716 C27.2035071,9.39826997 4.24406152,16.4213553 19.5503586,22.8595734 C12.4855517,23.4444406 6.60056605,33.9798483 15.4303979,36.3208768 C9.54227444,33.3949811 -2.23083475,37.4906112 0.710873637,46.2714173 C3.65571984,53.8778102 17.7853336,50.3670474 23.6718882,49.1957533 C27.7949866,48.0260189 31.9149473,45.6849905 36.0364768,44.5152561 C43.6911943,42.7590949 40.1580064,43.3439621 46.044561,46.2714173 C56.055783,50.9519145 60.1757436,54.464237 71.9519906,52.1216489 C76.0735202,51.5367817 77.8385452,50.3670474 81.3701642,49.7821802 C86.669946,49.7821802 90.7914756,52.7080758 96.6795991,50.9519145 C99.6213075,49.7821802 103.151358,45.6849905 105.509431,45.1001233 C108.451139,45.1001233 112.574238,48.0260189 114.927605,48.6108861 C121.405639,50.3670474 144.954995,48.0260189 144.954995,46.8562845" id="Fill-22" fill="#999999" mask="url(#mask-4)"></path>
                    </g>
                    <path d="M275.761585,157.495408 C272.9189,147.220134 268.934592,138.152958 258.693344,135.131103 C253.571962,133.921394 245.607895,133.317346 242.763694,138.758618 C236.505237,135.733541 223.989841,127.272024 218.869975,136.339201 C200.66466,116.996751 184.164956,168.98039 207.491653,162.331021 C201.801734,173.211954 222.28423,173.816003 227.40258,172.002246 C236.505237,182.883179 262.107599,180.465373 274.055974,177.441907 C280.31443,175.62976 291.122699,171.398197 287.141424,164.748827 C285.434296,161.726972 275.761585,158.099457 273.487437,157.495408" id="Fill-25" fill="#999999"></path>
                    <path d="M143.504277,243.65951 C143.504277,243.65951 142.189395,238.553674 165.840155,239.831267 C165.840155,239.831267 178.540827,245.361959 187.299964,241.107348 C187.299964,241.107348 190.802685,236.424856 197.370871,237.277593 C197.370871,237.277593 207.007634,236.424856 203.940613,217.277593 L210.510356,216 C210.510356,216 217.954611,245.786816 199.560267,244.510735 C199.560267,244.510735 194.744219,243.234654 189.050547,248.766858 C189.050547,248.766858 182.043548,254.299063 167.590738,248.34049 C167.590738,248.34049 152.700671,245.786816 140,256 L143.504277,243.65951 Z" id="Fill-27" fill="#222222"></path>
                    <path d="M212,220.260207 C212,220.260207 238.221356,219.887966 239.554137,208 L243.999371,208 C243.999371,208 244.443105,224.717864 212,223.976022 L212,220.260207 Z" id="Fill-29" fill="#222222"></path>
                    <path d="M259.326768,132.391923 C247.493449,131.492415 235.658513,143.182825 252.044352,141.385406 C252.044352,147.680365 259.326768,151.278397 262.968785,154.874832 C269.340696,161.171388 269.340696,162.069299 277.533616,165.667331 C300.292984,174.660814 293.010569,154.874832 277.533616,153.075816 C283.905527,141.385406 267.519688,129.694997 258.416264,132.391923" id="Fill-31" fill="#DDDDDD"></path>
                    <path d="M215.337889,191.740045 C197.684793,186.80238 178.264348,206.554499 205.629235,210.670438 C193.270343,211.492163 199.450573,220.545766 207.396583,223.015329 C214.456567,225.48343 223.282331,223.015329 228.579672,218.899391 C240.055674,230.422556 275.363435,217.254477 255.944559,208.200875 C278.894995,204.908124 246.232768,190.916857 239.171216,190.093669 C231.228342,188.448756 217.105237,185.979193 213.573677,190.916857" id="Fill-33" fill="#999999"></path>
                    <path d="M234.32099,169.618949 C229.062368,167.010068 220.30111,162.659358 214.166051,164.399642 C200.146171,168.750352 212.414734,176.57854 222.052428,178.318824 C215.920482,177.448682 201.022608,179.188966 204.5268,187.888841 C207.156111,193.97829 226.434613,193.108148 231.691679,192.238006 C211.538296,195.718575 243.082247,201.808024 246.589552,203.548308 C249.217307,204.41845 272,220.946513 263.237186,205.287046 C266.741378,207.02733 269.372246,207.02733 272,207.897473 C272,200.937881 253.599492,177.448682 246.589552,174.839801 L248.340869,174.839801 C245.711558,168.750352 239.578056,167.010068 233.444553,170.489091" id="Fill-35" fill="#DDDDDD"></path>
                    <path d="M241.425614,175.805882 C234.873469,162.077753 252.892958,168.483346 255.350558,179.465524 C261.902703,172.144614 273.368592,181.296158 268.454847,190.447703 C282.379792,189.532385 275.827647,206.920157 258.625903,196.853296 C252.072303,192.276711 238.150269,184.040483 243.064014,175.805882" id="Fill-37" fill="#DDDDDD"></path>
                    <path d="M95.1216017,111.330169 C88.0130718,107.969245 77.3510663,106.288036 70.2393792,109.650453 C73.7944334,85.2759111 15.1085299,88.6690842 8,108 C12.4438178,108.840604 -3.51063169,121.414436 5.3738467,128.139272 C16.0374308,135.703219 29.365727,129.820481 40.0293112,129.820481 C50.6913167,129.820481 82.6804904,134.862614 87.1258869,123.93625 C95.1216017,127.298667 106.672371,119.734721 95.1216017,117.212907" id="Fill-39" fill="#666666"></path>
                    <path d="M199.122975,55.1206544 C197.327257,43.8892394 182.08039,34.3875053 171.318832,38.7063358 C164.14393,36.1156514 154.276247,33.5234322 148,40.4344819 C155.174903,40.4344819 162.349806,37.8437975 167.730584,41.298555 C166.833522,43.0267011 165.037805,44.7548472 164.14393,46.4814586 C168.626053,49.0736777 173.111363,48.2096047 177.59508,50.8018239 C183.876107,53.3925083 185.668638,60.3050927 188.358231,62.0317041 C198.225913,68.0802155 205.399222,58.5769466 194.637665,55.1206544" id="Fill-41" fill="#49A040"></path>
                    <path d="M267.475165,152.682336 C252.02669,151.00228 252.02669,167.799859 268.384183,165.281267 L267.475165,165.281267 C266.567761,165.281267 266.567761,165.281267 265.658742,166.119803 C270.202221,169.479916 284.744906,172 290.197404,172 C298.378573,172 312.919643,166.961323 296.560535,161.921154 C301.104014,151.8438 275.654719,151.00228 268.384183,152.682336" id="Fill-43" fill="#DDDDDD"></path>
                    <path d="M86.4579168,190.118027 C80.2779565,184.91979 52.9142654,177.986754 61.741212,193.583006 C56.4472394,190.118027 51.1501306,186.653049 44.088887,187.518139 C41.4403326,197.916153 98.8131329,218.710642 104.993093,207.447538 C109.407351,210.912516 114.702891,212.645775 120,211.779146 C120,194.449635 96.1661467,185.786419 82.9265109,189.251398" id="Fill-45" fill="#666666"></path>
                    <path d="M67.6215871,142.095472 C62.4957377,140.291728 54.4438386,139.087629 49.3194928,140.892976 C33.9464553,147.509912 55.9068634,153.527202 64.6940339,152.924351 C61.7634735,153.527202 62.4957377,154.729698 60.3004487,155.33255 C73.4781971,158.941642 84.4576494,146.90706 66.8878193,143.297968" id="Fill-47" fill="#DDDDDD"></path>
                    <path d="M226.255315,192.677968 C220.826022,192.677968 206.345229,199.547141 208.155529,205.652921 C209.964221,210.99531 229.874307,205.652921 235.305208,204.889529 C245.258643,203.364101 262.454887,199.547141 243.449951,192.677968 C238.01905,191.15254 227.158857,192.677968 220.826022,192.677968" id="Fill-49" fill="#DDDDDD"></path>
                    <path d="M136,146.209498 L136.996591,144 C136.502765,144.641893 136.180995,145.384443 136,146.209498" id="Fill-51" fill="#19120B"></path>
                    <path d="M140.344351,280.138742 C127.490101,274.088159 134.346615,255.065458 135.202347,246.418915 C136.915333,234.313141 142.916115,223.073711 143.771847,211.832745 C144.629101,201.458122 142.916115,186.757924 141.201606,175.518494 C140.42962,168.504795 133.394956,155.173236 134.523243,148.17797 L133.487838,151.308482 C133.047791,146.873845 131.030273,139.709611 128.359537,136 C128.566618,143.465304 129.461939,152.641791 132.137243,160.325218 C132.137243,160.325218 137.710159,181.50917 134.709007,197.07264 C134.709007,197.07264 131.949957,187.974492 126.821656,181.37246 C127.342404,190.151105 126.996761,199.488879 125.77407,207.510241 C125.428427,209.603906 124.866568,211.551644 124.195077,213.414897 C125.215255,218.368726 126.771408,223.288761 129.137614,226.327109 C129.137614,226.327109 106.282568,260.911744 117.711614,283.393676 C117.711614,283.393676 122.284145,287.427398 121.139109,303.566894 C121.139109,303.566894 113.7116,361.787051 103.426068,379.656163 C103.426068,379.656163 94.8550455,385.421036 72,385.997063 C72,385.997063 79.9985046,388.880268 89.7130409,387.728215 C89.7130409,387.728215 99.4260545,388.304241 110.282582,384.268983 C110.282582,384.268983 116.297067,383.838884 122.364846,385.97863 C122.803371,365.911401 132.650378,350.635177 133.487838,332.88127 C134.346615,322.506648 132.630583,310.400873 132.630583,301.755867 C132.630583,291.379708 129.203088,286.192397 140.344351,280.138742" id="Fill-53" fill="#222222"></path>
                    <path d="M151.436277,30.1194966 C149.694485,12.8244037 129.978386,-1.58868577 112.577465,0.14113077 C98.6585832,1.29485388 99.2396958,10.5184937 92.8598217,18.0138533 C86.4799477,24.9315832 77.2006929,26.0837701 84.160134,38.1894133 C78.359827,39.9192299 70.2397063,46.8369598 74.2997666,52.6025028 C60.3808844,53.1801325 54.5805774,78.5451421 60.9604515,88.3448754 C50.5220626,86.6150589 48.2007034,101.605778 54.5805774,107.369785 C46.4604567,104.486245 18.6226924,107.947415 16.3028787,118.900871 C13.9815195,128.122975 25.5821335,126.393158 31.3824405,125.817065 C34.2818212,125.240971 38.9214486,122.935061 41.8208293,122.935061 C46.4604567,123.511155 45.8824352,125.817065 51.1016296,127.546881 C59.2202048,131.582608 67.9198926,128.122975 76.0384678,129.852791 C79.5205066,131.004978 82.9994544,134.464611 87.6390818,135.618334 C92.2802547,136.194428 97.4979036,136.194428 102.139077,135.040704 C109.676539,133.888518 116.63598,128.699068 124.757646,128.699068 C132.876222,128.699068 141.575909,133.310888 149.694485,131.582608 C154.915225,130.428884 158.975285,127.546881 162.454233,123.511155 C171.155466,129.276698 183.334101,137.922708 194.93317,135.618334 C202.472178,134.464611 200.731931,129.276698 205.373104,126.969251 C209.431619,124.663341 214.652359,126.969251 219.291986,126.393158 C227.991674,125.240971 250.032223,119.475428 254.670305,111.981605 C260.470612,102.757965 245.970617,92.9582316 236.689816,94.1104185 C252.930058,80.8510521 238.431609,71.6274122 223.933159,69.3215023 C232.051735,52.0248731 223.933159,49.7204994 209.431619,43.378863 C218.132852,22.6256733 197.834096,20.3197633 182.754534,23.7793964 C177.53534,25.5092129 179.275587,26.0837701 174.054847,24.9315832 C169.994786,24.3539535 168.834107,20.3197633 163.616458,20.3197633 C158.975285,20.3197633 152.015844,24.3539535 150.277143,28.38968" id="Fill-55" fill="#999999"></path>
                    <path d="M239.745462,92.7014834 C256.116849,79.6404224 241.50132,70.5547301 226.885791,68.283307 C235.069926,51.245364 226.885791,48.9754542 212.267145,42.7286625 C221.038644,22.2858548 200.575968,20.0144317 185.374634,23.422323 C180.113292,25.1262686 181.867592,25.6922328 176.604693,24.5572779 C172.511846,23.9882872 171.341793,20.0144317 166.08201,20.0144317 C161.870756,20.0144317 155.777446,23.2361904 153.320492,26.7787629 C149.776059,11.0619075 131.17051,-1.4679946 114.63086,0.139101534 C100.598019,1.27405643 101.183825,10.3597487 94.7539889,17.7430087 C88.3225951,24.5572779 78.968407,25.6922328 85.9840481,37.6183389 C80.1369015,39.3222845 71.9512079,46.1365537 76.0440547,51.8143548 C62.6904994,52.3561066 56.7592212,75.0037533 61.7603778,85.5119224 C61.6357383,73.9202497 76.0720986,63.3530629 86.3439444,62.5222759 C85.4667945,53.1520883 93.3595854,45.4858462 103.005118,46.3378191 C100.375227,36.1156586 110.020759,31.8557945 117.91355,35.2636858 C123.176449,27.5974437 137.20929,36.1156586 140.716331,42.9299278 C148.61068,33.5597402 171.411903,45.4858462 175.796094,54.8560339 C168.778895,42.077955 218.767091,50.5961698 204.735809,65.9286539 C214.382899,58.2624119 223.15284,71.8924636 215.258491,80.4091652 C225.782732,77.8532467 245.076913,88.92738 228.415739,94.0392169 C238.936864,91.4832984 246.831213,95.7416492 255.599596,100 C255.733583,99.6943188 255.866013,99.3765314 256,99.0617706 C251.994401,94.8639508 245.033289,92.0598555 239.745462,92.7014834" id="Fill-57" fill="#DDDDDD"></path>
                    <path d="M60,88.2187403 C60.3016588,88.3071203 60.6055522,88.3888717 60.907211,88.4882991 L61.8948643,88 C61.2289804,88.0198855 60.6055522,88.1016369 60,88.2187403" id="Fill-59" fill="#79D86F"></path>
                    <path d="M116.576254,26.199366 C108.011438,23.7860562 96.8767208,27.8091923 96.0216086,37.4667206 C95.1649748,52.7572112 120.004311,51.9508684 130.280873,47.9277323 C126.855859,49.5375586 126.855859,51.1473849 124.285958,53.5606947 C133.707408,59.1950868 156.831955,60 167.96515,60 C186.80805,59.1950868 191.089697,41.4898567 169.676896,40.6849435 C166.251883,32.6372416 151.692152,29.417589 143.125814,31.0274153 C141.414068,22.1762299 117.432888,14.9334411 113.149719,24.5909694" id="Fill-61" fill="#DDDDDD"></path>
                    <path d="M126.095151,40.8368645 C107.153887,40.8368645 107.153887,63.1266836 126.997269,63.98416 C162.173445,64.8416365 135.114724,30.5501929 114.370827,42.5502944" id="Fill-63" fill="#DDDDDD"></path>
                    <path d="M78.2130375,80.0923288 C70.3211986,74.6979754 58.0441394,72 49.2752564,72 C36.9981972,72.8993251 26.4767839,85.4866822 44.0145498,85.4866822 C29.1063583,81.8893816 28.230872,98.0756366 40.5048157,103.46999 C48.3966545,107.065693 63.304846,105.26864 71.1951271,103.46999 C70.3211986,103.46999 68.5671105,105.26864 67.6885086,105.26864 C77.3359934,111.562319 130.82322,107.065693 115.918144,90.8826329 C125.564071,90.8826329 125.564071,84.587357 121.180408,78.2936785 C117.670674,74.6979754 104.519686,73.7986503 99.2574219,72.8993251 C90.4869812,72 80.8426119,71.1006749 72.9507731,75.5957031" id="Fill-65" fill="#999999"></path>
                    <path d="M124,245.94632 C124,245.94632 82.1959027,224.323618 91.0904923,188.865031 L84.8647536,188 C84.8647536,188 75.080547,226.918711 121.334309,252 L124,245.94632 Z" id="Fill-67" fill="#222222"></path>
                    <path d="M88,212.888721 C88,212.888721 67.4133138,212.040054 63.2948061,188.281884 L60,188 C60,188 64.6671544,213.453997 87.7264082,216 L88,212.888721 Z" id="Fill-69" fill="#222222"></path>
                    <path d="M79.5085504,180.682936 C65.5057474,167.446841 48,186.473543 67.2549316,186.473543 C56.752052,180.682936 38.3739561,186.473543 54.1274982,194.74647 C61.1288997,198.883668 69.0056707,194.74647 75.1317027,196.401349 C79.5085504,197.228789 84.7576579,200.537077 89.1329508,202.191956 C118.017036,211.292322 99.6373853,183.163785 77.7562565,181.508906" id="Fill-71" fill="#666666"></path>
                    <path d="M101.663016,180.280695 C85.11339,177.783324 82.4980106,192.77199 99.9204616,192.77199 C101.663016,191.939039 97.3066297,193.60494 96.4368999,193.60494 C99.0507319,212.759837 127.79824,182.779546 99.9204616,182.779546" id="Fill-73" fill="#999999"></path>
                    <path d="M172,155.033494 C172,155.033494 198.565309,146.757455 199.773555,128 L204,130.205376 C204,130.205376 202.791755,150.068459 172.606536,160 L172,155.033494 Z" id="Fill-75" fill="#222222"></path>
                    <path d="M198.142504,136.952961 C198.142504,136.952961 211.857877,134.66802 216.141362,124.762098 L220,124 C220,124 215.287101,137.333333 196,140 L198.142504,136.952961 Z" id="Fill-77" fill="#222222"></path>
                    <path d="M90.5390703,163.986497 C90.5390703,163.986497 77.4310925,169.843355 67.0535796,156 L64,156.002838 C64,156.002838 76.3365778,175.168159 96,165.052025 L90.5390703,163.986497 Z" id="Fill-79" fill="#222222"></path>
                    <path d="M100,232.706145 C100,232.706145 110.65968,227.059774 107.415501,212 L111.124075,212.94134 C111.124075,212.94134 115.758146,231.29497 103.708574,236 L100,232.706145 Z" id="Fill-81" fill="#222222"></path>
                    <path d="M118.759128,216 C118.759128,216 114.621906,222.782206 109.240872,223.823911 L108,228 C108,228 115.03357,226.433735 120,218.087118 L118.759128,216 Z" id="Fill-83" fill="#222222"></path>
                    <path d="M116,364.737634 C111.278843,362.98233 104.195535,358.301001 98.8846271,360.642445 C92.3926434,362.98233 87.0817352,372.341872 80,375.266339 C86.4904111,378.776946 121.902232,368.831264 114.820497,363.566912" id="Fill-85" fill="#222222"></path>
                    <path d="M228,124.130346 C220.052521,122.374414 212.105043,117.101935 203.272768,114.467257 C189.144265,110.95227 170.601194,123.253161 190.029061,124.130346 C174.132535,122.374414 166.186625,116.22475 151.173327,112.709763 C134.395142,108.317592 122.916322,125.887839 137.926483,122.374414 C130.862232,114.467257 103.488454,110.073524 99.0723168,125.009093 C112.319161,124.130346 99.9555443,117.101935 93.7729518,114.467257 C84.0605869,111.831017 78.7612219,117.101935 69.9320845,118.859428 C65.5175158,119.738175 54.037127,115.346003 52.2691033,120.616921 C49.6209895,127.645333 67.282402,129.402826 71.6969707,129.402826 C62.8662645,145.217141 96.4242031,146.095888 104.371682,139.065915 C115.852071,154.003045 126.447663,146.095888 140.577734,144.338395 C146.758758,143.459648 152.058123,146.095888 158.237578,146.095888 C167.951512,146.095888 169.717967,141.702155 177.665445,139.065915 C179.430331,138.187169 180.315128,133.794997 182.96481,132.916251 C185.612924,132.037504 188.261038,137.308422 190.909151,136.431237 C197.97654,136.431237 201.507881,137.308422 207.688905,134.673744 C214.753156,132.037504 224.46709,127.645333 228,125.009093" id="Fill-181" fill="#666666"></path>
                    <path d="M114.167111,105.057448 C112.445629,118.264403 120.183897,127.069561 133.942005,125.308217 C124.483783,133.232702 145.12171,135.874719 152,135.874719 C142.538723,135.874719 114.167111,137.636064 110.727202,127.950233 C99.5505532,130.59225 73.7542909,123.548437 88.3723766,108.578573 C79.7741316,95.371618 109.007248,90.0891489 111.58718,105.057448" id="Fill-183" fill="#999999"></path>
                </g>
                <g id="house" transform="translate(0.000000, 38.000000)" fill-rule="nonzero">
                    <polygon id="Path" fill="#E9EAEF" points="468.698 149.882 468.698 367.621 183.04 367.621 183.04 149.882 326.674 10.549"></polygon>
                    <polyline id="Path" fill="#888888" points="398.802 73.006 398.802 32.786 470.217 32.786 470.217 141.017"></polyline>
                    <polyline id="Path" fill="#757575" points="398.802 73.006 398.802 32.786 415.953 32.786 415.953 141.017"></polyline>
                    <g id="Group" transform="translate(0.000000, 321.000000)" fill="#646464">
                        <path d="M354.204,0.996 L497.341,0.996 C505.437,0.996 512.001,7.559 512.001,15.656 L512.001,46.623 L339.544,46.623 L339.544,15.656 C339.544,7.559 346.107,0.996 354.204,0.996 Z" id="Path"></path>
                        <path d="M14.66,0.996 L180.686,0.996 C188.782,0.996 195.346,7.559 195.346,15.656 L195.346,46.623 L0,46.623 L0,15.656 C0,7.559 6.563,0.996 14.66,0.996 Z" id="Path"></path>
                    </g>
                    <polygon id="Path" fill="#D2D4D8" points="468.698 158.43 468.698 199.129 325.869 62.757 183.04 199.129 183.04 158.43 314.525 33.203 325.869 22.666 337.204 33.203"></polygon>
                    <polygon id="Path" fill="#F44336" points="325.865 40.108 163.246 195.368 140.507 176.279 314.527 10.549 325.865 0.017 337.205 10.549 511.225 176.279 488.486 195.368"></polygon>
                    <rect id="Rectangle" fill="#424240" x="217.982" y="204.486" width="94.204" height="163.132"></rect>
                    <path d="M318.972,367.621 L305.415,367.621 L305.415,211.262 L224.765,211.262 L224.765,367.621 L211.209,367.621 L211.209,204.484 C211.209,200.74 214.243,197.706 217.987,197.706 L312.194,197.706 C315.938,197.706 318.972,200.74 318.972,204.484 L318.972,367.621 L318.972,367.621 Z" id="Path" fill="#212121"></path>
                    <rect id="Rectangle" fill="#E5E5E5" x="339.549" y="204.486" width="107.281" height="94.204"></rect>
                    <rect id="Rectangle" fill="#424242" x="339.549" y="204.486" width="107.281" height="28.626"></rect>
                    <g id="Group" transform="translate(270.000000, 197.000000)" fill="#212121">
                        <path d="M176.822,108.47 L69.544,108.47 C65.8,108.47 62.766,105.436 62.766,101.692 L62.766,7.486 C62.766,3.742 65.8,0.708 69.544,0.708 L176.823,0.708 C180.567,0.708 183.601,3.742 183.601,7.486 L183.601,101.692 C183.601,105.434 180.566,108.47 176.822,108.47 Z M76.322,94.914 L170.045,94.914 L170.045,14.264 L76.322,14.264 L76.322,94.914 Z" id="Shape"></path>
                        <path d="M21.023,95.308 L7.349,95.308 C3.605,95.308 0.571,92.274 0.571,88.53 C0.571,84.786 3.605,81.752 7.349,81.752 L21.023,81.752 C24.767,81.752 27.801,84.786 27.801,88.53 C27.801,92.274 24.766,95.308 21.023,95.308 Z" id="Path"></path>
                    </g>
                    <circle id="Oval" fill="#424242" cx="325.868" cy="131.69" r="26.205"></circle>
                    <rect id="Rectangle" fill="#212121" x="339.549" y="226.332" width="107.281" height="13.556"></rect>
                    <path d="M325.869,164.679 C307.68,164.679 292.882,149.881 292.882,131.692 C292.882,113.503 307.679,98.705 325.869,98.705 C344.059,98.705 358.857,113.503 358.857,131.692 C358.856,149.881 344.058,164.679 325.869,164.679 Z M325.869,112.261 C315.156,112.261 306.438,120.978 306.438,131.692 C306.438,142.406 315.155,151.123 325.869,151.123 C336.583,151.123 345.301,142.406 345.301,131.692 C345.301,120.978 336.583,112.261 325.869,112.261 Z" id="Shape" fill="#F44336"></path>
                </g>
            </g>
        </g>
    </g>
</svg>