<?xml version="1.0" encoding="UTF-8"?>
<svg width="20px" height="17px" viewBox="0 0 20 17" version="1.1" xmlns="http://www.w3.org/2000/svg" xmlns:xlink="http://www.w3.org/1999/xlink">
    <!-- Generator: Sketch 55.2 (78181) - https://sketchapp.com -->
    <title>“</title>
    <desc>Created with Sketch.</desc>
    <g id="Page-1" stroke="none" stroke-width="1" fill="none" fill-rule="evenodd">
        <g id="homelink-copy" transform="translate(-3.000000, -2118.000000)" fill="rgba(0,0,0,.05)" fill-rule="nonzero">
            <path d="M21.224635,2118.65625 L21.224635,2120.96875 C20.4954647,2121.36459 19.9485952,2122.07812 19.58401,2123.10938 C19.2194248,2124.14063 19.037135,2125.49999 19.037135,2127.1875 L19.037135,2127.90625 L22.005885,2127.90625 L22.005885,2134.84375 L15.068385,2134.84375 L15.068385,2129.65625 C15.068385,2126.5104 15.5787966,2124.02084 16.599635,2122.1875 C17.6204734,2120.35416 19.1621247,2119.17709 21.224635,2118.65625 Z M9.662135,2118.65625 L9.662135,2120.96875 C8.93296469,2121.36459 8.38609516,2122.07812 8.02151,2123.10938 C7.65692484,2124.14063 7.474635,2125.49999 7.474635,2127.1875 L7.474635,2127.90625 L10.443385,2127.90625 L10.443385,2134.84375 L3.505885,2134.84375 L3.505885,2129.65625 C3.505885,2126.5104 4.01629656,2124.02084 5.037135,2122.1875 C6.05797344,2120.35416 7.59962469,2119.17709 9.662135,2118.65625 Z" id="“"></path>
        </g>
    </g>
</svg>