<?xml version="1.0" encoding="UTF-8"?>
<svg width="191px" height="48px" viewBox="0 0 191 48" version="1.1" xmlns="http://www.w3.org/2000/svg" xmlns:xlink="http://www.w3.org/1999/xlink">
    <!-- Generator: Sketch 55.2 (78181) - https://sketchapp.com -->
    <title>carbos</title>
    <desc>Created with Sketch.</desc>
    <g id="Page-1" stroke="none" stroke-width="1" fill="none" fill-rule="evenodd">
        <g id="homelink-copy" transform="translate(-18.000000, -17.000000)" fill="#000000" fill-rule="nonzero">
            <path d="M43.17931,58.944 L43.17931,62.528 C42.6246406,62.8266682 42.0699794,63.1039987 41.51531,63.36 C39.4672998,64.2986714 37.2273222,64.768 34.79531,64.768 C32.3632978,64.768 30.1339868,64.3093379 28.10731,63.392 C26.0806332,62.4746621 24.3206508,61.2480077 22.82731,59.712 C21.3339692,58.1759923 20.1713142,56.3840102 19.33931,54.336 C18.5073058,52.2879898 18.09131,50.1120115 18.09131,47.808 L18.09131,47.68 C18.09131,45.3759885 18.5073058,43.2000102 19.33931,41.152 C20.1713142,39.1039898 21.3446358,37.2906746 22.85931,35.712 C24.3739842,34.1333254 26.1552998,32.8853379 28.20331,31.968 C30.2513202,31.0506621 32.4912978,30.592 34.92331,30.592 C37.3553222,30.592 39.5739666,31.0613286 41.57931,32 C42.1339794,32.2133344 42.6673074,32.4693318 43.17931,32.768 L43.17931,36.544 C42.2406386,35.7759962 41.1953158,35.1360026 40.04331,34.624 C38.4219686,33.898663 36.6726527,33.536 34.79531,33.536 C32.8753004,33.536 31.0939849,33.9093296 29.45131,34.656 C27.8086351,35.4026704 26.4006492,36.405327 25.22731,37.664 C24.0539708,38.922673 23.1366466,40.4053248 22.47531,42.112 C21.8139734,43.8186752 21.48331,45.6319904 21.48331,47.552 L21.48331,47.68 C21.48331,49.6426765 21.8246399,51.4879914 22.50731,53.216 C23.1899801,54.9440086 24.1393039,56.4479936 25.35531,57.728 C26.5713161,59.0080064 28.0006351,60.010663 29.64331,60.736 C31.2859849,61.461337 33.0459673,61.824 34.92331,61.824 C36.8433196,61.824 38.6353017,61.4400038 40.29931,60.672 C41.365982,60.2026643 42.3259724,59.6266701 43.17931,58.944 Z M72.38754,50.304 L72.38754,46.784 C71.6195362,46.784 70.7768779,46.7733334 69.85954,46.752 C68.9422021,46.7306666 68.046211,46.72 67.17154,46.72 L63.93954,46.72 C61.1661928,46.72 58.7662168,46.9013315 56.73954,47.264 C54.7128632,47.6266685 53.1448789,48.4053274 52.03554,49.6 C51.6088712,50.0266688 51.2568747,50.6239962 50.97954,51.392 C50.7022053,52.1600038 50.5208738,53.0026621 50.43554,53.92 C50.3502062,54.8373379 50.4675384,55.7546621 50.78754,56.672 C51.1075416,57.5893379 51.5982034,58.4319962 52.25954,59.2 C52.9208766,59.9680038 53.9128667,60.5973309 55.23554,61.088 C56.5582133,61.5786691 58.1368642,61.824 59.97154,61.824 C61.2088795,61.824 62.3502014,61.7173344 63.39554,61.504 C64.4408786,61.2906656 65.3475362,61.013335 66.11554,60.672 C66.8835438,60.330665 67.5875368,59.9466688 68.22754,59.52 C68.8675432,59.0933312 69.3902046,58.6346691 69.79554,58.144 C70.2008754,57.6533309 70.5528718,57.1626691 70.85154,56.672 C71.1502082,56.1813309 71.3848725,55.7120022 71.55554,55.264 C71.7262075,54.8159978 71.8648728,54.421335 71.97154,54.08 C72.0782072,53.738665 72.1528731,53.472001 72.19554,53.28 L72.25954,52.992 C72.3022069,52.992 72.3448731,52.096009 72.38754,50.304 Z M50.11554,33.728 C53.5715573,31.8506573 57.432852,30.912 61.69954,30.912 C70.7875854,30.912 75.33154,35.4986208 75.33154,44.672 L75.33154,64 L72.25954,64 L72.25954,58.56 L72.06754,58.752 C71.9822062,58.9226675 71.8328744,59.1253322 71.61954,59.36 C71.4062056,59.5946678 71.1608747,59.8719984 70.88354,60.192 C70.6062053,60.5120016 70.2542088,60.8533315 69.82754,61.216 C69.4008712,61.5786685 68.9422091,61.9413315 68.45154,62.304 C67.9608709,62.6666685 67.3955432,63.0079984 66.75554,63.328 C66.1155368,63.6480016 65.4542101,63.9253322 64.77154,64.16 C64.0888699,64.3946678 63.3208776,64.5866659 62.46754,64.736 C61.6142024,64.8853341 60.7395445,64.96 59.84354,64.96 C55.8328533,64.96 52.7075512,63.9146771 50.46754,61.824 C48.2275288,59.7333229 47.10754,57.1306822 47.10754,54.016 C47.10754,51.0293184 48.3768606,48.5866762 50.91554,46.688 C53.4542194,44.7893238 56.7715195,43.84 60.86754,43.84 L72.19554,43.84 C72.19554,38.847975 70.2542261,35.6906733 66.37154,34.368 C65.1768674,33.9839981 63.8435474,33.792 62.37154,33.792 C60.8995326,33.792 59.5448795,33.8666659 58.30754,34.016 C57.0702005,34.1653341 56.0462107,34.3679987 55.23554,34.624 C54.4248693,34.8800013 53.7635426,35.1253322 53.25154,35.36 C52.7395374,35.5946678 52.2808754,35.8399987 51.87554,36.096 C51.4702046,36.3520013 51.2462069,36.48 51.20354,36.48 L50.11554,33.728 Z M99.61177,34.304 C98.9290999,34.304 98.2144404,34.3466662 97.46777,34.432 C96.7210996,34.5173338 95.718443,34.826664 94.45977,35.36 C93.201097,35.893336 92.0597751,36.6079955 91.03577,37.504 C90.0117649,38.4000045 88.9984417,39.7653242 87.99577,41.6 C86.9930983,43.4346758 86.2571057,45.6106541 85.78777,48.128 L85.78777,64 L82.65177,64 L82.65177,31.36 L85.78777,31.36 L85.78777,40.384 C87.7504465,36.5866477 89.969091,34.0906726 92.44377,32.896 C94.7051146,31.6586605 97.0944241,30.9973338 99.61177,30.912 L99.61177,34.304 Z M110.004,41.664 L110.004,54.976 C111.497341,57.6640134 113.651986,59.6479936 116.468,60.928 C119.284014,62.2080064 122.227985,62.5493363 125.3,61.952 C128.372015,61.3546637 130.910657,59.8400122 132.916,57.408 C134.452008,55.5733242 135.401332,53.2906803 135.764,50.56 C136.126668,47.8293197 135.93467,45.2160125 135.188,42.72 C134.44133,40.2239875 133.07601,38.0906755 131.092,36.32 C129.10799,34.5493245 126.75068,33.664 124.02,33.664 C122.185324,33.664 120.521341,33.834665 119.028,34.176 C117.534659,34.517335 116.350671,34.9119978 115.476,35.36 C114.601329,35.8080022 113.780004,36.4053296 113.012,37.152 C112.243996,37.8986704 111.721335,38.4853312 111.444,38.912 C111.166665,39.3386688 110.857335,39.9039965 110.516,40.608 C110.174665,41.3120035 110.004,41.664 110.004,41.664 Z M106.804,17.28 L110.004,17.28 L110.004,38.272 C110.516003,37.546663 111.11333,36.8320035 111.796,36.128 C112.47867,35.4239965 113.406661,34.6133379 114.58,33.696 C115.753339,32.7786621 117.171992,32.0320029 118.836,31.456 C120.500008,30.8799971 122.249324,30.592 124.084,30.592 C127.241349,30.592 130.046654,31.487991 132.5,33.28 C134.953346,35.072009 136.766661,37.4186522 137.94,40.32 C139.113339,43.2213478 139.572001,46.3359834 139.316,49.664 C139.102666,52.0533453 138.452005,54.2506566 137.364,56.256 C136.275995,58.2613434 134.953341,59.8719939 133.396,61.088 C131.838659,62.3040061 130.174676,63.2533299 128.404,63.936 C126.633324,64.6186701 124.894675,64.96 123.188,64.96 C120.670654,64.96 118.142679,64.1493414 115.604,62.528 C113.065321,60.9066586 111.198673,59.200009 110.004,57.408 L110.004,64 L106.804,64 L106.804,17.28 Z M163.59623,61.824 C165.51624,61.824 167.297555,61.4506704 168.94023,60.704 C170.582905,59.9573296 171.990891,58.954673 173.16423,57.696 C174.337569,56.437327 175.254893,54.9546752 175.91623,53.248 C176.577567,51.5413248 176.90823,49.7280096 176.90823,47.808 L176.90823,47.68 C176.90823,45.7173235 176.5669,43.8720086 175.88423,42.144 C175.20156,40.4159914 174.252236,38.9120064 173.03623,37.632 C171.820224,36.3519936 170.390905,35.349337 168.74823,34.624 C167.105555,33.898663 165.345573,33.536 163.46823,33.536 C161.54822,33.536 159.766905,33.9093296 158.12423,34.656 C156.481555,35.4026704 155.073569,36.405327 153.90023,37.664 C152.726891,38.922673 151.809567,40.4053248 151.14823,42.112 C150.486893,43.8186752 150.15623,45.6319904 150.15623,47.552 L150.15623,47.68 C150.15623,49.6426765 150.49756,51.4879914 151.18023,53.216 C151.8629,54.9440086 152.812224,56.4479936 154.02823,57.728 C155.244236,59.0080064 156.673555,60.010663 158.31623,60.736 C159.958905,61.461337 161.718887,61.824 163.59623,61.824 Z M163.46823,64.768 C161.036218,64.768 158.806907,64.3093379 156.78023,63.392 C154.753553,62.4746621 152.993571,61.2480077 151.50023,59.712 C150.006889,58.1759923 148.844234,56.3840102 148.01223,54.336 C147.180226,52.2879898 146.76423,50.1120115 146.76423,47.808 L146.76423,47.68 C146.76423,45.3759885 147.180226,43.2000102 148.01223,41.152 C148.844234,39.1039898 150.017556,37.2906746 151.53223,35.712 C153.046904,34.1333254 154.82822,32.8853379 156.87623,31.968 C158.92424,31.0506621 161.164218,30.592 163.59623,30.592 C166.028242,30.592 168.257553,31.0506621 170.28423,31.968 C172.310907,32.8853379 174.070889,34.1119923 175.56423,35.648 C177.057571,37.1840077 178.220226,38.9759898 179.05223,41.024 C179.884234,43.0720102 180.30023,45.2479885 180.30023,47.552 L180.30023,47.68 C180.30023,49.9840115 179.884234,52.1599898 179.05223,54.208 C178.220226,56.2560102 177.046904,58.0693254 175.53223,59.648 C174.017556,61.2266746 172.23624,62.4746621 170.18823,63.392 C168.14022,64.3093379 165.900242,64.768 163.46823,64.768 Z M205.92446,36.928 C205.625792,36.7146656 205.209796,36.4586682 204.67646,36.16 C204.143124,35.8613318 203.119134,35.4240029 201.60446,34.848 C200.089786,34.2719971 198.660467,33.888001 197.31646,33.696 C195.972453,33.503999 194.521801,33.6319978 192.96446,34.08 C191.407119,34.5280022 190.116465,35.4346598 189.09246,36.8 C188.196456,38.4640083 188.079123,39.9039939 188.74046,41.12 C189.401797,42.3360061 190.489786,43.2213306 192.00446,43.776 C193.519134,44.3306694 195.257784,44.9493299 197.22046,45.632 C199.183136,46.3146701 201.028451,46.9866634 202.75646,47.648 C204.484469,48.3093366 205.892455,49.3333264 206.98046,50.72 C208.068465,52.1066736 208.505794,53.7813235 208.29246,55.744 C208.036459,58.3466797 207.108468,60.3839926 205.50846,61.856 C203.90846,63.3280074 202.031137,64.1813322 199.87646,64.416 C197.721783,64.6506678 195.535138,64.597335 193.31646,64.256 C191.097782,63.914665 189.124469,63.3600038 187.39646,62.592 C185.668451,61.8239962 184.505796,61.0560038 183.90846,60.288 L185.44446,57.536 C185.871129,57.8346682 186.45779,58.2186643 187.20446,58.688 C187.95113,59.1573357 189.337783,59.7866627 191.36446,60.576 C193.391137,61.3653373 195.257785,61.76 196.96446,61.76 C199.737807,61.76 201.785787,61.1413395 203.10846,59.904 C204.431133,58.6666605 205.09246,57.0240102 205.09246,54.976 C205.09246,53.7813274 204.505799,52.7040048 203.33246,51.744 C202.159121,50.7839952 200.825801,50.0480026 199.33246,49.536 C197.839119,49.0239974 195.940472,48.5120026 193.63646,48 C190.607112,47.3173299 188.292468,45.9840099 186.69246,44 C185.092452,42.0159901 184.676456,39.8080122 185.44446,37.376 C186.212464,34.9866547 187.780448,33.1946726 190.14846,32 C192.516472,30.8053274 195.023113,30.3999981 197.66846,30.784 C199.161801,30.9973344 200.729785,31.4133302 202.37246,32.032 C204.015135,32.6506698 205.284456,33.2159974 206.18046,33.728 L207.52446,34.496 L205.92446,36.928 Z" id="carbos"></path>
        </g>
    </g>
</svg>