<?xml version="1.0" encoding="UTF-8"?>
<svg viewBox="0 0 508 342" version="1.1" xmlns="http://www.w3.org/2000/svg" xmlns:xlink="http://www.w3.org/1999/xlink">
    <!-- Generator: Sketch 55.2 (78181) - https://sketchapp.com -->
    <title>Group 11</title>
    <desc>Created with Sketch.</desc>
    <defs>
        <linearGradient x1="0%" y1="48.7653073%" x2="9.89594051%" y2="48.6597365%" id="linearGradient-1">
            <stop stop-color="#FFF098" stop-opacity="0" offset="0%"></stop>
            <stop stop-color="#FFDD5F" offset="100%"></stop>
        </linearGradient>
        <linearGradient x1="90.9074473%" y1="47.5318019%" x2="102.135693%" y2="43.7472006%" id="linearGradient-2">
            <stop stop-color="#FFDD5F" offset="0%"></stop>
            <stop stop-color="#FFF098" stop-opacity="0" offset="100%"></stop>
        </linearGradient>
        <linearGradient x1="25.7603746%" y1="6.69487307%" x2="74.251691%" y2="93.3175709%" id="linearGradient-3">
            <stop stop-color="#FF5544" offset="0%"></stop>
            <stop stop-color="#FF4340" offset="10%"></stop>
            <stop stop-color="#FF1E38" offset="32%"></stop>
            <stop stop-color="#FF0833" offset="51%"></stop>
            <stop stop-color="#FF0031" offset="62%"></stop>
        </linearGradient>
        <linearGradient x1="74.2396254%" y1="6.69487307%" x2="25.748309%" y2="93.3175709%" id="linearGradient-4">
            <stop stop-color="#FF5544" offset="0%"></stop>
            <stop stop-color="#FF4340" offset="10%"></stop>
            <stop stop-color="#FF1E38" offset="33%"></stop>
            <stop stop-color="#FF0833" offset="51%"></stop>
            <stop stop-color="#FF0031" offset="62%"></stop>
        </linearGradient>
        <linearGradient x1="50%" y1="0%" x2="50%" y2="100.00995%" id="linearGradient-5">
            <stop stop-color="#4D4D4D" offset="0%"></stop>
            <stop stop-color="#3C3C3C" offset="13%"></stop>
            <stop stop-color="#2D2D2D" offset="30%"></stop>
            <stop stop-color="#252525" offset="51%"></stop>
            <stop stop-color="#222222" offset="83%"></stop>
        </linearGradient>
        <linearGradient x1="0%" y1="42.5532108%" x2="9.89594051%" y2="41.9164826%" id="linearGradient-6">
            <stop stop-color="#FFF098" stop-opacity="0" offset="0%"></stop>
            <stop stop-color="#FFDD5F" offset="100%"></stop>
        </linearGradient>
        <polygon id="path-7" points="0.0649588628 0.0844328057 42.3702443 0.0844328057 42.3702443 69.9420496 0.0649588628 69.9420496"></polygon>
        <polygon id="path-9" points="0.0615573772 0.0851451168 36.6088563 0.0851451168 36.6088563 13.2819917 0.0615573772 13.2819917"></polygon>
    </defs>
    <g id="Page-1" stroke="none" stroke-width="1" fill="none" fill-rule="evenodd">
        <g id="Artboard" transform="translate(-139.000000, -130.000000)">
            <g id="Group-11" transform="translate(139.000000, 130.000000)">
                <path id="Line-4-Copy-2" d="M318.070778,118.16882 C306.160126,114.231465 292.426562,111.002425 276.874499,108.488987 C239.958947,102.522901 200.893271,103.004091 159.664006,109.944502 L155.719504,110.608508 L154.391492,102.719504 L158.335994,102.055498 C200.404382,94.9738319 240.347157,94.4818381 278.150853,100.591461 C294.690958,103.264581 309.288239,106.741454 321.947606,111.030191 L330.833332,94.6683892 L359,135 L309.834711,133.334368 L318.070778,118.16882 Z" fill="url(#linearGradient-1)" fill-rule="nonzero"></path>
                <g id="Group-10">
                    <g id="factory" fill-rule="nonzero">
                        <g id="smokestack" transform="translate(113.324873, 55.170370)">
                            <path d="M15.4314721,0 L22.6649746,0 C24.7088856,0.0314924802 26.3735167,1.65747443 26.4601523,3.70706173 L33.6213198,132.762173 C33.6998572,133.826642 33.3370058,134.876428 32.6185143,135.663444 C31.9000229,136.45046 30.8896412,136.904878 29.8261421,136.919309 L8.42944162,136.919309 C7.36684473,136.904792 6.35727306,136.451036 5.63893568,135.665105 C4.92059831,134.879173 4.5571201,133.830678 4.63426396,132.767012 L11.6459391,3.71190123 C11.7298555,1.66408533 13.3895247,0.0366980833 15.4314721,0 Z" id="Shape" fill="#FF3131"></path>
                            <polygon id="Rectangle-path" fill="#FF5544" points="0.115736041 88.3064691 8.69949239 88.3064691 8.69949239 93.2282469 0.115736041 93.2282469"></polygon>
                            <path d="M19.2893401,0 L19.2893401,136.919309 L8.42944162,136.919309 C7.36684473,136.904792 6.35727306,136.451036 5.63893568,135.665105 C4.92059831,134.879173 4.5571201,133.830678 4.63426396,132.767012 L11.6459391,3.71190123 C11.7298555,1.66408533 13.3895247,0.0366980833 15.4314721,0 L19.2893401,0 Z" id="Combined-Shape" fill="#FF5544"></path>
                        </g>
                        <g id="right" transform="translate(73.299492, 117.600000)">
                            <path d="M24.2340082,11.1066667 L40.1411168,11.1066667 L40.1411168,70.4874074 L5.18883249,70.4874074 L5.18883249,22.102404 L24.2340082,11.1066667 Z" id="Combined-Shape" fill="#222222"></path>
                            <polygon id="Rectangle-path" fill="#000000" transform="translate(22.903795, 18.262429) rotate(-30.000000) translate(-22.903795, -18.262429) " points="0.868135041 15.8015402 44.9394548 15.8015402 44.9394548 20.723318 0.868135041 20.723318"></polygon>
                            <polygon id="Rectangle-path" fill="#FF5544" transform="translate(21.802548, 13.914669) rotate(-29.886527) translate(-21.802548, -13.914669) " points="-1.43889732 11.4453048 45.0439938 11.4453048 45.0439938 16.3840335 -1.43889732 16.3840335"></polygon>
                            <polygon id="Rectangle-path" fill="#999999" points="11.3180203 35.7203951 20.5142132 35.7203951 20.5142132 61.8730864 11.3180203 61.8730864"></polygon>
                            <polygon id="Rectangle-path" fill="#999999" points="25.7319797 35.7203951 34.9281726 35.7203951 34.9281726 61.8730864 25.7319797 61.8730864"></polygon>
                        </g>
                        <g id="center" transform="translate(38.578680, 117.600000)">
                            <path d="M24.7997226,11.1066667 L39.9096447,11.1066667 L39.9096447,70.4874074 L4.95736041,70.4874074 L4.95736041,22.5626598 L24.7997226,11.1066667 Z" id="Combined-Shape" fill="#444444"></path>
                            <polygon id="Rectangle-path" fill="#222222" transform="translate(22.672554, 18.262429) rotate(-30.000000) translate(-22.672554, -18.262429) " points="0.636893822 15.8015402 44.7082136 15.8015402 44.7082136 20.723318 0.636893822 20.723318"></polygon>
                            <polygon id="Rectangle-path" fill="#FF5544" transform="translate(21.432386, 13.914669) rotate(-29.886527) translate(-21.432386, -13.914669) " points="-1.80905975 11.4453048 44.6738313 11.4453048 44.6738313 16.3840335 -1.80905975 16.3840335"></polygon>
                            <polygon id="Rectangle-path" fill="#999999" points="10.7827411 35.7203951 19.978934 35.7203951 19.978934 61.8730864 10.7827411 61.8730864"></polygon>
                            <polygon id="Rectangle-path" fill="#999999" points="24.5794416 35.7203951 33.7756345 35.7203951 33.7756345 61.8730864 24.5794416 61.8730864"></polygon>
                        </g>
                        <g id="left" transform="translate(3.375635, 117.600000)">
                            <path d="M23.0864489,11.1066667 L40.1604061,11.1066667 L40.1604061,70.4874074 L5.20812183,70.4874074 L5.20812183,21.4287236 L23.0864489,11.1066667 Z" id="Combined-Shape" fill="#666666"></path>
                            <polygon id="Rectangle-path" fill="#444444" transform="translate(22.923546, 18.262429) rotate(-30.000000) translate(-22.923546, -18.262429) " points="0.887886104 15.8015402 44.9592059 15.8015402 44.9592059 20.723318 0.887886104 20.723318"></polygon>
                            <polygon id="Rectangle-path" fill="#FF5544" transform="translate(21.544457, 13.914669) rotate(-29.886527) translate(-21.544457, -13.914669) " points="-1.69698869 11.4453048 44.7859024 11.4453048 44.7859024 16.3840335 -1.69698869 16.3840335"></polygon>
                            <polygon id="Rectangle-path" fill="#999999" points="10.7296954 35.7203951 19.9258883 35.7203951 19.9258883 61.8730864 10.7296954 61.8730864"></polygon>
                            <polygon id="Rectangle-path" fill="#999999" points="23.6053299 35.7203951 32.8015228 35.7203951 32.8015228 61.8730864 23.6053299 61.8730864"></polygon>
                        </g>
                        <g id="extra" transform="translate(112.324873, 148.088889)">
                            <polygon id="Rectangle-path" fill="#222222" points="0.115736041 0.309728395 14.221066 0.309728395 14.221066 40.003358 0.115736041 40.003358"></polygon>
                            <polygon id="Rectangle-path" fill="#000000" points="0.115736041 0.309728395 14.221066 0.309728395 14.221066 5.23150617 0.115736041 5.23150617"></polygon>
                        </g>
                        <g id="ground" transform="translate(0.000000, 185.837037)">
                            <polygon id="Rectangle-path" fill="#000000" points="0 0.319407407 156.97665 0.319407407 156.97665 10.162963 0 10.162963"></polygon>
                            <polygon id="Rectangle-path" fill="#222222" points="0 0.319407407 78.4883249 0.319407407 78.4883249 10.162963 0 10.162963"></polygon>
                        </g>
                        <g id="smoke" transform="translate(93.553299, 0.000000)">
                            <ellipse id="Oval" fill="#E6E6E6" cx="75.4695431" cy="22.9876543" rx="20.9771574" ry="18.6320988"></ellipse>
                            <ellipse id="Oval" fill="#E6E6E6" cx="50.1522843" cy="8.95308642" rx="12.5380711" ry="8.95308642"></ellipse>
                            <ellipse id="Oval" fill="#E6E6E6" cx="17.3604061" cy="25.891358" rx="17.3604061" ry="13.308642"></ellipse>
                            <ellipse id="Oval" fill="#CCCCCC" cx="41.9543147" cy="37.2641975" rx="5.78680203" ry="5.80740741"></ellipse>
                            <ellipse id="Oval" fill="#CCCCCC" cx="21.7005076" cy="32.908642" rx="10.1269036" ry="10.162963"></ellipse>
                            <ellipse id="Oval" fill="#CCCCCC" cx="34.9619289" cy="37.0222222" rx="6.51015228" ry="7.50123457"></ellipse>
                            <ellipse id="Oval" fill="#CCCCCC" cx="43.642132" cy="27.3432099" rx="19.0482234" ry="9.43703704"></ellipse>
                            <ellipse id="Oval" fill="#CCCCCC" cx="54.4923858" cy="16.454321" rx="10.6091371" ry="10.6469136"></ellipse>
                            <ellipse id="Oval" fill="#CCCCCC" cx="47.0177665" cy="47.1851852" rx="3.13451777" ry="3.14567901"></ellipse>
                        </g>
                    </g>
                    <path id="Line-4-Copy" d="M116.77638,266.530765 C136.821779,303.465169 173.576857,315.998222 228.147332,304.091937 C300.640933,288.275151 356.175907,256.728657 394.906086,209.46471 L397.441377,206.370796 L403.629204,211.441377 L401.093914,214.53529 C361.157426,263.271343 304.025734,295.724849 229.852668,311.908063 C171.377986,324.666175 130.716786,310.369125 109.014194,268.977567 L91.2458347,274.578523 L99,226 L133.210319,261.350446 L116.77638,266.530765 Z" fill="url(#linearGradient-2)" fill-rule="nonzero"></path>
                    <g id="Group-9" transform="translate(229.000000, 257.000000)">
                        <circle id="Oval" stroke="#FFDD5F" stroke-width="6" fill="#FFFFFF" cx="41" cy="41" r="41"></circle>
                        <g id="molecules" transform="translate(5.000000, 7.000000)" fill-rule="nonzero">
                            <g id="CO2" transform="translate(25.360464, 22.060537) rotate(-26.000000) translate(-25.360464, -22.060537) translate(4.789035, 8.791306)">
                                <ellipse id="Oval" fill="url(#linearGradient-3)" cx="10.1855288" cy="13.1024639" rx="10.1855288" ry="10.3440505"></ellipse>
                                <ellipse id="Oval" fill="url(#linearGradient-4)" cx="30.5565863" cy="13.1024639" rx="10.1855288" ry="10.3440505"></ellipse>
                                <ellipse id="Oval" fill="url(#linearGradient-5)" cx="20.5974026" cy="13.1024639" rx="12.9016698" ry="13.1024639"></ellipse>
                            </g>
                            <g id="CO2-Copy-2" transform="translate(47.961755, 32.275094) rotate(14.000000) translate(-47.961755, -32.275094) translate(27.390326, 19.005863)">
                                <ellipse id="Oval" fill="url(#linearGradient-3)" cx="10.1855288" cy="13.1024639" rx="10.1855288" ry="10.3440505"></ellipse>
                                <ellipse id="Oval" fill="url(#linearGradient-4)" cx="30.5565863" cy="13.1024639" rx="10.1855288" ry="10.3440505"></ellipse>
                                <ellipse id="Oval" fill="url(#linearGradient-5)" cx="20.5974026" cy="13.1024639" rx="12.9016698" ry="13.1024639"></ellipse>
                            </g>
                            <g id="CO2-Copy" transform="translate(28.483914, 45.946342) rotate(2.000000) translate(-28.483914, -45.946342) translate(7.912485, 32.677111)">
                                <ellipse id="Oval" fill="url(#linearGradient-3)" cx="10.1855288" cy="13.1024639" rx="10.1855288" ry="10.3440505"></ellipse>
                                <ellipse id="Oval" fill="url(#linearGradient-4)" cx="30.5565863" cy="13.1024639" rx="10.1855288" ry="10.3440505"></ellipse>
                                <ellipse id="Oval" fill="url(#linearGradient-5)" cx="20.5974026" cy="13.1024639" rx="12.9016698" ry="13.1024639"></ellipse>
                            </g>
                        </g>
                    </g>
                </g>
                <g id="notes" transform="translate(216.000000, 62.000000)">
                    <circle id="Oval" stroke="#FFDD5F" stroke-width="5" fill="#FFFFFF" cx="41" cy="41" r="41"></circle>
                    <rect id="XMLID_115_" fill="#424242" fill-rule="nonzero" x="13" y="28" width="56" height="32"></rect>
                    <polygon id="XMLID_114_" fill="#656565" fill-rule="nonzero" points="65 28 15 28 15 24"></polygon>
                    <path d="M54,44 C54,51.18 48.18,57 41,57 C33.82,57 28,51.18 28,44 C28,36.82 33.82,31 41,31 C48.18,31 54,36.82 54,44" id="XMLID_79_" fill="#212121" fill-rule="nonzero"></path>
                    <path d="M34.094,55 C30.438,52.699 28,48.639 28,44 C28,39.361 30.438,35.301 34.094,33 L23.975,33 C23.99,33.165 24,33.331 24,33.5 C24,36.538 21.537,39 18.5,39 C18.331,39 18.165,38.99 18,38.975 L18,49.025 C18.165,49.01 18.331,49 18.5,49 C21.537,49 24,51.462 24,54.5 C24,54.669 23.99,54.835 23.975,55 L34.094,55 Z" id="XMLID_112_" fill="#E5E5E5" fill-rule="nonzero"></path>
                    <path d="M63.5,39 C60.462,39 58,36.538 58,33.5 C58,33.331 58.01,33.165 58.025,33 L47.906,33 C51.562,35.301 54,39.361 54,44 C54,48.639 51.562,52.699 47.906,55 L58.025,55 C58.01,54.835 58,54.669 58,54.5 C58,51.462 60.462,49 63.5,49 C63.669,49 63.835,49.01 64,49.025 L64,38.975 C63.835,38.99 63.669,39 63.5,39" id="XMLID_111_" fill="#E5E5E5" fill-rule="nonzero"></path>
                    <path d="M18.5,36 C17.121,36 16,34.879 16,33.5 C16,32.121 17.121,31 18.5,31 C19.879,31 21,32.121 21,33.5 C21,34.879 19.879,36 18.5,36" id="XMLID_110_" fill="#E5E5E5" fill-rule="nonzero"></path>
                    <path d="M63.5,36 C62.121,36 61,34.879 61,33.5 C61,32.121 62.121,31 63.5,31 C64.879,31 66,32.121 66,33.5 C66,34.879 64.879,36 63.5,36" id="XMLID_109_" fill="#E5E5E5" fill-rule="nonzero"></path>
                    <path d="M18.5,57 C17.121,57 16,55.879 16,54.5 C16,53.121 17.121,52 18.5,52 C19.879,52 21,53.121 21,54.5 C21,55.879 19.879,57 18.5,57" id="XMLID_108_" fill="#E5E5E5" fill-rule="nonzero"></path>
                    <path d="M63.5,57 C62.121,57 61,55.879 61,54.5 C61,53.121 62.121,52 63.5,52 C64.879,52 66,53.121 66,54.5 C66,55.879 64.879,57 63.5,57" id="XMLID_107_" fill="#E5E5E5" fill-rule="nonzero"></path>
                    <polygon id="XMLID_106_" fill="#656565" fill-rule="nonzero" points="18 20 18 24.24 65 28 68 28"></polygon>
                    <path d="M46.568,47.025 C47.278,46.805 47.8,46.149 47.8,45.369 L47.8,44.499 C47.8,43.832 47.416,43.256 46.862,42.964 C46.478,39.69 44.314,38.365 40.835,38.365 C40.671,38.365 40.509,38.371 40.351,38.384 C39.168,38.478 37.972,38.256 36.989,37.593 C36.58,37.317 36.236,37.025 35.994,36.717 C35.883,36.577 35.662,36.666 35.683,36.844 C35.718,37.148 35.769,37.504 35.847,37.892 C36.134,39.337 35.962,39.126 35.403,40.49 C35.094,41.244 34.895,42.081 34.802,42.967 C34.252,43.261 33.87,43.834 33.87,44.499 L33.87,45.369 C33.87,46.149 34.393,46.805 35.102,47.025 C35.573,48.787 36.54,50.196 38.223,50.921 L38.223,51.918 C38.223,52.173 38.078,52.405 37.85,52.518 L34.489,54.174 C34.198,54.332 33.958,54.549 33.744,54.788 C35.816,56.184 38.313,57 41,57 C43.587,57 45.992,56.235 48.017,54.932 C47.768,54.63 47.455,54.378 47.091,54.196 L43.812,52.52 C43.588,52.406 43.447,52.176 43.447,51.925 L43.447,50.921 C45.13,50.196 46.097,48.787 46.568,47.025" id="XMLID_105_" fill="#E5E5E5" fill-rule="nonzero"></path>
                </g>
                <path id="Line-4" d="M355.389722,50.7321815 C342.701746,37.961196 327.458337,28.3072693 309.62073,21.754679 C277.81954,10.0726091 243.901697,10.0421554 207.728194,21.7129482 L203.921419,22.9411425 L201.46503,15.3275916 L205.271806,14.0993974 C243.098303,1.89529314 278.847127,1.92739085 312.37927,14.245321 C331.801257,21.3799284 348.39763,32.0287592 362.126485,46.1748171 L377.567917,35.7288168 L384,84.5 L341.123804,60.3829563 L355.389722,50.7321815 Z" fill="url(#linearGradient-6)" fill-rule="nonzero"></path>
                <g id="Group-13" transform="translate(380.000000, 94.000000)">
                    <g id="tree-greyscale-copy-2" transform="translate(2.495127, 0.000000)">
                        <path d="M32.1166214,92.644665 C25.8839867,91.8788127 18.5390311,93.6013003 12.9746589,96.4729064 C17.6489372,95.5159311 21.2101038,94.9415418 24.9934973,94.5586157 C26.1070045,94.5586157 36.7905043,94.1760296 31.4487544,92.453202" id="Fill-1" fill="#222222"></path>
                        <path d="M28.4719255,49.0797265 C27.1683567,47.7629294 20.8670665,44.9098038 22.1710213,48.2019917 C20.2150891,47.7629294 17.1729139,46.226601 15.2177537,46.6656634 C12.6102301,47.1043358 12.1755785,48.4215229 15.2177537,49.5187889 C12.6102301,49.0797265 10.4373582,47.1043358 8.04716036,46.226601 C7.39556897,49.9574613 11.9586388,52.3719145 15.2177537,52.1527732 C15.4350795,52.1527732 15.4350795,52.1527732 15.2177537,52.1527732 C12.3929043,53.2500392 19.7804375,56.5422271 22.3879611,54.3476951 C22.1710213,57.4203519 29.7758803,58.0789454 32.1660781,56.3230859 C34.9909275,54.3476951 34.3385641,50.3965237 30.8621233,49.5187889 C31.0798351,49.5187889 31.7310405,49.7383201 31.9487523,49.7383201 C31.2967749,47.9824605 29.1239029,48.2019917 27.6026223,48.8605853" id="Fill-3" fill="#666666"></path>
                        <path d="M21.8520773,54.3535891 C19.9063331,54.3535891 16.8782111,54.1241806 15.5802798,55.9618974 C13.2011234,59.8679641 18.3916958,59.6385556 20.7712364,59.1789223 C19.4733051,59.1789223 18.3916958,59.6385556 17.9594362,60.7872307 C20.1218865,61.9359058 31.1523812,61.246864 30.9364435,57.8000224 C30.7197374,55.2728557 23.1500086,53.8939558 21.2034959,54.3535891" id="Fill-5" fill="#666666"></path>
                        <path d="M21.2766233,36.0153065 C18.9343214,34.417868 16.2998656,35.434455 14.2504978,37.1770096 C11.176836,33.8370164 5.46832841,29.4804363 1.36998271,33.8370164 C-3.314231,38.9195643 5.17539441,42.5497897 9.42001208,42.1144413 C8.68865221,48.6493115 15.7143877,50.1008599 20.6915354,50.5369823 C25.228697,50.9723307 29.0348888,53.1506208 33.8642044,51.8438015 C33.4253884,51.8438015 32.9865725,51.6986854 32.5477566,51.6986854 C34.3038004,51.26295 35.9139623,51.4080661 37.6703962,50.9723307 C39.133896,50.6820984 40.597786,49.3752792 42.2075578,49.2297761 C44.8427937,48.9395438 48.5019334,49.6655115 50.8438452,49.6655115 C54.210441,49.6655115 58.8942647,49.0846599 55.9668749,45.0186991 C55.6743309,44.5829636 54.796309,44.5829636 54.5037651,44.1472282 C54.210441,43.4216475 54.796309,42.2595574 54.796309,41.5335897 C54.650037,39.7906481 54.064169,38.3387127 52.4540071,37.612358 C52.6002791,33.8370164 48.5019334,31.8038425 45.1353376,33.2561649 C43.3789038,30.7876425 41.0369919,29.4804363 37.9629401,29.189817 C35.4743663,28.8995848 33.1328445,30.0612879 30.9375947,29.7710556 C27.8635429,29.3353202 25.667513,28.1736171 23.4722632,31.2233779 C22.4479693,32.5301972 22.5942413,35.2893388 21.4228953,36.0153065" id="Fill-7" fill="#999999"></path>
                        <path d="M15.505606,35.7766077 C14.4511071,36.0054976 13.6072083,36.6933892 12.9746589,37.610578 C14.6620819,37.610578 18.669852,36.9226864 18.2479025,39.6738455 C18.669852,39.6738455 19.0914267,39.4445483 19.5137508,39.4445483 C20.7788497,40.5910342 21.6231233,40.1324398 22.0446979,38.2980623 C23.9430956,39.9031426 30.4818129,41.5078157 30.904137,38.5273595 C31.5366865,33.7133402 23.5207715,33.0254486 21.2011738,35.7766077 C19.5137508,34.1719346 16.3491301,33.2547458 15.2946313,36.0054976" id="Fill-9" fill="#DDDDDD"></path>
                        <path d="M53.9688817,58.2561196 C51.8466977,61.1390642 57.7897932,62.0263665 59.6996834,60.695413 C61.8226215,61.1390642 63.7328888,60.0303303 64.3693931,57.8124684 L63.7328888,57.5906428 C66.4919542,57.8124684 66.2796603,55.8164321 64.7939807,54.264047 C63.7328888,53.1553131 61.1861172,53.1553131 59.6996834,53.3767447 C58.00171,53.5985703 50.3606411,54.9295238 53.756965,57.1469916 C53.3323773,58.034294 53.756965,58.034294 53.9688817,58.4775511" id="Fill-11" fill="#666666"></path>
                        <path d="M39.9746638,47.2217615 C40.8515456,46.5553291 42.3863809,45.2216749 43.4829701,45.2216749 C45.8950767,45.2216749 46.5530302,47.2217615 44.140534,48.5550209 C45.4560515,47.6663129 46.7719585,47.4440372 48.3071834,47.4440372 C47.6492299,48.7772966 46.5530302,49.8886752 45.4560515,50.7773832 C47.429912,51.4442103 50.4999722,51.4442103 51.8151001,49.4441238 C51.1575361,49.6663995 51.1575361,49.8886752 50.7185109,50.3332266 C51.8151001,50.9996589 53.1310071,51.2219346 54.2275962,51.2219346 C50.9382183,53.6665726 56.8586312,54.333005 58.6127843,53.6665726 C59.4900556,54.5556755 61.0245014,54.7779512 62.5601158,54.5556755 C60.8059626,55.8889349 61.9021623,58.3335729 63.8752437,58.5558487 C58.6127843,58.1112972 54.2275962,58.5558487 49.1840651,59.8891081 C47.2102046,60.3332647 38.2205107,61.2223676 40.1935921,57.2221944 C37.1243111,56.777643 31.2031191,53.8888484 35.370158,50.5551075 C35.370158,50.3332266 35.1504506,50.3332266 35.1504506,49.8886752 C36.4655785,48.9995723 37.7814855,48.3327452 39.3167103,48.1104695" id="Fill-13" fill="#666666"></path>
                        <g id="Group-17" transform="translate(16.966862, 30.147783)">
                            <mask id="mask-8" fill="white">
                                <use xlink:href="#path-7"></use>
                            </mask>
                            <g id="Clip-16"></g>
                            <path d="M10.4222239,0.193403292 C10.4222239,0.628125976 7.35854464,12.8088624 12.9020119,19.1894321 C12.9020119,19.1894321 13.0485678,24.5544897 14.6525192,26.5847412 C14.6525192,26.5847412 8.81749504,35.2849912 11.7353958,40.9402503 C11.7353958,40.9402503 12.9027894,41.955376 12.6104551,46.0154927 C12.6104551,46.0154927 10.7141694,60.6612033 8.08821421,65.1568155 C8.08821421,65.1568155 5.89998298,66.6070503 0.0649588628,66.7519579 C0.0649588628,66.7519579 2.10702293,67.4768821 4.58719974,67.187067 C4.58719974,67.187067 7.06698781,67.3319746 9.83872145,66.3172352 C9.83872145,66.3172352 11.8811743,66.1715548 13.6316815,67.041773 C13.6316815,67.041773 14.9448535,68.927117 16.9869176,68.927117 C16.9869176,68.927117 19.4667056,68.9267306 21.2172129,69.9422428 C21.2172129,69.9422428 19.1751488,68.0568988 17.57042,67.7670837 C17.57042,67.7670837 16.5495823,66.3168488 20.1963752,66.4621428 C20.1963752,66.4621428 21.801104,67.0421595 25.3021185,66.7519579 C25.3021185,66.7519579 28.2196305,66.3172352 30.6994186,67.4768821 C30.6994186,67.4768821 31.5748666,68.781823 37.2641123,68.6369155 C37.2641123,68.6369155 41.2028508,68.0568988 42.3702443,68.6369155 C42.3702443,68.6369155 39.3955871,66.5131502 35.0922082,67.0209063 L35.2220482,67.041773 C35.2220482,67.041773 32.8876498,66.6070503 30.9913642,64.8670004 C30.9913642,64.8670004 29.6781922,63.2718579 22.8215529,61.2416064 C22.8215529,61.2416064 18.5916464,57.6165988 20.3421536,53.1209866 C20.3421536,53.1209866 22.9681088,45.2909549 22.3842177,43.1157958 C22.3842177,43.1157958 21.801104,39.7806033 19.4667056,37.4601503 C17.132696,35.1400836 19.138607,37.2785328 19.138607,37.2785328 C19.138607,37.2785328 18.3723956,31.7322442 20.0136662,29.0133919 C20.0136662,29.0133919 22.2018975,21.1829737 21.9830355,19.1163987 C21.9830355,19.1163987 21.8905148,8.03889187 19.2645595,1.18727595 L14.5436713,0.301600938 C14.5436713,0.301600938 13.9963219,5.95724645 15.4187305,9.98103961 C15.4187305,9.98103961 16.8411391,15.3101601 16.0749278,19.2253692 C16.0749278,19.2253692 14.8713812,15.3101601 12.6831499,14.0048328 C12.6831499,14.0048328 9.62024819,9.43734644 11.5896174,0.0844328057 L10.4222239,0.193403292 Z" id="Fill-15" fill="#444444" mask="url(#mask-8)"></path>
                        </g>
                        <path d="M27.8377252,40.5083959 C27.8377252,40.5083959 23.8771105,42.0152809 22.1574453,39.1921182 L20.9590643,39.6849386 C20.9590643,39.6849386 24.6134007,42.9787677 27.9454191,42.0378528 L27.8377252,40.5083959 Z" id="Fill-18" fill="#222222"></path>
                        <path d="M37.9259259,43.4106014 C37.9259259,43.4106014 43.2053288,42.0178034 43.7655449,28.137931 L44.8471693,28.5712802 C44.8471693,28.5712802 46.0363797,41.8942643 38.2502211,46.226601 L37.9259259,43.4106014 Z" id="Fill-20" fill="#222222"></path>
                        <g id="Group-24" transform="translate(38.923977, 43.211823)">
                            <mask id="mask-10" fill="white">
                                <use xlink:href="#path-9"></use>
                            </mask>
                            <g id="Clip-23"></g>
                            <path d="M36.6088954,12.0656501 C35.5805216,9.27188641 33.3769752,9.12494933 30.7330327,9.86041839 C31.9078138,7.80134013 33.2301765,3.53742201 29.1170726,4.12556216 C28.6758935,1.91993865 27.7947099,0.596721273 25.2971746,0.155518204 C23.5348072,-0.138355954 21.1844621,0.449392362 21.478451,2.65501587 C20.0088981,2.65501587 16.924168,1.47873558 16.924168,3.83129617 C16.4833805,3.68435909 6.64082101,-1.75583932 8.55116147,2.80195295 C6.78761971,2.36114172 1.05894712,4.12556216 4.87806218,5.74304553 C3.11530336,5.8899826 1.64692486,8.53680919 3.8500798,9.12494933 C2.38091838,8.38987211 -0.556621536,9.41882349 0.17737198,11.6248388 C0.912148421,13.5358045 4.43766607,12.6537902 5.90643603,12.3595242 C6.93520134,12.0656501 7.96318373,11.4775099 8.99155757,11.1836358 C10.9015066,10.7424327 10.0199314,10.8893698 11.4887014,11.6248388 C13.9866281,12.8007273 15.0146105,13.6831334 17.9529333,13.0946015 C18.9813072,12.9476644 19.4217033,12.6537902 20.302887,12.5068531 C21.6252497,12.5068531 22.6536235,13.2419304 24.122785,12.8007273 C24.8567785,12.5068531 25.7375707,11.4775099 26.3259399,11.3305728 C27.0599334,11.3305728 28.0886987,12.0656501 28.6758935,12.2125872 C30.2922451,12.6537902 36.1681079,12.0656501 36.1681079,11.7717759" id="Fill-22" fill="#999999" mask="url(#mask-10)"></path>
                        </g>
                        <path d="M68.8060096,39.5678119 C68.0967236,36.9863391 67.1025883,34.7083786 64.5472672,33.9491933 C63.2694175,33.6452764 61.2822818,33.4935203 60.5726175,34.8605394 C59.0110534,34.1005448 55.8883035,31.9747451 54.6108321,34.2527056 C50.0683752,29.3932723 45.95149,42.4532015 51.7717965,40.7826702 C50.3520896,43.5163037 55.4627318,43.6680599 56.739825,43.2123868 C59.0110534,45.9460204 65.399167,45.3385912 68.380438,44.5790012 C69.9420021,44.1237329 72.6388021,43.0606307 71.6454234,41.3900993 C71.2194735,40.6309141 68.8060096,39.719568 68.2385808,39.5678119" id="Fill-25" fill="#999999"></path>
                        <path d="M35.8061355,61.2149508 C35.8061355,61.2149508 35.4780558,59.9322038 41.3792201,60.2531755 C41.3792201,60.2531755 44.5481985,61.6426598 46.7337143,60.5737672 C46.7337143,60.5737672 47.6076876,59.3973777 49.2465332,59.611612 C49.2465332,59.611612 51.6510276,59.3973777 50.8857671,54.5869815 L52.525001,54.2660099 C52.525001,54.2660099 54.382437,61.7493971 49.7928151,61.4288053 C49.7928151,61.4288053 48.5911503,61.1082135 47.1705068,62.4980777 C47.1705068,62.4980777 45.4221718,63.8879418 41.8160126,62.3909605 C41.8160126,62.3909605 38.1007523,61.7493971 34.9317739,64.3152709 L35.8061355,61.2149508 Z" id="Fill-27" fill="#222222"></path>
                        <path d="M52.8966862,55.3363082 C52.8966862,55.3363082 59.4392468,55.2427894 59.7717925,52.2561576 L60.8809348,52.2561576 C60.8809348,52.2561576 60.991652,56.4562123 52.8966862,56.2698379 L52.8966862,55.3363082 Z" id="Fill-29" fill="#222222"></path>
                        <path d="M64.7053145,33.261025 C61.7527514,33.0350402 58.7997849,35.9720397 62.8882595,35.5204715 C62.8882595,37.1019636 64.7053145,38.0059028 65.6140437,38.9094405 C67.2039164,40.491334 67.2039164,40.7169174 69.2481537,41.6208566 C74.9269045,43.8803031 73.1098495,38.9094405 69.2481537,38.4574709 C70.8380263,35.5204715 66.7495518,32.583472 64.4781322,33.261025" id="Fill-31" fill="#DDDDDD"></path>
                        <path d="M53.7295318,48.1711442 C49.3248606,46.9306473 44.4792136,51.8930022 51.3070996,52.9270558 C48.2233993,53.1334991 49.7654451,55.4080496 51.7480754,56.0284817 C53.5096308,56.6485465 55.7117708,56.0284817 57.0335243,54.9944282 C59.8969323,57.8894107 68.7066661,54.5811741 63.8614103,52.3066237 C69.5878351,51.4793808 61.4381955,47.9643335 59.6762488,47.7575228 C57.6944011,47.3442687 54.1705076,46.7238366 53.2893386,47.9643335" id="Fill-33" fill="#999999"></path>
                        <path d="M58.466056,42.6136276 C57.1539631,41.9581945 54.9679184,40.8651589 53.4371433,41.3023731 C49.9390057,42.3954087 53.0001674,44.3620962 55.4048943,44.7993105 C53.874896,44.5807034 50.1576879,45.0179176 51.0320281,47.2036006 C51.6880745,48.7334621 56.498305,48.514855 57.8100095,48.2962479 C52.7814853,49.1706764 60.6521006,50.7005379 61.5272177,51.1377522 C62.1828757,51.3563593 67.8674464,55.5087298 65.6810133,51.5745781 C66.5553535,52.0117924 67.2117884,52.0117924 67.8674464,52.2303995 C67.8674464,50.4819308 63.2762865,44.5807034 61.5272177,43.9252703 L61.9641936,43.9252703 C61.3081471,42.3954087 59.7777605,41.9581945 58.2473738,42.8322347" id="Fill-35" fill="#DDDDDD"></path>
                        <path d="M60.2387497,44.1679802 C58.6039066,40.7190413 63.0999974,42.3283283 63.7131997,45.0873977 C65.3480428,43.2481542 68.2089275,45.5473107 66.9828859,47.8464671 C70.457336,47.6165106 68.8224928,51.984867 64.5304397,49.4557541 C62.8952336,48.3059717 59.4215096,46.2367717 60.6475512,44.1679802" id="Fill-37" fill="#DDDDDD"></path>
                        <path d="M23.7340449,27.9696484 C21.9603766,27.1252782 19.3000711,26.7029055 17.5256151,27.5476509 C18.4126462,21.4239974 3.76976964,22.2764694 1.99610136,27.1330049 C3.10489021,27.3441913 -0.875947088,30.5031342 1.34084284,32.1926249 C4.00154219,34.0929268 7.32712097,32.6149976 9.98782033,32.6149976 C12.6481258,32.6149976 20.62983,33.8817405 21.7390127,31.1366932 C23.7340449,31.9814386 26.6161081,30.0811367 23.7340449,29.4475777" id="Fill-39" fill="#666666"></path>
                        <path d="M49.6837052,13.8480462 C49.235651,11.0263606 45.4313643,8.63922547 42.7462194,9.72425186 C40.9559902,9.07339026 38.4938785,8.42214308 36.9278752,10.1584166 C38.7181044,10.1584166 40.5083336,9.50755505 41.850906,10.375499 C41.6270777,10.8096638 41.1790234,11.2438286 40.9559902,11.6776078 C42.0743368,12.328855 43.1934785,12.1117726 44.3122226,12.7630198 C45.8794186,13.4138814 46.3266777,15.1505405 46.9977651,15.5843197 C49.4598769,17.1038965 51.2497085,14.7163757 48.5645635,13.8480462" id="Fill-41" fill="#49A040"></path>
                        <path d="M66.7384427,38.3586165 C62.8838525,37.9365334 62.8838525,42.1566149 66.9652543,41.523865 L66.7384427,41.523865 C66.5120338,41.523865 66.5120338,41.523865 66.2852221,41.7345318 C67.4188777,42.578698 71.047462,43.2118227 72.4079293,43.2118227 C74.4492345,43.2118227 78.0774159,41.9459482 73.9956111,40.6796988 C75.1292667,38.1479498 68.779345,37.9365334 66.9652543,38.3586165" id="Fill-43" fill="#DDDDDD"></path>
                        <path d="M21.5723457,47.7636423 C20.0303673,46.4576811 13.2027797,44.715884 15.4052147,48.6341541 C14.0843014,47.7636423 12.7626057,46.8931304 11.0007359,47.1104683 C10.3398881,49.7227773 24.6551287,54.9470086 26.1971071,52.1173617 C27.2985202,52.9878735 28.6198247,53.4233228 29.9415205,53.2055981 C29.9415205,48.8518787 23.9946721,46.6754058 20.6912152,47.5459176" id="Fill-45" fill="#666666"></path>
                        <path d="M16.8724428,35.6988625 C15.5934784,35.2457051 13.5844276,34.9431973 12.3058384,35.3967576 C8.47007073,37.0591403 13.9494708,38.5708735 16.1419812,38.4194182 C15.4107692,38.5708735 15.5934784,38.8729784 15.045726,39.0244337 C18.3337412,39.9311513 21.0732536,36.9076851 16.6893584,36.0009674" id="Fill-47" fill="#DDDDDD"></path>
                        <path d="M56.4535678,48.4067802 C55.0988905,48.4067802 51.4857491,50.1325329 51.9374419,51.6664975 C52.3887336,53.0086739 57.3565523,51.6664975 58.7116308,51.4747093 C61.1951391,51.0914737 65.4858197,50.1325329 60.7438474,48.4067802 C59.3887689,48.0235445 56.6790131,48.4067802 55.0988905,48.4067802" id="Fill-49" fill="#DDDDDD"></path>
                        <path d="M33.9337232,36.7324355 L34.1823854,36.1773399 C34.0591694,36.3386037 33.9788838,36.5251556 33.9337232,36.7324355" id="Fill-51" fill="#19120B"></path>
                        <path d="M35.0176939,70.379684 C31.8103957,68.8595868 33.5211827,64.0804845 33.7346986,61.9082004 C34.1621105,58.8668483 35.6593815,56.043149 35.8728975,53.2190639 C36.0867934,50.6126317 35.6593815,46.9194785 35.2315898,44.0957793 C35.0389695,42.3337169 33.2837317,38.9844091 33.5652536,37.2269776 L33.3069069,38.013461 C33.1971096,36.8993405 32.6937134,35.0994589 32.0273309,34.1674877 C32.0790002,36.0430075 32.3023942,38.3484303 32.9699164,40.2787492 C32.9699164,40.2787492 34.3604295,45.6008261 33.611604,49.5108603 C33.611604,49.5108603 32.9231861,47.2251188 31.6436101,45.5664801 C31.7735433,47.7719524 31.6873011,50.1178958 31.382224,52.1331148 C31.2959818,52.6591093 31.1557907,53.1484425 30.9882453,53.6165506 C31.2427928,54.8611085 31.6310727,56.0971763 32.2214708,56.8605052 C32.2214708,56.8605052 26.5188474,65.5492558 29.3705391,71.197426 C29.3705391,71.197426 30.5114437,72.2108242 30.2257426,76.2655744 C30.2257426,76.2655744 28.372485,90.8923132 25.8061145,95.3815975 C25.8061145,95.3815975 23.6675357,96.8299156 17.9649123,96.9746316 C17.9649123,96.9746316 19.9606405,97.6989836 22.3845404,97.4095515 C22.3845404,97.4095515 24.8080604,97.5542675 27.5169015,96.5404835 C27.5169015,96.5404835 29.0175919,96.4324289 30.5315795,96.9700007 C30.6409969,91.92848 33.09795,88.0906109 33.3069069,83.6302698 C33.5211827,81.0238376 33.093011,77.9824854 33.093011,75.8105872 C33.093011,73.2037691 32.2378075,71.900553 35.0176939,70.379684" id="Fill-53" fill="#222222"></path>
                        <path d="M37.7852698,7.56696712 C37.3506706,3.22189453 32.4312543,-0.399127951 28.089504,0.0354564988 C24.6165666,0.325308117 24.7615615,2.64257725 23.1697021,4.52564788 C21.5778427,6.26359973 19.262551,6.55306539 20.9990198,9.59438463 C19.5517697,10.0289691 17.5256967,11.7669209 18.5387332,13.2154071 C15.0657957,13.3605259 13.6185456,19.733016 15.210405,22.195018 C12.6058948,21.7604335 12.0266862,25.5265748 13.6185456,26.974675 C11.5924726,26.2502389 4.64659771,27.1197938 4.0677748,29.8716474 C3.48856626,32.1885305 6.38306644,31.7539461 7.83031653,31.6092133 C8.55374876,31.4644804 9.71139458,30.8851632 10.4348268,30.8851632 C11.5924726,31.029896 11.4482489,31.6092133 12.7505041,32.0437977 C14.7761915,33.0576994 16.9468738,32.1885305 18.9725612,32.623115 C19.841374,32.9125807 20.7094155,33.7817496 21.8670613,34.0716012 C23.0250928,34.216334 24.3269623,34.216334 25.4849937,33.9264824 C27.3656862,33.6370167 29.1021549,32.3332634 31.1286135,32.3332634 C33.1543009,32.3332634 35.3249832,33.4918979 37.3506706,33.0576994 C38.6533114,32.7678478 39.6663479,32.0437977 40.5343894,31.029896 C42.7054574,32.4783822 45.7441813,34.6505325 48.6382958,34.0716012 C50.5193739,33.7817496 50.0851603,32.4783822 51.2431917,31.8986789 C52.2558426,31.3193616 53.5584834,31.8986789 54.7161292,31.7539461 C56.8868115,31.4644804 62.3862076,30.0159943 63.5434678,28.1333096 C64.9907179,25.8160404 61.3727855,23.3540385 59.0571082,23.6435041 C63.1092542,20.3123333 59.4917074,17.9950642 55.8741606,17.4157469 C57.899848,13.0702883 55.8741606,12.491357 52.2558426,10.898138 C54.4269105,5.68428244 49.3621137,5.10496516 45.5995719,5.97413406 C44.2973168,6.40871851 44.7315304,6.55306539 43.4288896,6.26359973 C42.4158531,6.11848094 42.1262488,5.10496516 40.8243793,5.10496516 C39.6663479,5.10496516 37.9298791,6.11848094 37.4960512,7.13238267" id="Fill-55" fill="#999999"></path>
                        <path d="M59.8195306,23.2895352 C63.9043991,20.0081849 60.2576393,17.7255726 56.6108795,17.1549195 C58.6529251,12.8744511 56.6108795,12.3041782 52.9633423,10.7347871 C55.1519424,5.59890934 50.0462455,5.02825625 46.2533199,5.88442597 C44.9405485,6.31251083 45.3782686,6.45469888 44.0651085,6.16956243 C43.0438914,6.02661402 42.7519484,5.02825625 41.4395659,5.02825625 C40.3888046,5.02825625 38.8684467,5.83766359 38.2554054,6.72766951 C37.3710244,2.77909991 32.7287042,-0.368806526 28.6018519,0.0349466908 C25.1004805,0.320083143 25.2466463,2.60269549 23.6423208,4.45760316 C22.0376066,6.16956243 19.7036181,6.45469888 21.4541095,9.45091272 C19.9951723,9.87899758 17.952738,11.5909568 18.9739552,13.0173995 C15.6420739,13.1535046 14.1621449,18.8433075 15.4099968,21.4832908 C15.3788977,18.5710972 18.9809525,15.9162867 21.5439081,15.7075669 C21.3250481,13.3534803 23.2943995,11.4274786 25.7010821,11.641521 C25.0448908,9.07339206 27.4515735,8.00317991 29.4209248,8.85934963 C30.7340849,6.93334794 34.2354563,9.07339206 35.1105076,10.7853513 C37.0802477,8.43126477 42.7694417,11.4274786 43.863353,13.7815652 C42.1124729,10.5713089 54.5851611,12.711353 51.0841784,16.5633564 C53.4912497,14.6373547 55.6794611,18.0616534 53.709721,20.2013174 C56.3356524,19.5591901 61.1497951,22.3413615 56.9926212,23.6256161 C59.6177751,22.9834888 61.5875151,24.0533207 63.7753378,25.1231527 C63.8087693,25.046356 63.8418121,24.9665178 63.8752437,24.8874399 C62.8757959,23.8328152 61.1389104,23.1283381 59.8195306,23.2895352" id="Fill-57" fill="#DDDDDD"></path>
                        <path d="M14.9707602,22.1633289 C15.0460279,22.1855327 15.1218532,22.2060712 15.1971209,22.2310505 L15.4435529,22.1083744 C15.2774064,22.1133702 15.1218532,22.1339088 14.9707602,22.1633289" id="Fill-59" fill="#79D86F"></path>
                        <path d="M29.0872525,6.58210673 C26.9502224,5.97580723 24.1719693,6.98654586 23.958608,9.41282142 C23.744867,13.2542747 29.942596,13.051696 32.5067285,12.0409574 C31.6521442,12.4453965 31.6521442,12.8498356 31.0109213,13.4561351 C33.3616924,14.8716721 39.1315598,15.0738916 41.9094332,15.0738916 C46.6109754,14.8716721 47.6793006,10.4235601 42.3365355,10.2213405 C41.4819512,8.19950405 37.8491139,7.3906258 35.7117042,7.79506492 C35.2846019,5.5713681 29.3009935,3.75175122 28.2322886,6.17802679" id="Fill-61" fill="#DDDDDD"></path>
                        <path d="M31.4623379,10.2595078 C26.7362524,10.2595078 26.7362524,15.8594131 31.6874276,16.0748382 C40.4643293,16.2902634 33.7128357,7.67517162 28.5369705,10.6899754" id="Fill-63" fill="#DDDDDD"></path>
                        <path d="M19.5151439,20.1217181 C17.5460301,18.7664864 14.4827482,18.08867 12.2948008,18.08867 C9.23151898,18.3146088 6.60629305,21.4769497 10.9821879,21.4769497 C7.26240519,20.5731944 7.04396027,24.6396919 10.1064647,25.9949236 C12.0755785,26.8982776 15.7953612,26.4468012 17.7640863,25.9949236 C17.5460301,25.9949236 17.1083629,26.4468012 16.8891405,26.4468012 C19.2963103,28.0279717 32.6420509,26.8982776 28.9230456,22.8325827 C31.3298266,22.8325827 31.3298266,21.2510109 30.2360473,19.6698404 C29.3603241,18.7664864 26.0789861,18.5405476 24.7659844,18.3146088 C22.5776483,18.08867 20.171256,17.8627311 18.2021422,18.9920239" id="Fill-65" fill="#999999"></path>
                        <path d="M30.9395712,61.7894695 C30.9395712,61.7894695 20.5089192,56.3571652 22.728232,47.4488501 L21.1748313,47.2315271 C21.1748313,47.2315271 18.7335478,57.0091344 30.2744476,63.3103448 L30.9395712,61.7894695 Z" id="Fill-67" fill="#222222"></path>
                        <path d="M21.957115,53.4843586 C21.957115,53.4843586 16.820476,53.2711465 15.7928561,47.3023453 L14.9707602,47.2315271 C14.9707602,47.2315271 16.1352744,53.6263737 21.8888504,54.2660099 L21.957115,53.4843586 Z" id="Fill-69" fill="#222222"></path>
                        <path d="M19.8383907,45.3932499 C16.344514,42.0679257 11.9766082,46.8480331 16.7809576,46.8480331 C14.1603561,45.3932499 9.57478827,46.8480331 13.5054966,48.926453 C15.252435,49.9658476 17.2177892,48.926453 18.7463118,49.3422108 C19.8383907,49.5500897 21.1481096,50.3812362 22.2398006,50.796994 C29.4467458,53.0832928 24.8607901,46.0165174 19.4011712,45.6007596" id="Fill-71" fill="#666666"></path>
                        <path d="M25.3662107,45.2921943 C21.2368693,44.6647759 20.5842989,48.4304014 24.9314212,48.4304014 C25.3662107,48.221138 24.279237,48.6396647 24.0622284,48.6396647 C24.7144126,53.4519787 31.8872803,45.9199844 24.9314212,45.9199844" id="Fill-73" fill="#999999"></path>
                        <path d="M42.9161793,38.9493015 C42.9161793,38.9493015 49.5445606,36.8700994 49.8460331,32.1576355 L50.9005848,32.7116953 C50.9005848,32.7116953 50.5991123,37.701928 43.0675177,40.1970443 L42.9161793,38.9493015 Z" id="Fill-75" fill="#222222"></path>
                        <path d="M49.4390652,34.4069016 C49.4390652,34.4069016 52.8612247,33.8328524 53.9300083,31.3441724 L54.8927875,31.1527094 C54.8927875,31.1527094 53.7168595,34.5024631 48.9044834,35.1724138 L49.4390652,34.4069016 Z" id="Fill-77" fill="#222222"></path>
                        <path d="M22.5906452,41.198578 C22.5906452,41.198578 19.3200387,42.6700055 16.7307177,39.1921182 L15.9688109,39.1928311 C15.9688109,39.1928311 19.0469434,44.0077642 23.9532164,41.4662723 L22.5906452,41.198578 Z" id="Fill-79" fill="#222222"></path>
                        <path d="M24.9512671,58.4631201 C24.9512671,58.4631201 27.6109923,57.0445738 26.8015286,53.2610837 L27.7268648,53.4975781 C27.7268648,53.4975781 28.8831242,58.1085885 25.8766033,59.2906404 L24.9512671,58.4631201 Z" id="Fill-81" fill="#222222"></path>
                        <path d="M29.6319071,54.2660099 C29.6319071,54.2660099 28.599618,55.9699138 27.2569818,56.231623 L26.9473684,57.2807882 C26.9473684,57.2807882 28.7023333,56.887293 29.9415205,54.7903596 L29.6319071,54.2660099 Z" id="Fill-83" fill="#222222"></path>
                        <path d="M28.9434698,91.6335928 C27.7654813,91.1926052 25.9981063,90.0165076 24.6729674,90.6047522 C23.0531352,91.1926052 21.7279963,93.5440171 19.9610136,94.2787354 C21.5804534,95.1607107 30.4161515,92.6620418 28.6491689,91.3394705" id="Fill-85" fill="#222222"></path>
                        <path d="M56.8888889,31.1854565 C54.9058923,30.744311 52.9228956,29.419698 50.7191311,28.7577837 C47.1938907,27.8747083 42.5671595,30.9650798 47.4146586,31.1854565 C43.4482739,30.744311 41.4656687,29.1993213 37.7196604,28.316246 C33.5332907,27.212794 30.6691797,31.6269942 34.4144051,30.744311 C32.6517849,28.7577837 25.8216806,27.6539395 24.7197983,31.4062253 C28.0250537,31.1854565 24.9401748,29.419698 23.3975396,28.7577837 C20.9741815,28.0954772 19.6519228,29.419698 17.4489412,29.8612357 C16.3474503,30.0820045 13.4829479,28.9785525 13.0418035,30.3027733 C12.3810656,32.0685318 16.7878118,32.5100695 17.8893026,32.5100695 C15.6859295,36.4831241 24.0590604,36.7038929 26.0420571,34.9377423 C28.9065595,38.6904203 31.5502941,36.7038929 35.0759259,36.2623553 C36.6181696,36.0415864 37.9404283,36.7038929 39.4822806,36.7038929 C41.9060302,36.7038929 42.3467831,35.6000488 44.3297797,34.9377423 C44.7701412,34.7169735 44.9909091,33.6135215 45.6520384,33.3927526 C46.3127763,33.1719838 46.9735143,34.4962047 47.6342522,34.275828 C49.3976552,34.275828 50.2787696,34.4962047 51.8210134,33.8342903 C53.5836335,33.1719838 56.0073831,32.0685318 56.8888889,31.4062253" id="Fill-181" fill="#666666"></path>
                        <path d="M28.4861408,26.3937432 C28.0566093,29.7117466 29.9874051,31.9238799 33.4202275,31.4813746 C31.0602812,33.4722553 36.2097053,34.1360132 37.9259259,34.1360132 C35.5652174,34.1360132 28.4861408,34.5785184 27.62784,32.1451325 C24.8391244,32.8088904 18.4026301,31.0392624 22.0500277,27.2783607 C19.9046566,23.9603572 27.1986895,22.6332345 27.8424152,26.3937432" id="Fill-183" fill="#999999"></path>
                    </g>
                    <g id="house" transform="translate(0.000000, 9.546798)" fill-rule="nonzero">
                        <polygon id="Path" fill="#E9EAEF" points="116.94609 37.6550837 116.94609 92.3579852 45.6707992 92.3579852 45.6707992 37.6550837 81.5093021 2.65024138"></polygon>
                        <polyline id="Path" fill="#888888" points="99.506152 18.3414089 99.506152 8.23687685 117.325099 8.23687685 117.325099 35.4279163"></polyline>
                        <polyline id="Path" fill="#757575" points="99.506152 18.3414089 99.506152 8.23687685 103.785544 8.23687685 103.785544 35.4279163"></polyline>
                        <g id="Group" transform="translate(0.000000, 80.645320)" fill="#646464">
                            <path d="M88.378386,0.250226601 L124.092881,0.250226601 C126.112936,0.250226601 127.750737,1.89905911 127.750737,3.93328079 L127.750737,11.7131675 L84.7205302,11.7131675 L84.7205302,3.93328079 C84.7205302,1.89905911 86.3580819,0.250226601 88.378386,0.250226601 Z" id="Path"></path>
                            <path d="M3.65785575,0.250226601 L45.0834464,0.250226601 C47.103501,0.250226601 48.7413021,1.89905911 48.7413021,3.93328079 L48.7413021,11.7131675 L0,11.7131675 L0,3.93328079 C0,1.89905911 1.63755166,0.250226601 3.65785575,0.250226601 Z" id="Path"></path>
                        </g>
                        <polygon id="Path" fill="#D2D4D8" points="116.94609 39.8026108 116.94609 50.0274828 81.3084444 15.7665369 45.6707992 50.0274828 45.6707992 39.8026108 78.4779727 8.34164039 81.3084444 5.69441379 84.1366706 8.34164039"></polygon>
                        <polygon id="Path" fill="#F44336" points="81.3074464 10.0763941 40.7319454 49.082601 35.0582768 44.2868424 78.4784717 2.65024138 81.3074464 0.00427093596 84.1369201 2.65024138 127.557115 44.2868424 121.883446 49.082601"></polygon>
                        <rect id="Rectangle" fill="#424240" x="54.389271" y="51.37333" width="23.5050916" height="40.9839015"></rect>
                        <path d="M79.5875556,92.3579852 L76.2049123,92.3579852 L76.2049123,53.0756749 L56.0817154,53.0756749 L56.0817154,92.3579852 L52.6993216,92.3579852 L52.6993216,51.3728276 C52.6993216,50.4322167 53.4563431,49.6699803 54.3905185,49.6699803 L77.8963587,49.6699803 C78.8305341,49.6699803 79.5875556,50.4322167 79.5875556,51.3728276 L79.5875556,92.3579852 L79.5875556,92.3579852 Z" id="Path" fill="#212121"></path>
                        <rect id="Rectangle" fill="#E5E5E5" x="84.7217778" y="51.37333" width="26.7679688" height="23.6670148"></rect>
                        <rect id="Rectangle" fill="#424242" x="84.7217778" y="51.37333" width="26.7679688" height="7.19175369"></rect>
                        <g id="Group" transform="translate(67.368421, 49.492611)" fill="#212121">
                            <path d="M44.1193294,27.2510837 L17.3521092,27.2510837 C16.4179337,27.2510837 15.6609123,26.4888473 15.6609123,25.5482365 L15.6609123,1.88071921 C15.6609123,0.940108374 16.4179337,0.177871921 17.3521092,0.177871921 L44.1195789,0.177871921 C45.0537544,0.177871921 45.8107758,0.940108374 45.8107758,1.88071921 L45.8107758,25.5482365 C45.8107758,26.4883448 45.0535049,27.2510837 44.1193294,27.2510837 Z M19.043306,23.8453892 L42.4283821,23.8453892 L42.4283821,3.5835665 L19.043306,3.5835665 L19.043306,23.8453892 Z" id="Shape"></path>
                            <path d="M5.24550487,23.9443744 L1.83366862,23.9443744 C0.899493177,23.9443744 0.142471735,23.1821379 0.142471735,22.2415271 C0.142471735,21.3009163 0.899493177,20.5386798 1.83366862,20.5386798 L5.24550487,20.5386798 C6.17968031,20.5386798 6.93670175,21.3009163 6.93670175,22.2415271 C6.93670175,23.1821379 6.1794308,23.9443744 5.24550487,23.9443744 Z" id="Path"></path>
                        </g>
                        <ellipse id="Oval" fill="#424242" cx="81.3081949" cy="33.0846798" rx="6.53847953" ry="6.58352217"></ellipse>
                        <rect id="Rectangle" fill="#212121" x="84.7217778" y="56.861734" width="26.7679688" height="3.40569458"></rect>
                        <path d="M81.3084444,41.3725567 C76.7700585,41.3725567 73.07777,37.6548325 73.07777,33.0851823 C73.07777,28.515532 76.769809,24.7978079 81.3084444,24.7978079 C85.8470799,24.7978079 89.5393684,28.515532 89.5393684,33.0851823 C89.5391189,37.6548325 85.8468304,41.3725567 81.3084444,41.3725567 Z M81.3084444,28.2035025 C78.6354152,28.2035025 76.4601637,30.3934877 76.4601637,33.0851823 C76.4601637,35.7768768 78.6351657,37.9668621 81.3084444,37.9668621 C83.9817232,37.9668621 86.1569747,35.7768768 86.1569747,33.0851823 C86.1569747,30.3934877 83.9817232,28.2035025 81.3084444,28.2035025 Z" id="Shape" fill="#F44336"></path>
                    </g>
                </g>
            </g>
        </g>
    </g>
</svg>