<?xml version="1.0" encoding="UTF-8"?>
<svg width="19px" height="17px" viewBox="0 0 19 17" version="1.1" xmlns="http://www.w3.org/2000/svg" xmlns:xlink="http://www.w3.org/1999/xlink">
    <!-- Generator: Sketch 55.2 (78181) - https://sketchapp.com -->
    <title>“”</title>
    <desc>Created with Sketch.</desc>
    <g id="Page-1" stroke="none" stroke-width="1" fill="none" fill-rule="evenodd">
        <g id="homelink-copy" transform="translate(-1.000000, -2118.000000)" fill="rgba(0,0,0,.05)" fill-rule="nonzero">
            <path d="M2.25,2134.84375 L2.25,2132.53125 C2.97917031,2132.15625 3.52603984,2131.44792 3.890625,2130.40625 C4.25521016,2129.36458 4.4375,2127.98959 4.4375,2126.28125 L4.4375,2125.59375 L1.46875,2125.59375 L1.46875,2118.65625 L8.40625,2118.65625 L8.40625,2123.84375 C8.40625,2127.01043 7.89063016,2129.51041 6.859375,2131.34375 C5.82811984,2133.17709 4.29167688,2134.34375 2.25,2134.84375 Z M13.8125,2134.84375 L13.8125,2132.53125 C14.5416703,2132.15625 15.0885398,2131.44792 15.453125,2130.40625 C15.8177102,2129.36458 16,2127.98959 16,2126.28125 L16,2125.59375 L13.03125,2125.59375 L13.03125,2118.65625 L19.96875,2118.65625 L19.96875,2123.84375 C19.96875,2127.01043 19.4531302,2129.51041 18.421875,2131.34375 C17.3906198,2133.17709 15.8541769,2134.34375 13.8125,2134.84375 Z" id="“”"></path>
        </g>
    </g>
</svg>